<svg width="151" height="130" viewBox="0 0 151 130" fill="none" xmlns="http://www.w3.org/2000/svg">
<rect width="151" height="130" rx="15" fill="#BF9A33"/>
<path d="M89.3033 71.8321C89.2116 71.8321 89.1199 71.8071 89.0365 71.7599L75.2331 63.792C75.0691 63.6976 74.9663 63.5225 74.9663 63.3308C74.9663 63.1392 75.0664 62.9641 75.2331 62.8697L89.0365 54.9046C89.2005 54.8101 89.4034 54.8101 89.5701 54.9046C89.7341 54.999 89.8369 55.1741 89.8369 55.3658L89.8397 71.2987C89.8397 71.4876 89.7396 71.6654 89.5729 71.7599C89.4895 71.8099 89.3978 71.8321 89.3033 71.8321ZM76.5643 63.3336L88.7725 70.3791L88.7698 56.2881L76.5643 63.3336Z" fill="#F6F7F8"/>
<path d="M75.5 63.8699C75.4083 63.8699 75.3165 63.8449 75.2332 63.7977L61.4269 55.827C61.263 55.7326 61.1602 55.5575 61.1602 55.3658L61.1629 39.4329C61.1629 39.244 61.2658 39.0662 61.4297 38.9717C61.5937 38.8773 61.7966 38.8773 61.9633 38.9717L75.7667 46.9396C75.9307 47.034 76.0335 47.2091 76.0335 47.4008V63.3393C76.0335 63.5282 75.9335 63.706 75.7667 63.8004C75.6834 63.8477 75.5917 63.8699 75.5 63.8699ZM62.2273 55.0602L74.9692 62.4169V47.7091L62.2301 40.3553L62.2273 55.0602Z" fill="#F6F7F8"/>
<path d="M61.6967 71.8321C61.605 71.8321 61.5133 71.807 61.4299 71.7598L47.6237 63.7892C47.4598 63.6947 47.3569 63.5197 47.3569 63.328L47.3597 47.3951C47.3597 47.2061 47.4625 47.0283 47.6265 46.9339C47.7905 46.8394 47.9933 46.8394 48.1601 46.9339L61.9441 54.8906C61.9552 54.8962 61.9663 54.9017 61.9774 54.9101C62.133 55.0073 62.2303 55.1796 62.2303 55.3629V71.3014C62.2303 71.4903 62.1303 71.6681 61.9635 71.7626C61.8801 71.8098 61.7884 71.8321 61.6967 71.8321ZM48.4241 63.0224L61.1659 70.3791V55.6713L48.4269 48.3174L48.4241 63.0224Z" fill="#F6F7F8"/>
<path d="M75.4999 63.8697C75.4082 63.8697 75.3165 63.8447 75.2331 63.7975C75.0691 63.7031 74.9663 63.528 74.9663 63.3363V47.3978C74.9663 47.2145 75.0608 47.0422 75.2192 46.945C75.2303 46.9394 75.2414 46.9311 75.2525 46.9255L89.0365 38.9688C89.2005 38.8743 89.4034 38.8743 89.5701 38.9688C89.7341 39.0633 89.8369 39.2383 89.8369 39.43L89.8397 55.3629C89.8397 55.5518 89.7396 55.7296 89.5729 55.8241L75.7667 63.7947C75.6833 63.8475 75.5916 63.8697 75.4999 63.8697ZM76.0307 47.7062V62.414L88.7725 55.0573L88.7698 40.3523L76.0307 47.7062Z" fill="#F6F7F8"/>
<path d="M89.3036 71.8322C89.2119 71.8322 89.1202 71.8071 89.0368 71.7599C88.8728 71.6655 88.77 71.4904 88.77 71.2987V55.3602C88.77 55.1769 88.8645 55.0046 89.0229 54.9074C89.034 54.9018 89.0451 54.8935 89.0563 54.8879L102.84 46.9312C103.004 46.8367 103.207 46.8367 103.374 46.9312C103.538 47.0257 103.641 47.2007 103.641 47.3924L103.643 63.3253C103.643 63.5142 103.543 63.692 103.377 63.7865L89.5704 71.7571C89.487 71.8099 89.3953 71.8322 89.3036 71.8322ZM89.8372 55.6714V70.3792L102.579 63.0225L102.576 48.3175L89.8372 55.6714Z" fill="#F6F7F8"/>
<path d="M47.8905 47.9425C47.7988 47.9425 47.7071 47.9175 47.6237 47.8703C47.4598 47.7758 47.3569 47.6008 47.3569 47.4091V31.4706C47.3569 31.2872 47.4514 31.115 47.6098 31.0177C47.6209 31.0122 47.6321 31.0039 47.6432 30.9983L61.4272 23.0415C61.5911 22.9471 61.794 22.9471 61.9607 23.0415C62.1247 23.136 62.2275 23.311 62.2275 23.5027L62.2303 39.4357C62.2303 39.6246 62.1303 39.8024 61.9635 39.8969L48.1573 47.8675C48.0739 47.9175 47.9822 47.9425 47.8905 47.9425ZM48.4241 31.779V46.4867L61.1659 39.1301L61.1632 24.4251L48.4241 31.779Z" fill="#F6F7F8"/>
<path d="M103.11 47.9424C103.018 47.9424 102.926 47.9174 102.843 47.8702L89.0368 39.8995C88.8728 39.8051 88.77 39.6301 88.77 39.4384L88.7728 23.5054C88.7728 23.3165 88.8756 23.1387 89.0396 23.0442C89.2035 22.9498 89.4064 22.9498 89.5732 23.0442L103.357 31.001C103.368 31.0065 103.379 31.0121 103.39 31.0204C103.546 31.1177 103.643 31.2899 103.643 31.4733V47.4118C103.643 47.6007 103.543 47.7785 103.377 47.873C103.293 47.9174 103.202 47.9424 103.11 47.9424ZM89.8372 39.13L102.579 46.4866V31.7789L89.8399 24.425L89.8372 39.13Z" fill="#F6F7F8"/>
<path d="M89.3064 55.8993C89.2147 55.8993 89.123 55.8743 89.0396 55.827C88.8756 55.7326 88.7728 55.5575 88.7728 55.3658L88.77 39.4329C88.77 39.244 88.8701 39.0662 89.0368 38.9717C89.2008 38.8773 89.4036 38.8773 89.5704 38.9717L103.374 46.9396C103.538 47.034 103.641 47.2091 103.641 47.4008C103.641 47.5925 103.541 47.7675 103.374 47.8619L89.5704 55.827C89.4898 55.8743 89.3981 55.8993 89.3064 55.8993ZM89.8372 40.3553L89.8399 54.4463L102.045 47.4008L89.8372 40.3553Z" fill="#F6F7F8"/>
<path d="M61.6994 71.8377C61.6077 71.8377 61.516 71.8127 61.4327 71.7655C61.2687 71.671 61.1659 71.496 61.1659 71.3043L61.1631 55.3714C61.1631 55.1825 61.2631 55.0047 61.4299 54.9102C61.5938 54.8157 61.7967 54.8157 61.9634 54.9102L75.7669 62.8781C75.9309 62.9725 76.0337 63.1475 76.0337 63.3392C76.0337 63.5309 75.9336 63.706 75.7669 63.8004L61.9634 71.7655C61.8829 71.8127 61.7911 71.8377 61.6994 71.8377ZM62.2275 56.2937L62.2302 70.3847L74.4357 63.3392L62.2275 56.2937Z" fill="#F6F7F8"/>
<path d="M61.6994 39.9691C61.6077 39.9691 61.516 39.9441 61.4327 39.8969C61.2687 39.8024 61.1659 39.6274 61.1659 39.4357L61.1631 23.5027C61.1631 23.3138 61.2631 23.136 61.4299 23.0415C61.5938 22.9471 61.7967 22.9471 61.9634 23.0415L75.7669 31.0094C75.9309 31.1039 76.0337 31.2789 76.0337 31.4706C76.0337 31.6623 75.9336 31.8373 75.7669 31.9318L61.9634 39.8969C61.8829 39.9469 61.7911 39.9691 61.6994 39.9691ZM62.2275 24.4251L62.2302 38.5161L74.4357 31.4706L62.2275 24.4251Z" fill="#F6F7F8"/>
<path d="M89.3033 39.969C89.2116 39.969 89.1199 39.944 89.0365 39.8968L75.2331 31.9317C75.0691 31.8372 74.9663 31.6622 74.9663 31.4705C74.9663 31.2788 75.0664 31.1038 75.2331 31.0093L89.0365 23.0442C89.2005 22.9498 89.4034 22.9498 89.5701 23.0442C89.7341 23.1387 89.8369 23.3137 89.8369 23.5054L89.8397 39.4384C89.8397 39.6273 89.7396 39.8051 89.5729 39.8995C89.4895 39.9468 89.3978 39.969 89.3033 39.969ZM76.5643 31.4705L88.7725 38.516L88.7698 24.425L76.5643 31.4705Z" fill="#F6F7F8"/>
<path d="M61.6969 55.9049C61.6052 55.9049 61.5135 55.8799 61.4301 55.8326L47.6267 47.8648C47.4627 47.7703 47.3599 47.5953 47.3599 47.4036C47.3599 47.2119 47.4599 47.0369 47.6267 46.9424L61.4301 38.9773C61.5941 38.8829 61.7969 38.8829 61.9637 38.9773C62.1276 39.0718 62.2305 39.2468 62.2305 39.4385L62.2332 55.3715C62.2332 55.5604 62.1332 55.7382 61.9665 55.8326C61.8803 55.8799 61.7886 55.9049 61.6969 55.9049ZM48.9578 47.4036L61.1661 54.4491L61.1633 40.3581L48.9578 47.4036Z" fill="#F6F7F8"/>
<path d="M75.4972 47.9314C75.4055 47.9314 75.3138 47.9064 75.2304 47.8591L61.4269 39.8968C61.263 39.8024 61.1602 39.6273 61.1602 39.4356C61.1602 39.2467 61.2602 39.0689 61.4269 38.9745L75.2304 31.0038C75.3944 30.9094 75.5972 30.9094 75.764 31.0038L89.5702 38.9772C89.7342 39.0717 89.837 39.2467 89.837 39.4384C89.837 39.6273 89.7342 39.8051 89.5702 39.8996L75.764 47.8619C75.6806 47.9091 75.5889 47.9314 75.4972 47.9314ZM62.7609 39.4356L75.4972 46.784L88.239 39.4384L75.4972 32.0818L62.7609 39.4356Z" fill="#F6F7F8"/>
<path d="M75.4972 79.8C75.4055 79.8 75.3138 79.775 75.2304 79.7278L61.4269 71.7655C61.263 71.671 61.1602 71.496 61.1602 71.3043C61.1602 71.1154 61.2602 70.9376 61.4269 70.8431L75.2304 62.8725C75.3944 62.778 75.5972 62.778 75.764 62.8725L89.5702 70.8459C89.7342 70.9404 89.837 71.1154 89.837 71.3071C89.837 71.496 89.7342 71.6738 89.5702 71.7683L75.764 79.7306C75.6806 79.775 75.5889 79.8 75.4972 79.8ZM62.7609 71.3043L75.4972 78.6526L88.239 71.3043L75.4972 63.9476L62.7609 71.3043Z" fill="#F6F7F8"/>
<path d="M75.4972 31.9984C75.4055 31.9984 75.3138 31.9734 75.2304 31.9261L61.4269 23.9638C61.263 23.8694 61.1602 23.6944 61.1602 23.5027C61.1602 23.3137 61.2602 23.1359 61.4269 23.0415L75.2304 15.0708C75.3944 14.9764 75.5972 14.9764 75.764 15.0708L89.5702 23.0443C89.7342 23.1387 89.837 23.3137 89.837 23.5054C89.837 23.6944 89.7342 23.8722 89.5702 23.9666L75.764 31.9289C75.6806 31.9734 75.5889 31.9984 75.4972 31.9984ZM62.7609 23.5027L75.4972 30.851L88.239 23.5027L75.4972 16.146L62.7609 23.5027Z" fill="#F6F7F8"/>
<path d="M29.6751 105.4H28.6251C28.5038 105.4 28.4058 105.37 28.3311 105.309C28.2564 105.248 28.2004 105.171 28.1631 105.078L27.2251 102.656H22.7241L21.7861 105.078C21.7534 105.162 21.6974 105.237 21.6181 105.302C21.5388 105.367 21.4408 105.4 21.3241 105.4H20.2741L24.2851 95.369H25.6641L29.6751 105.4ZM23.1021 101.676H26.8471L25.2721 97.595C25.1694 97.343 25.0691 97.028 24.9711 96.65C24.9198 96.8414 24.8684 97.0187 24.8171 97.182C24.7704 97.3407 24.7238 97.4807 24.6771 97.602L23.1021 101.676ZM32.2957 104.259H36.6357V105.4H30.9377V95.369H32.2957V104.259ZM43.0641 101.774C43.1295 101.886 43.1855 102.005 43.2321 102.131C43.2835 102.252 43.3325 102.376 43.3791 102.502C43.4258 102.371 43.4748 102.248 43.5261 102.131C43.5775 102.01 43.6358 101.888 43.7011 101.767L47.0961 95.6C47.1568 95.4927 47.2198 95.4274 47.2851 95.404C47.3505 95.3807 47.4438 95.369 47.5651 95.369H48.5661V105.4H47.3761V98.029C47.3761 97.931 47.3785 97.826 47.3831 97.714C47.3878 97.602 47.3948 97.4877 47.4041 97.371L43.9671 103.643C43.8505 103.853 43.6871 103.958 43.4771 103.958H43.2811C43.0711 103.958 42.9078 103.853 42.7911 103.643L39.2771 97.35C39.2911 97.4714 39.3005 97.5904 39.3051 97.707C39.3145 97.8237 39.3191 97.931 39.3191 98.029V105.4H38.1291V95.369H39.1301C39.2515 95.369 39.3448 95.3807 39.4101 95.404C39.4755 95.4274 39.5385 95.4927 39.5991 95.6L43.0641 101.774ZM60.325 100.388C60.325 101.139 60.206 101.83 59.968 102.46C59.73 103.085 59.394 103.624 58.96 104.077C58.526 104.53 58.0034 104.882 57.392 105.134C56.7854 105.381 56.1134 105.505 55.376 105.505C54.6387 105.505 53.9667 105.381 53.36 105.134C52.7534 104.882 52.233 104.53 51.799 104.077C51.365 103.624 51.029 103.085 50.791 102.46C50.553 101.83 50.434 101.139 50.434 100.388C50.434 99.6367 50.553 98.9484 50.791 98.323C51.029 97.693 51.365 97.1517 51.799 96.699C52.233 96.2417 52.7534 95.887 53.36 95.635C53.9667 95.383 54.6387 95.257 55.376 95.257C56.1134 95.257 56.7854 95.383 57.392 95.635C58.0034 95.887 58.526 96.2417 58.96 96.699C59.394 97.1517 59.73 97.693 59.968 98.323C60.206 98.9484 60.325 99.6367 60.325 100.388ZM58.932 100.388C58.932 99.772 58.848 99.219 58.68 98.729C58.512 98.239 58.274 97.826 57.966 97.49C57.658 97.1494 57.2847 96.888 56.846 96.706C56.4074 96.524 55.9174 96.433 55.376 96.433C54.8394 96.433 54.3517 96.524 53.913 96.706C53.4744 96.888 53.0987 97.1494 52.786 97.49C52.478 97.826 52.24 98.239 52.072 98.729C51.904 99.219 51.82 99.772 51.82 100.388C51.82 101.004 51.904 101.557 52.072 102.047C52.24 102.532 52.478 102.945 52.786 103.286C53.0987 103.622 53.4744 103.881 53.913 104.063C54.3517 104.24 54.8394 104.329 55.376 104.329C55.9174 104.329 56.4074 104.24 56.846 104.063C57.2847 103.881 57.658 103.622 57.966 103.286C58.274 102.945 58.512 102.532 58.68 102.047C58.848 101.557 58.932 101.004 58.932 100.388ZM64.3039 100.248L60.9929 95.369H62.3439C62.4419 95.369 62.5142 95.3854 62.5609 95.418C62.6075 95.4507 62.6495 95.4974 62.6869 95.558L65.3049 99.576C65.3375 99.478 65.3865 99.3707 65.4519 99.254L67.9229 95.586C67.9649 95.5207 68.0092 95.4694 68.0559 95.432C68.1072 95.39 68.1679 95.369 68.2379 95.369H69.5329L66.2079 100.185L69.6449 105.4H68.3009C68.1982 105.4 68.1165 105.374 68.0559 105.323C67.9999 105.267 67.9532 105.206 67.9159 105.141L65.2279 100.934C65.1952 101.032 65.1532 101.125 65.1019 101.214L62.4839 105.141C62.4419 105.206 62.3929 105.267 62.3369 105.323C62.2855 105.374 62.2109 105.4 62.1129 105.4H60.8529L64.3039 100.248ZM79.222 105.4H78.172C78.0506 105.4 77.9526 105.37 77.878 105.309C77.8033 105.248 77.7473 105.171 77.71 105.078L76.772 102.656H72.271L71.333 105.078C71.3003 105.162 71.2443 105.237 71.165 105.302C71.0856 105.367 70.9876 105.4 70.871 105.4H69.821L73.832 95.369H75.211L79.222 105.4ZM72.649 101.676H76.394L74.819 97.595C74.7163 97.343 74.616 97.028 74.518 96.65C74.4666 96.8414 74.4153 97.0187 74.364 97.182C74.3173 97.3407 74.2706 97.4807 74.224 97.602L72.649 101.676ZM81.9756 101.214V105.4H80.6246V95.369H83.4596C84.0943 95.369 84.6426 95.4344 85.1046 95.565C85.5666 95.691 85.9469 95.8754 86.2456 96.118C86.5489 96.3607 86.7729 96.6547 86.9176 97C87.0623 97.3407 87.1346 97.7234 87.1346 98.148C87.1346 98.5027 87.0786 98.834 86.9666 99.142C86.8546 99.45 86.6913 99.7277 86.4766 99.975C86.2666 100.218 86.0076 100.425 85.6996 100.598C85.3963 100.771 85.0509 100.901 84.6636 100.99C84.8316 101.088 84.9809 101.23 85.1116 101.417L88.0376 105.4H86.8336C86.5863 105.4 86.4043 105.304 86.2876 105.113L83.6836 101.529C83.6043 101.417 83.5179 101.338 83.4246 101.291C83.3313 101.24 83.1913 101.214 83.0046 101.214H81.9756ZM81.9756 100.227H83.3966C83.7933 100.227 84.1409 100.18 84.4396 100.087C84.7429 99.989 84.9949 99.8537 85.1956 99.681C85.4009 99.5037 85.5549 99.2937 85.6576 99.051C85.7603 98.8084 85.8116 98.54 85.8116 98.246C85.8116 97.6487 85.6133 97.1984 85.2166 96.895C84.8246 96.5917 84.2389 96.44 83.4596 96.44H81.9756V100.227ZM91.1044 105.4H89.7464V95.369H91.1044V105.4ZM99.9683 95.369V96.475H95.1523V99.982H99.2683V101.088H95.1523V105.4H93.7873V95.369H99.9683ZM109.04 105.4H107.99C107.869 105.4 107.771 105.37 107.696 105.309C107.622 105.248 107.566 105.171 107.528 105.078L106.59 102.656H102.089L101.151 105.078C101.119 105.162 101.063 105.237 100.983 105.302C100.904 105.367 100.806 105.4 100.689 105.4H99.6393L103.65 95.369H105.029L109.04 105.4ZM102.467 101.676H106.212L104.637 97.595C104.535 97.343 104.434 97.028 104.336 96.65C104.285 96.8414 104.234 97.0187 104.182 97.182C104.136 97.3407 104.089 97.4807 104.042 97.602L102.467 101.676ZM118.997 100.388C118.997 101.139 118.878 101.823 118.64 102.439C118.402 103.055 118.066 103.582 117.632 104.021C117.198 104.46 116.678 104.8 116.071 105.043C115.464 105.281 114.792 105.4 114.055 105.4H110.303V95.369H114.055C114.792 95.369 115.464 95.4904 116.071 95.733C116.678 95.971 117.198 96.3117 117.632 96.755C118.066 97.1937 118.402 97.721 118.64 98.337C118.878 98.953 118.997 99.6367 118.997 100.388ZM117.604 100.388C117.604 99.772 117.52 99.2214 117.352 98.736C117.184 98.2507 116.946 97.84 116.638 97.504C116.33 97.168 115.957 96.9114 115.518 96.734C115.079 96.5567 114.592 96.468 114.055 96.468H111.668V104.301H114.055C114.592 104.301 115.079 104.212 115.518 104.035C115.957 103.858 116.33 103.603 116.638 103.272C116.946 102.936 117.184 102.525 117.352 102.04C117.52 101.555 117.604 101.004 117.604 100.388ZM130.161 100.388C130.161 101.139 130.042 101.83 129.804 102.46C129.566 103.085 129.23 103.624 128.796 104.077C128.362 104.53 127.839 104.882 127.228 105.134C126.621 105.381 125.949 105.505 125.212 105.505C124.475 105.505 123.803 105.381 123.196 105.134C122.589 104.882 122.069 104.53 121.635 104.077C121.201 103.624 120.865 103.085 120.627 102.46C120.389 101.83 120.27 101.139 120.27 100.388C120.27 99.6367 120.389 98.9484 120.627 98.323C120.865 97.693 121.201 97.1517 121.635 96.699C122.069 96.2417 122.589 95.887 123.196 95.635C123.803 95.383 124.475 95.257 125.212 95.257C125.949 95.257 126.621 95.383 127.228 95.635C127.839 95.887 128.362 96.2417 128.796 96.699C129.23 97.1517 129.566 97.693 129.804 98.323C130.042 98.9484 130.161 99.6367 130.161 100.388ZM128.768 100.388C128.768 99.772 128.684 99.219 128.516 98.729C128.348 98.239 128.11 97.826 127.802 97.49C127.494 97.1494 127.121 96.888 126.682 96.706C126.243 96.524 125.753 96.433 125.212 96.433C124.675 96.433 124.188 96.524 123.749 96.706C123.31 96.888 122.935 97.1494 122.622 97.49C122.314 97.826 122.076 98.239 121.908 98.729C121.74 99.219 121.656 99.772 121.656 100.388C121.656 101.004 121.74 101.557 121.908 102.047C122.076 102.532 122.314 102.945 122.622 103.286C122.935 103.622 123.31 103.881 123.749 104.063C124.188 104.24 124.675 104.329 125.212 104.329C125.753 104.329 126.243 104.24 126.682 104.063C127.121 103.881 127.494 103.622 127.802 103.286C128.11 102.945 128.348 102.532 128.516 102.047C128.684 101.557 128.768 101.004 128.768 100.388Z" fill="#F6F7F8"/>
</svg>
