<svg width="151" height="130" viewBox="0 0 151 130" fill="none" xmlns="http://www.w3.org/2000/svg">
<rect width="151" height="130" rx="15" fill="#B07942"/>
<path d="M89.3033 71.8321C89.2116 71.8321 89.1199 71.8071 89.0365 71.7599L75.2331 63.792C75.0691 63.6976 74.9663 63.5225 74.9663 63.3308C74.9663 63.1392 75.0664 62.9641 75.2331 62.8697L89.0365 54.9046C89.2005 54.8101 89.4034 54.8101 89.5701 54.9046C89.7341 54.999 89.8369 55.1741 89.8369 55.3658L89.8397 71.2987C89.8397 71.4876 89.7396 71.6654 89.5729 71.7599C89.4895 71.8099 89.3978 71.8321 89.3033 71.8321ZM76.5643 63.3336L88.7725 70.3791L88.7698 56.2881L76.5643 63.3336Z" fill="#F6F7F8"/>
<path d="M75.5 63.8699C75.4083 63.8699 75.3165 63.8449 75.2332 63.7977L61.4269 55.827C61.263 55.7326 61.1602 55.5575 61.1602 55.3658L61.1629 39.4329C61.1629 39.244 61.2658 39.0662 61.4297 38.9717C61.5937 38.8773 61.7966 38.8773 61.9633 38.9717L75.7667 46.9396C75.9307 47.034 76.0335 47.2091 76.0335 47.4008V63.3393C76.0335 63.5282 75.9335 63.706 75.7667 63.8004C75.6834 63.8477 75.5917 63.8699 75.5 63.8699ZM62.2273 55.0602L74.9692 62.4169V47.7091L62.2301 40.3553L62.2273 55.0602Z" fill="#F6F7F8"/>
<path d="M61.6967 71.8321C61.605 71.8321 61.5133 71.807 61.4299 71.7598L47.6237 63.7892C47.4598 63.6947 47.3569 63.5197 47.3569 63.328L47.3597 47.3951C47.3597 47.2061 47.4625 47.0283 47.6265 46.9339C47.7905 46.8394 47.9933 46.8394 48.1601 46.9339L61.9441 54.8906C61.9552 54.8962 61.9663 54.9017 61.9774 54.9101C62.133 55.0073 62.2303 55.1796 62.2303 55.3629V71.3014C62.2303 71.4903 62.1303 71.6681 61.9635 71.7626C61.8801 71.8098 61.7884 71.8321 61.6967 71.8321ZM48.4241 63.0224L61.1659 70.3791V55.6713L48.4269 48.3174L48.4241 63.0224Z" fill="#F6F7F8"/>
<path d="M75.4999 63.8697C75.4082 63.8697 75.3165 63.8447 75.2331 63.7975C75.0691 63.7031 74.9663 63.528 74.9663 63.3363V47.3978C74.9663 47.2145 75.0608 47.0422 75.2192 46.945C75.2303 46.9394 75.2414 46.9311 75.2525 46.9255L89.0365 38.9688C89.2005 38.8743 89.4034 38.8743 89.5701 38.9688C89.7341 39.0633 89.8369 39.2383 89.8369 39.43L89.8397 55.3629C89.8397 55.5518 89.7396 55.7296 89.5729 55.8241L75.7667 63.7947C75.6833 63.8475 75.5916 63.8697 75.4999 63.8697ZM76.0307 47.7062V62.414L88.7725 55.0573L88.7698 40.3523L76.0307 47.7062Z" fill="#F6F7F8"/>
<path d="M89.3036 71.8322C89.2119 71.8322 89.1202 71.8071 89.0368 71.7599C88.8728 71.6655 88.77 71.4904 88.77 71.2987V55.3602C88.77 55.1769 88.8645 55.0046 89.0229 54.9074C89.034 54.9018 89.0451 54.8935 89.0563 54.8879L102.84 46.9312C103.004 46.8367 103.207 46.8367 103.374 46.9312C103.538 47.0257 103.641 47.2007 103.641 47.3924L103.643 63.3253C103.643 63.5142 103.543 63.692 103.377 63.7865L89.5704 71.7571C89.487 71.8099 89.3953 71.8322 89.3036 71.8322ZM89.8372 55.6714V70.3792L102.579 63.0225L102.576 48.3175L89.8372 55.6714Z" fill="#F6F7F8"/>
<path d="M47.8905 47.9425C47.7988 47.9425 47.7071 47.9175 47.6237 47.8703C47.4598 47.7758 47.3569 47.6008 47.3569 47.4091V31.4706C47.3569 31.2872 47.4514 31.115 47.6098 31.0177C47.6209 31.0122 47.6321 31.0039 47.6432 30.9983L61.4272 23.0415C61.5911 22.9471 61.794 22.9471 61.9607 23.0415C62.1247 23.136 62.2275 23.311 62.2275 23.5027L62.2303 39.4357C62.2303 39.6246 62.1303 39.8024 61.9635 39.8969L48.1573 47.8675C48.0739 47.9175 47.9822 47.9425 47.8905 47.9425ZM48.4241 31.779V46.4867L61.1659 39.1301L61.1632 24.4251L48.4241 31.779Z" fill="#F6F7F8"/>
<path d="M103.11 47.9424C103.018 47.9424 102.926 47.9174 102.843 47.8702L89.0368 39.8995C88.8728 39.8051 88.77 39.6301 88.77 39.4384L88.7728 23.5054C88.7728 23.3165 88.8756 23.1387 89.0396 23.0442C89.2035 22.9498 89.4064 22.9498 89.5732 23.0442L103.357 31.001C103.368 31.0065 103.379 31.0121 103.39 31.0204C103.546 31.1177 103.643 31.2899 103.643 31.4733V47.4118C103.643 47.6007 103.543 47.7785 103.377 47.873C103.293 47.9174 103.202 47.9424 103.11 47.9424ZM89.8372 39.13L102.579 46.4866V31.7789L89.8399 24.425L89.8372 39.13Z" fill="#F6F7F8"/>
<path d="M89.3064 55.8993C89.2147 55.8993 89.123 55.8743 89.0396 55.827C88.8756 55.7326 88.7728 55.5575 88.7728 55.3658L88.77 39.4329C88.77 39.244 88.8701 39.0662 89.0368 38.9717C89.2008 38.8773 89.4036 38.8773 89.5704 38.9717L103.374 46.9396C103.538 47.034 103.641 47.2091 103.641 47.4008C103.641 47.5925 103.541 47.7675 103.374 47.8619L89.5704 55.827C89.4898 55.8743 89.3981 55.8993 89.3064 55.8993ZM89.8372 40.3553L89.8399 54.4463L102.045 47.4008L89.8372 40.3553Z" fill="#F6F7F8"/>
<path d="M61.6994 71.8377C61.6077 71.8377 61.516 71.8127 61.4327 71.7655C61.2687 71.671 61.1659 71.496 61.1659 71.3043L61.1631 55.3714C61.1631 55.1825 61.2631 55.0047 61.4299 54.9102C61.5938 54.8157 61.7967 54.8157 61.9634 54.9102L75.7669 62.8781C75.9309 62.9725 76.0337 63.1475 76.0337 63.3392C76.0337 63.5309 75.9336 63.706 75.7669 63.8004L61.9634 71.7655C61.8829 71.8127 61.7911 71.8377 61.6994 71.8377ZM62.2275 56.2937L62.2302 70.3847L74.4357 63.3392L62.2275 56.2937Z" fill="#F6F7F8"/>
<path d="M61.6994 39.9691C61.6077 39.9691 61.516 39.9441 61.4327 39.8969C61.2687 39.8024 61.1659 39.6274 61.1659 39.4357L61.1631 23.5027C61.1631 23.3138 61.2631 23.136 61.4299 23.0415C61.5938 22.9471 61.7967 22.9471 61.9634 23.0415L75.7669 31.0094C75.9309 31.1039 76.0337 31.2789 76.0337 31.4706C76.0337 31.6623 75.9336 31.8373 75.7669 31.9318L61.9634 39.8969C61.8829 39.9469 61.7911 39.9691 61.6994 39.9691ZM62.2275 24.4251L62.2302 38.5161L74.4357 31.4706L62.2275 24.4251Z" fill="#F6F7F8"/>
<path d="M89.3033 39.969C89.2116 39.969 89.1199 39.944 89.0365 39.8968L75.2331 31.9317C75.0691 31.8372 74.9663 31.6622 74.9663 31.4705C74.9663 31.2788 75.0664 31.1038 75.2331 31.0093L89.0365 23.0442C89.2005 22.9498 89.4034 22.9498 89.5701 23.0442C89.7341 23.1387 89.8369 23.3137 89.8369 23.5054L89.8397 39.4384C89.8397 39.6273 89.7396 39.8051 89.5729 39.8995C89.4895 39.9468 89.3978 39.969 89.3033 39.969ZM76.5643 31.4705L88.7725 38.516L88.7698 24.425L76.5643 31.4705Z" fill="#F6F7F8"/>
<path d="M61.6969 55.9049C61.6052 55.9049 61.5135 55.8799 61.4301 55.8326L47.6267 47.8648C47.4627 47.7703 47.3599 47.5953 47.3599 47.4036C47.3599 47.2119 47.4599 47.0369 47.6267 46.9424L61.4301 38.9773C61.5941 38.8829 61.7969 38.8829 61.9637 38.9773C62.1276 39.0718 62.2305 39.2468 62.2305 39.4385L62.2332 55.3715C62.2332 55.5604 62.1332 55.7382 61.9665 55.8326C61.8803 55.8799 61.7886 55.9049 61.6969 55.9049ZM48.9578 47.4036L61.1661 54.4491L61.1633 40.3581L48.9578 47.4036Z" fill="#F6F7F8"/>
<path d="M75.4972 47.9314C75.4055 47.9314 75.3138 47.9064 75.2304 47.8591L61.4269 39.8968C61.263 39.8024 61.1602 39.6273 61.1602 39.4356C61.1602 39.2467 61.2602 39.0689 61.4269 38.9745L75.2304 31.0038C75.3944 30.9094 75.5972 30.9094 75.764 31.0038L89.5702 38.9772C89.7342 39.0717 89.837 39.2467 89.837 39.4384C89.837 39.6273 89.7342 39.8051 89.5702 39.8996L75.764 47.8619C75.6806 47.9091 75.5889 47.9314 75.4972 47.9314ZM62.7609 39.4356L75.4972 46.784L88.239 39.4384L75.4972 32.0818L62.7609 39.4356Z" fill="#F6F7F8"/>
<path d="M75.4972 79.8C75.4055 79.8 75.3138 79.775 75.2304 79.7278L61.4269 71.7655C61.263 71.671 61.1602 71.496 61.1602 71.3043C61.1602 71.1154 61.2602 70.9376 61.4269 70.8431L75.2304 62.8725C75.3944 62.778 75.5972 62.778 75.764 62.8725L89.5702 70.8459C89.7342 70.9404 89.837 71.1154 89.837 71.3071C89.837 71.496 89.7342 71.6738 89.5702 71.7683L75.764 79.7306C75.6806 79.775 75.5889 79.8 75.4972 79.8ZM62.7609 71.3043L75.4972 78.6526L88.239 71.3043L75.4972 63.9476L62.7609 71.3043Z" fill="#F6F7F8"/>
<path d="M75.4972 31.9984C75.4055 31.9984 75.3138 31.9734 75.2304 31.9261L61.4269 23.9638C61.263 23.8694 61.1602 23.6944 61.1602 23.5027C61.1602 23.3137 61.2602 23.1359 61.4269 23.0415L75.2304 15.0708C75.3944 14.9764 75.5972 14.9764 75.764 15.0708L89.5702 23.0443C89.7342 23.1387 89.837 23.3137 89.837 23.5054C89.837 23.6944 89.7342 23.8722 89.5702 23.9666L75.764 31.9289C75.6806 31.9734 75.5889 31.9984 75.4972 31.9984ZM62.7609 23.5027L75.4972 30.851L88.239 23.5027L75.4972 16.146L62.7609 23.5027Z" fill="#F6F7F8"/>
<path d="M49.7177 103.328C49.7924 103.328 49.86 103.358 49.9207 103.419L50.4527 104C50.042 104.476 49.5427 104.847 48.9547 105.113C48.3714 105.379 47.6667 105.512 46.8407 105.512C46.1174 105.512 45.4617 105.388 44.8737 105.141C44.2857 104.889 43.784 104.539 43.3687 104.091C42.9534 103.638 42.6314 103.097 42.4027 102.467C42.174 101.837 42.0597 101.144 42.0597 100.388C42.0597 99.632 42.181 98.939 42.4237 98.309C42.671 97.679 43.0164 97.1377 43.4597 96.685C43.903 96.2324 44.4327 95.8824 45.0487 95.635C45.6694 95.383 46.353 95.257 47.0997 95.257C47.837 95.257 48.4717 95.3714 49.0037 95.6C49.5404 95.8287 50.0164 96.139 50.4317 96.531L49.9907 97.154C49.958 97.2007 49.9207 97.2404 49.8787 97.273C49.8367 97.301 49.776 97.315 49.6967 97.315C49.636 97.315 49.5707 97.294 49.5007 97.252C49.4354 97.2054 49.356 97.1494 49.2627 97.084C49.1694 97.0187 49.0597 96.9487 48.9337 96.874C48.8077 96.7994 48.6584 96.7294 48.4857 96.664C48.313 96.5987 48.1124 96.545 47.8837 96.503C47.655 96.4564 47.3914 96.433 47.0927 96.433C46.556 96.433 46.0637 96.5264 45.6157 96.713C45.1724 96.895 44.7897 97.1564 44.4677 97.497C44.1457 97.8377 43.8937 98.253 43.7117 98.743C43.5344 99.233 43.4457 99.7814 43.4457 100.388C43.4457 101.013 43.5344 101.571 43.7117 102.061C43.8937 102.551 44.1387 102.966 44.4467 103.307C44.7594 103.643 45.128 103.9 45.5527 104.077C45.9774 104.254 46.4347 104.343 46.9247 104.343C47.2234 104.343 47.4917 104.327 47.7297 104.294C47.9677 104.257 48.187 104.201 48.3877 104.126C48.593 104.051 48.782 103.958 48.9547 103.846C49.132 103.729 49.3094 103.592 49.4867 103.433C49.566 103.363 49.643 103.328 49.7177 103.328ZM61.5487 100.388C61.5487 101.139 61.4297 101.83 61.1917 102.46C60.9537 103.085 60.6177 103.624 60.1837 104.077C59.7497 104.53 59.227 104.882 58.6157 105.134C58.009 105.381 57.337 105.505 56.5997 105.505C55.8623 105.505 55.1903 105.381 54.5837 105.134C53.977 104.882 53.4567 104.53 53.0227 104.077C52.5887 103.624 52.2527 103.085 52.0147 102.46C51.7767 101.83 51.6577 101.139 51.6577 100.388C51.6577 99.6367 51.7767 98.9484 52.0147 98.323C52.2527 97.693 52.5887 97.1517 53.0227 96.699C53.4567 96.2417 53.977 95.887 54.5837 95.635C55.1903 95.383 55.8623 95.257 56.5997 95.257C57.337 95.257 58.009 95.383 58.6157 95.635C59.227 95.887 59.7497 96.2417 60.1837 96.699C60.6177 97.1517 60.9537 97.693 61.1917 98.323C61.4297 98.9484 61.5487 99.6367 61.5487 100.388ZM60.1557 100.388C60.1557 99.772 60.0717 99.219 59.9037 98.729C59.7357 98.239 59.4977 97.826 59.1897 97.49C58.8817 97.1494 58.5083 96.888 58.0697 96.706C57.631 96.524 57.141 96.433 56.5997 96.433C56.063 96.433 55.5753 96.524 55.1367 96.706C54.698 96.888 54.3223 97.1494 54.0097 97.49C53.7017 97.826 53.4637 98.239 53.2957 98.729C53.1277 99.219 53.0437 99.772 53.0437 100.388C53.0437 101.004 53.1277 101.557 53.2957 102.047C53.4637 102.532 53.7017 102.945 54.0097 103.286C54.3223 103.622 54.698 103.881 55.1367 104.063C55.5753 104.24 56.063 104.329 56.5997 104.329C57.141 104.329 57.631 104.24 58.0697 104.063C58.5083 103.881 58.8817 103.622 59.1897 103.286C59.4977 102.945 59.7357 102.532 59.9037 102.047C60.0717 101.557 60.1557 101.004 60.1557 100.388ZM68.3366 101.774C68.4019 101.886 68.4579 102.005 68.5046 102.131C68.5559 102.252 68.6049 102.376 68.6516 102.502C68.6983 102.371 68.7473 102.248 68.7986 102.131C68.8499 102.01 68.9083 101.888 68.9736 101.767L72.3686 95.6C72.4293 95.4927 72.4923 95.4274 72.5576 95.404C72.6229 95.3807 72.7163 95.369 72.8376 95.369H73.8386V105.4H72.6486V98.029C72.6486 97.931 72.6509 97.826 72.6556 97.714C72.6603 97.602 72.6673 97.4877 72.6766 97.371L69.2396 103.643C69.1229 103.853 68.9596 103.958 68.7496 103.958H68.5536C68.3436 103.958 68.1803 103.853 68.0636 103.643L64.5496 97.35C64.5636 97.4714 64.5729 97.5904 64.5776 97.707C64.5869 97.8237 64.5916 97.931 64.5916 98.029V105.4H63.4016V95.369H64.4026C64.5239 95.369 64.6173 95.3807 64.6826 95.404C64.7479 95.4274 64.8109 95.4927 64.8716 95.6L68.3366 101.774ZM77.7715 101.648V105.4H76.4205V95.369H79.3815C80.0162 95.369 80.5668 95.4437 81.0335 95.593C81.5048 95.7377 81.8945 95.9454 82.2025 96.216C82.5105 96.4867 82.7392 96.8134 82.8885 97.196C83.0425 97.5787 83.1195 98.0057 83.1195 98.477C83.1195 98.9437 83.0378 99.3707 82.8745 99.758C82.7112 100.145 82.4708 100.479 82.1535 100.759C81.8408 101.039 81.4512 101.258 80.9845 101.417C80.5178 101.571 79.9835 101.648 79.3815 101.648H77.7715ZM77.7715 100.57H79.3815C79.7688 100.57 80.1095 100.519 80.4035 100.416C80.7022 100.313 80.9518 100.171 81.1525 99.989C81.3532 99.8024 81.5048 99.5807 81.6075 99.324C81.7102 99.0674 81.7615 98.785 81.7615 98.477C81.7615 97.8377 81.5632 97.3384 81.1665 96.979C80.7745 96.6197 80.1795 96.44 79.3815 96.44H77.7715V100.57ZM86.3301 101.214V105.4H84.9791V95.369H87.8141C88.4488 95.369 88.9971 95.4344 89.4591 95.565C89.9211 95.691 90.3014 95.8754 90.6001 96.118C90.9034 96.3607 91.1274 96.6547 91.2721 97C91.4168 97.3407 91.4891 97.7234 91.4891 98.148C91.4891 98.5027 91.4331 98.834 91.3211 99.142C91.2091 99.45 91.0458 99.7277 90.8311 99.975C90.6211 100.218 90.3621 100.425 90.0541 100.598C89.7508 100.771 89.4054 100.901 89.0181 100.99C89.1861 101.088 89.3354 101.23 89.4661 101.417L92.3921 105.4H91.1881C90.9408 105.4 90.7588 105.304 90.6421 105.113L88.0381 101.529C87.9588 101.417 87.8724 101.338 87.7791 101.291C87.6858 101.24 87.5458 101.214 87.3591 101.214H86.3301ZM86.3301 100.227H87.7511C88.1478 100.227 88.4954 100.18 88.7941 100.087C89.0974 99.989 89.3494 99.8537 89.5501 99.681C89.7554 99.5037 89.9094 99.2937 90.0121 99.051C90.1148 98.8084 90.1661 98.54 90.1661 98.246C90.1661 97.6487 89.9678 97.1984 89.5711 96.895C89.1791 96.5917 88.5934 96.44 87.8141 96.44H86.3301V100.227ZM102.102 105.4H101.052C100.931 105.4 100.833 105.37 100.758 105.309C100.683 105.248 100.627 105.171 100.59 105.078L99.6519 102.656H95.1509L94.2129 105.078C94.1802 105.162 94.1242 105.237 94.0449 105.302C93.9655 105.367 93.8675 105.4 93.7509 105.4H92.7009L96.7119 95.369H98.0909L102.102 105.4ZM95.5289 101.676H99.2739L97.6989 97.595C97.5962 97.343 97.4959 97.028 97.3979 96.65C97.3465 96.8414 97.2952 97.0187 97.2439 97.182C97.1972 97.3407 97.1505 97.4807 97.1039 97.602L95.5289 101.676ZM108.502 96.937C108.46 97.007 108.416 97.0607 108.369 97.098C108.323 97.1307 108.262 97.147 108.187 97.147C108.108 97.147 108.015 97.1074 107.907 97.028C107.805 96.9487 107.672 96.8624 107.508 96.769C107.35 96.671 107.156 96.5824 106.927 96.503C106.703 96.4237 106.43 96.384 106.108 96.384C105.805 96.384 105.537 96.426 105.303 96.51C105.07 96.5894 104.874 96.699 104.715 96.839C104.561 96.979 104.445 97.1447 104.365 97.336C104.286 97.5227 104.246 97.7257 104.246 97.945C104.246 98.225 104.314 98.4584 104.449 98.645C104.589 98.827 104.771 98.9834 104.995 99.114C105.224 99.2447 105.481 99.359 105.765 99.457C106.055 99.5504 106.349 99.6484 106.647 99.751C106.951 99.8537 107.245 99.9704 107.529 100.101C107.819 100.227 108.075 100.388 108.299 100.584C108.528 100.78 108.71 101.02 108.845 101.305C108.985 101.59 109.055 101.94 109.055 102.355C109.055 102.794 108.981 103.207 108.831 103.594C108.682 103.977 108.463 104.31 108.173 104.595C107.889 104.88 107.536 105.104 107.116 105.267C106.701 105.43 106.227 105.512 105.695 105.512C105.047 105.512 104.454 105.395 103.917 105.162C103.385 104.924 102.93 104.604 102.552 104.203L102.944 103.559C102.982 103.508 103.026 103.466 103.077 103.433C103.133 103.396 103.194 103.377 103.259 103.377C103.357 103.377 103.469 103.431 103.595 103.538C103.721 103.641 103.878 103.755 104.064 103.881C104.256 104.007 104.484 104.124 104.75 104.231C105.021 104.334 105.35 104.385 105.737 104.385C106.059 104.385 106.346 104.341 106.598 104.252C106.85 104.163 107.063 104.04 107.235 103.881C107.413 103.718 107.548 103.524 107.641 103.3C107.735 103.076 107.781 102.826 107.781 102.551C107.781 102.248 107.711 102 107.571 101.809C107.436 101.613 107.256 101.45 107.032 101.319C106.808 101.188 106.552 101.079 106.262 100.99C105.978 100.897 105.684 100.803 105.38 100.71C105.082 100.612 104.788 100.5 104.498 100.374C104.214 100.248 103.959 100.085 103.735 99.884C103.511 99.6834 103.329 99.4337 103.189 99.135C103.054 98.8317 102.986 98.4584 102.986 98.015C102.986 97.6604 103.054 97.3174 103.189 96.986C103.329 96.6547 103.53 96.3607 103.791 96.104C104.053 95.8474 104.375 95.642 104.757 95.488C105.145 95.334 105.588 95.257 106.087 95.257C106.647 95.257 107.158 95.3457 107.62 95.523C108.082 95.7004 108.486 95.957 108.831 96.293L108.502 96.937Z" fill="#F6F7F8"/>
</svg>
