<svg width="151" height="130" viewBox="0 0 151 130" fill="none" xmlns="http://www.w3.org/2000/svg">
<rect width="151" height="130" rx="15" fill="#3282A5"/>
<path d="M89.3033 71.8321C89.2116 71.8321 89.1199 71.8071 89.0365 71.7599L75.2331 63.792C75.0691 63.6976 74.9663 63.5225 74.9663 63.3308C74.9663 63.1392 75.0664 62.9641 75.2331 62.8697L89.0365 54.9046C89.2005 54.8101 89.4034 54.8101 89.5701 54.9046C89.7341 54.999 89.8369 55.1741 89.8369 55.3658L89.8397 71.2987C89.8397 71.4876 89.7396 71.6654 89.5729 71.7599C89.4895 71.8099 89.3978 71.8321 89.3033 71.8321ZM76.5643 63.3336L88.7725 70.3791L88.7698 56.2881L76.5643 63.3336Z" fill="#F6F7F8"/>
<path d="M75.5 63.8699C75.4083 63.8699 75.3165 63.8449 75.2332 63.7977L61.4269 55.827C61.263 55.7326 61.1602 55.5575 61.1602 55.3658L61.1629 39.4329C61.1629 39.244 61.2658 39.0662 61.4297 38.9717C61.5937 38.8773 61.7966 38.8773 61.9633 38.9717L75.7667 46.9396C75.9307 47.034 76.0335 47.2091 76.0335 47.4008V63.3393C76.0335 63.5282 75.9335 63.706 75.7667 63.8004C75.6834 63.8477 75.5917 63.8699 75.5 63.8699ZM62.2273 55.0602L74.9692 62.4169V47.7091L62.2301 40.3553L62.2273 55.0602Z" fill="#F6F7F8"/>
<path d="M61.6967 71.8321C61.605 71.8321 61.5133 71.807 61.4299 71.7598L47.6237 63.7892C47.4598 63.6947 47.3569 63.5197 47.3569 63.328L47.3597 47.3951C47.3597 47.2061 47.4625 47.0283 47.6265 46.9339C47.7905 46.8394 47.9933 46.8394 48.1601 46.9339L61.9441 54.8906C61.9552 54.8962 61.9663 54.9017 61.9774 54.9101C62.133 55.0073 62.2303 55.1796 62.2303 55.3629V71.3014C62.2303 71.4903 62.1303 71.6681 61.9635 71.7626C61.8801 71.8098 61.7884 71.8321 61.6967 71.8321ZM48.4241 63.0224L61.1659 70.3791V55.6713L48.4269 48.3174L48.4241 63.0224Z" fill="#F6F7F8"/>
<path d="M75.4999 63.8697C75.4082 63.8697 75.3165 63.8447 75.2331 63.7975C75.0691 63.7031 74.9663 63.528 74.9663 63.3363V47.3978C74.9663 47.2145 75.0608 47.0422 75.2192 46.945C75.2303 46.9394 75.2414 46.9311 75.2525 46.9255L89.0365 38.9688C89.2005 38.8743 89.4034 38.8743 89.5701 38.9688C89.7341 39.0633 89.8369 39.2383 89.8369 39.43L89.8397 55.3629C89.8397 55.5518 89.7396 55.7296 89.5729 55.8241L75.7667 63.7947C75.6833 63.8475 75.5916 63.8697 75.4999 63.8697ZM76.0307 47.7062V62.414L88.7725 55.0573L88.7698 40.3523L76.0307 47.7062Z" fill="#F6F7F8"/>
<path d="M89.3036 71.8322C89.2119 71.8322 89.1202 71.8071 89.0368 71.7599C88.8728 71.6655 88.77 71.4904 88.77 71.2987V55.3602C88.77 55.1769 88.8645 55.0046 89.0229 54.9074C89.034 54.9018 89.0451 54.8935 89.0563 54.8879L102.84 46.9312C103.004 46.8367 103.207 46.8367 103.374 46.9312C103.538 47.0257 103.641 47.2007 103.641 47.3924L103.643 63.3253C103.643 63.5142 103.543 63.692 103.377 63.7865L89.5704 71.7571C89.487 71.8099 89.3953 71.8322 89.3036 71.8322ZM89.8372 55.6714V70.3792L102.579 63.0225L102.576 48.3175L89.8372 55.6714Z" fill="#F6F7F8"/>
<path d="M47.8905 47.9425C47.7988 47.9425 47.7071 47.9175 47.6237 47.8703C47.4598 47.7758 47.3569 47.6008 47.3569 47.4091V31.4706C47.3569 31.2872 47.4514 31.115 47.6098 31.0177C47.6209 31.0122 47.6321 31.0039 47.6432 30.9983L61.4272 23.0415C61.5911 22.9471 61.794 22.9471 61.9607 23.0415C62.1247 23.136 62.2275 23.311 62.2275 23.5027L62.2303 39.4357C62.2303 39.6246 62.1303 39.8024 61.9635 39.8969L48.1573 47.8675C48.0739 47.9175 47.9822 47.9425 47.8905 47.9425ZM48.4241 31.779V46.4867L61.1659 39.1301L61.1632 24.4251L48.4241 31.779Z" fill="#F6F7F8"/>
<path d="M103.11 47.9424C103.018 47.9424 102.926 47.9174 102.843 47.8702L89.0368 39.8995C88.8728 39.8051 88.77 39.6301 88.77 39.4384L88.7728 23.5054C88.7728 23.3165 88.8756 23.1387 89.0396 23.0442C89.2035 22.9498 89.4064 22.9498 89.5732 23.0442L103.357 31.001C103.368 31.0065 103.379 31.0121 103.39 31.0204C103.546 31.1177 103.643 31.2899 103.643 31.4733V47.4118C103.643 47.6007 103.543 47.7785 103.377 47.873C103.293 47.9174 103.202 47.9424 103.11 47.9424ZM89.8372 39.13L102.579 46.4866V31.7789L89.8399 24.425L89.8372 39.13Z" fill="#F6F7F8"/>
<path d="M89.3064 55.8993C89.2147 55.8993 89.123 55.8743 89.0396 55.827C88.8756 55.7326 88.7728 55.5575 88.7728 55.3658L88.77 39.4329C88.77 39.244 88.8701 39.0662 89.0368 38.9717C89.2008 38.8773 89.4036 38.8773 89.5704 38.9717L103.374 46.9396C103.538 47.034 103.641 47.2091 103.641 47.4008C103.641 47.5925 103.541 47.7675 103.374 47.8619L89.5704 55.827C89.4898 55.8743 89.3981 55.8993 89.3064 55.8993ZM89.8372 40.3553L89.8399 54.4463L102.045 47.4008L89.8372 40.3553Z" fill="#F6F7F8"/>
<path d="M61.6994 71.8377C61.6077 71.8377 61.516 71.8127 61.4327 71.7655C61.2687 71.671 61.1659 71.496 61.1659 71.3043L61.1631 55.3714C61.1631 55.1825 61.2631 55.0047 61.4299 54.9102C61.5938 54.8157 61.7967 54.8157 61.9634 54.9102L75.7669 62.8781C75.9309 62.9725 76.0337 63.1475 76.0337 63.3392C76.0337 63.5309 75.9336 63.706 75.7669 63.8004L61.9634 71.7655C61.8829 71.8127 61.7911 71.8377 61.6994 71.8377ZM62.2275 56.2937L62.2302 70.3847L74.4357 63.3392L62.2275 56.2937Z" fill="#F6F7F8"/>
<path d="M61.6994 39.9691C61.6077 39.9691 61.516 39.9441 61.4327 39.8969C61.2687 39.8024 61.1659 39.6274 61.1659 39.4357L61.1631 23.5027C61.1631 23.3138 61.2631 23.136 61.4299 23.0415C61.5938 22.9471 61.7967 22.9471 61.9634 23.0415L75.7669 31.0094C75.9309 31.1039 76.0337 31.2789 76.0337 31.4706C76.0337 31.6623 75.9336 31.8373 75.7669 31.9318L61.9634 39.8969C61.8829 39.9469 61.7911 39.9691 61.6994 39.9691ZM62.2275 24.4251L62.2302 38.5161L74.4357 31.4706L62.2275 24.4251Z" fill="#F6F7F8"/>
<path d="M89.3033 39.969C89.2116 39.969 89.1199 39.944 89.0365 39.8968L75.2331 31.9317C75.0691 31.8372 74.9663 31.6622 74.9663 31.4705C74.9663 31.2788 75.0664 31.1038 75.2331 31.0093L89.0365 23.0442C89.2005 22.9498 89.4034 22.9498 89.5701 23.0442C89.7341 23.1387 89.8369 23.3137 89.8369 23.5054L89.8397 39.4384C89.8397 39.6273 89.7396 39.8051 89.5729 39.8995C89.4895 39.9468 89.3978 39.969 89.3033 39.969ZM76.5643 31.4705L88.7725 38.516L88.7698 24.425L76.5643 31.4705Z" fill="#F6F7F8"/>
<path d="M61.6969 55.9049C61.6052 55.9049 61.5135 55.8799 61.4301 55.8326L47.6267 47.8648C47.4627 47.7703 47.3599 47.5953 47.3599 47.4036C47.3599 47.2119 47.4599 47.0369 47.6267 46.9424L61.4301 38.9773C61.5941 38.8829 61.7969 38.8829 61.9637 38.9773C62.1276 39.0718 62.2305 39.2468 62.2305 39.4385L62.2332 55.3715C62.2332 55.5604 62.1332 55.7382 61.9665 55.8326C61.8803 55.8799 61.7886 55.9049 61.6969 55.9049ZM48.9578 47.4036L61.1661 54.4491L61.1633 40.3581L48.9578 47.4036Z" fill="#F6F7F8"/>
<path d="M75.4972 47.9314C75.4055 47.9314 75.3138 47.9064 75.2304 47.8591L61.4269 39.8968C61.263 39.8024 61.1602 39.6273 61.1602 39.4356C61.1602 39.2467 61.2602 39.0689 61.4269 38.9745L75.2304 31.0038C75.3944 30.9094 75.5972 30.9094 75.764 31.0038L89.5702 38.9772C89.7342 39.0717 89.837 39.2467 89.837 39.4384C89.837 39.6273 89.7342 39.8051 89.5702 39.8996L75.764 47.8619C75.6806 47.9091 75.5889 47.9314 75.4972 47.9314ZM62.7609 39.4356L75.4972 46.784L88.239 39.4384L75.4972 32.0818L62.7609 39.4356Z" fill="#F6F7F8"/>
<path d="M75.4972 79.8C75.4055 79.8 75.3138 79.775 75.2304 79.7278L61.4269 71.7655C61.263 71.671 61.1602 71.496 61.1602 71.3043C61.1602 71.1154 61.2602 70.9376 61.4269 70.8431L75.2304 62.8725C75.3944 62.778 75.5972 62.778 75.764 62.8725L89.5702 70.8459C89.7342 70.9404 89.837 71.1154 89.837 71.3071C89.837 71.496 89.7342 71.6738 89.5702 71.7683L75.764 79.7306C75.6806 79.775 75.5889 79.8 75.4972 79.8ZM62.7609 71.3043L75.4972 78.6526L88.239 71.3043L75.4972 63.9476L62.7609 71.3043Z" fill="#F6F7F8"/>
<path d="M75.4972 31.9984C75.4055 31.9984 75.3138 31.9734 75.2304 31.9261L61.4269 23.9638C61.263 23.8694 61.1602 23.6944 61.1602 23.5027C61.1602 23.3137 61.2602 23.1359 61.4269 23.0415L75.2304 15.0708C75.3944 14.9764 75.5972 14.9764 75.764 15.0708L89.5702 23.0443C89.7342 23.1387 89.837 23.3137 89.837 23.5054C89.837 23.6944 89.7342 23.8722 89.5702 23.9666L75.764 31.9289C75.6806 31.9734 75.5889 31.9984 75.4972 31.9984ZM62.7609 23.5027L75.4972 30.851L88.239 23.5027L75.4972 16.146L62.7609 23.5027Z" fill="#F6F7F8"/>
<path d="M28.0614 103.328C28.1361 103.328 28.2038 103.358 28.2644 103.419L28.7964 104C28.3858 104.476 27.8864 104.847 27.2984 105.113C26.7151 105.379 26.0104 105.512 25.1844 105.512C24.4611 105.512 23.8054 105.388 23.2174 105.141C22.6294 104.889 22.1278 104.539 21.7124 104.091C21.2971 103.638 20.9751 103.097 20.7464 102.467C20.5178 101.837 20.4034 101.144 20.4034 100.388C20.4034 99.632 20.5248 98.939 20.7674 98.309C21.0148 97.679 21.3601 97.1377 21.8034 96.685C22.2468 96.2324 22.7764 95.8824 23.3924 95.635C24.0131 95.383 24.6968 95.257 25.4434 95.257C26.1808 95.257 26.8154 95.3714 27.3474 95.6C27.8841 95.8287 28.3601 96.139 28.7754 96.531L28.3344 97.154C28.3018 97.2007 28.2644 97.2404 28.2224 97.273C28.1804 97.301 28.1198 97.315 28.0404 97.315C27.9798 97.315 27.9144 97.294 27.8444 97.252C27.7791 97.2054 27.6998 97.1494 27.6064 97.084C27.5131 97.0187 27.4034 96.9487 27.2774 96.874C27.1514 96.7994 27.0021 96.7294 26.8294 96.664C26.6568 96.5987 26.4561 96.545 26.2274 96.503C25.9988 96.4564 25.7351 96.433 25.4364 96.433C24.8998 96.433 24.4074 96.5264 23.9594 96.713C23.5161 96.895 23.1334 97.1564 22.8114 97.497C22.4894 97.8377 22.2374 98.253 22.0554 98.743C21.8781 99.233 21.7894 99.7814 21.7894 100.388C21.7894 101.013 21.8781 101.571 22.0554 102.061C22.2374 102.551 22.4824 102.966 22.7904 103.307C23.1031 103.643 23.4718 103.9 23.8964 104.077C24.3211 104.254 24.7784 104.343 25.2684 104.343C25.5671 104.343 25.8354 104.327 26.0734 104.294C26.3114 104.257 26.5308 104.201 26.7314 104.126C26.9368 104.051 27.1258 103.958 27.2984 103.846C27.4758 103.729 27.6531 103.592 27.8304 103.433C27.9098 103.363 27.9868 103.328 28.0614 103.328ZM39.8924 100.388C39.8924 101.139 39.7734 101.83 39.5354 102.46C39.2974 103.085 38.9614 103.624 38.5274 104.077C38.0934 104.53 37.5708 104.882 36.9594 105.134C36.3528 105.381 35.6808 105.505 34.9434 105.505C34.2061 105.505 33.5341 105.381 32.9274 105.134C32.3208 104.882 31.8004 104.53 31.3664 104.077C30.9324 103.624 30.5964 103.085 30.3584 102.46C30.1204 101.83 30.0014 101.139 30.0014 100.388C30.0014 99.6367 30.1204 98.9484 30.3584 98.323C30.5964 97.693 30.9324 97.1517 31.3664 96.699C31.8004 96.2417 32.3208 95.887 32.9274 95.635C33.5341 95.383 34.2061 95.257 34.9434 95.257C35.6808 95.257 36.3528 95.383 36.9594 95.635C37.5708 95.887 38.0934 96.2417 38.5274 96.699C38.9614 97.1517 39.2974 97.693 39.5354 98.323C39.7734 98.9484 39.8924 99.6367 39.8924 100.388ZM38.4994 100.388C38.4994 99.772 38.4154 99.219 38.2474 98.729C38.0794 98.239 37.8414 97.826 37.5334 97.49C37.2254 97.1494 36.8521 96.888 36.4134 96.706C35.9748 96.524 35.4848 96.433 34.9434 96.433C34.4068 96.433 33.9191 96.524 33.4804 96.706C33.0418 96.888 32.6661 97.1494 32.3534 97.49C32.0454 97.826 31.8074 98.239 31.6394 98.729C31.4714 99.219 31.3874 99.772 31.3874 100.388C31.3874 101.004 31.4714 101.557 31.6394 102.047C31.8074 102.532 32.0454 102.945 32.3534 103.286C32.6661 103.622 33.0418 103.881 33.4804 104.063C33.9191 104.24 34.4068 104.329 34.9434 104.329C35.4848 104.329 35.9748 104.24 36.4134 104.063C36.8521 103.881 37.2254 103.622 37.5334 103.286C37.8414 102.945 38.0794 102.532 38.2474 102.047C38.4154 101.557 38.4994 101.004 38.4994 100.388ZM42.4453 95.369C42.5667 95.369 42.6553 95.3854 42.7113 95.418C42.772 95.446 42.8397 95.5067 42.9143 95.6L48.7243 103.16C48.7103 103.039 48.701 102.922 48.6963 102.81C48.6917 102.693 48.6893 102.581 48.6893 102.474V95.369H49.8793V105.4H49.1933C49.086 105.4 48.995 105.381 48.9203 105.344C48.8503 105.307 48.7803 105.244 48.7103 105.155L42.9073 97.602C42.9167 97.7187 42.9237 97.833 42.9283 97.945C42.933 98.057 42.9353 98.1597 42.9353 98.253V105.4H41.7453V95.369H42.4453ZM59.1594 95.369V96.51H55.9184V105.4H54.5604V96.51H51.3054V95.369H59.1594ZM67.9085 105.4H66.8585C66.7372 105.4 66.6392 105.37 66.5645 105.309C66.4898 105.248 66.4338 105.171 66.3965 105.078L65.4585 102.656H60.9575L60.0195 105.078C59.9868 105.162 59.9308 105.237 59.8515 105.302C59.7722 105.367 59.6742 105.4 59.5575 105.4H58.5075L62.5185 95.369H63.8975L67.9085 105.4ZM61.3355 101.676H65.0805L63.5055 97.595C63.4028 97.343 63.3025 97.028 63.2045 96.65C63.1532 96.8414 63.1018 97.0187 63.0505 97.182C63.0038 97.3407 62.9572 97.4807 62.9105 97.602L61.3355 101.676ZM69.1711 105.4V95.369H72.3701C72.9861 95.369 73.5158 95.4297 73.9591 95.551C74.4071 95.6724 74.7735 95.845 75.0581 96.069C75.3475 96.293 75.5598 96.5684 75.6951 96.895C75.8351 97.217 75.9051 97.581 75.9051 97.987C75.9051 98.2344 75.8655 98.4724 75.7861 98.701C75.7115 98.9297 75.5948 99.142 75.4361 99.338C75.2821 99.534 75.0861 99.709 74.8481 99.863C74.6148 100.017 74.3395 100.143 74.0221 100.241C74.7548 100.386 75.3078 100.649 75.6811 101.032C76.0545 101.415 76.2411 101.919 76.2411 102.544C76.2411 102.969 76.1618 103.356 76.0031 103.706C75.8491 104.056 75.6205 104.357 75.3171 104.609C75.0185 104.861 74.6498 105.057 74.2111 105.197C73.7771 105.332 73.2801 105.4 72.7201 105.4H69.1711ZM70.5291 100.829V104.322H72.6991C73.0865 104.322 73.4178 104.278 73.6931 104.189C73.9731 104.1 74.2018 103.977 74.3791 103.818C74.5611 103.655 74.6941 103.463 74.7781 103.244C74.8621 103.02 74.9041 102.775 74.9041 102.509C74.9041 101.991 74.7198 101.583 74.3511 101.284C73.9871 100.981 73.4341 100.829 72.6921 100.829H70.5291ZM70.5291 99.863H72.3211C72.7038 99.863 73.0351 99.821 73.3151 99.737C73.5951 99.653 73.8261 99.5364 74.0081 99.387C74.1948 99.2377 74.3325 99.058 74.4211 98.848C74.5098 98.6334 74.5541 98.4 74.5541 98.148C74.5541 97.56 74.3768 97.1284 74.0221 96.853C73.6675 96.5777 73.1168 96.44 72.3701 96.44H70.5291V99.863ZM79.8456 105.4H78.4876V95.369H79.8456V105.4ZM83.8865 104.259H88.2265V105.4H82.5285V95.369H83.8865V104.259ZM91.33 105.4H89.972V95.369H91.33V105.4ZM102.707 100.388C102.707 101.139 102.588 101.823 102.35 102.439C102.112 103.055 101.776 103.582 101.342 104.021C100.908 104.46 100.388 104.8 99.7809 105.043C99.1743 105.281 98.5023 105.4 97.7649 105.4H94.0129V95.369H97.7649C98.5023 95.369 99.1743 95.4904 99.7809 95.733C100.388 95.971 100.908 96.3117 101.342 96.755C101.776 97.1937 102.112 97.721 102.35 98.337C102.588 98.953 102.707 99.6367 102.707 100.388ZM101.314 100.388C101.314 99.772 101.23 99.2214 101.062 98.736C100.894 98.2507 100.656 97.84 100.348 97.504C100.04 97.168 99.6666 96.9114 99.2279 96.734C98.7893 96.5567 98.3016 96.468 97.7649 96.468H95.3779V104.301H97.7649C98.3016 104.301 98.7893 104.212 99.2279 104.035C99.6666 103.858 100.04 103.603 100.348 103.272C100.656 102.936 100.894 102.525 101.062 102.04C101.23 101.555 101.314 101.004 101.314 100.388ZM112.506 105.4H111.456C111.335 105.4 111.237 105.37 111.162 105.309C111.087 105.248 111.031 105.171 110.994 105.078L110.056 102.656H105.555L104.617 105.078C104.584 105.162 104.528 105.237 104.449 105.302C104.37 105.367 104.272 105.4 104.155 105.4H103.105L107.116 95.369H108.495L112.506 105.4ZM105.933 101.676H109.678L108.103 97.595C108 97.343 107.9 97.028 107.802 96.65C107.751 96.8414 107.699 97.0187 107.648 97.182C107.601 97.3407 107.555 97.4807 107.508 97.602L105.933 101.676ZM122.463 100.388C122.463 101.139 122.344 101.823 122.106 102.439C121.868 103.055 121.532 103.582 121.098 104.021C120.664 104.46 120.143 104.8 119.537 105.043C118.93 105.281 118.258 105.4 117.521 105.4H113.769V95.369H117.521C118.258 95.369 118.93 95.4904 119.537 95.733C120.143 95.971 120.664 96.3117 121.098 96.755C121.532 97.1937 121.868 97.721 122.106 98.337C122.344 98.953 122.463 99.6367 122.463 100.388ZM121.07 100.388C121.07 99.772 120.986 99.2214 120.818 98.736C120.65 98.2507 120.412 97.84 120.104 97.504C119.796 97.168 119.422 96.9114 118.984 96.734C118.545 96.5567 118.057 96.468 117.521 96.468H115.134V104.301H117.521C118.057 104.301 118.545 104.212 118.984 104.035C119.422 103.858 119.796 103.603 120.104 103.272C120.412 102.936 120.65 102.525 120.818 102.04C120.986 101.555 121.07 101.004 121.07 100.388ZM130.491 95.369V96.475H125.675V99.807H129.574V100.871H125.675V104.294H130.491V105.4H124.31V95.369H130.491Z" fill="#F6F7F8"/>
</svg>
