<svg width="151" height="130" viewBox="0 0 151 130" fill="none" xmlns="http://www.w3.org/2000/svg">
<rect width="151" height="130" rx="15" fill="#915C4D"/>
<path d="M89.3033 71.8321C89.2116 71.8321 89.1199 71.8071 89.0365 71.7599L75.2331 63.792C75.0691 63.6976 74.9663 63.5225 74.9663 63.3308C74.9663 63.1392 75.0664 62.9641 75.2331 62.8697L89.0365 54.9046C89.2005 54.8101 89.4034 54.8101 89.5701 54.9046C89.7341 54.999 89.8369 55.1741 89.8369 55.3658L89.8397 71.2987C89.8397 71.4876 89.7396 71.6654 89.5729 71.7599C89.4895 71.8099 89.3978 71.8321 89.3033 71.8321ZM76.5643 63.3336L88.7725 70.3791L88.7698 56.2881L76.5643 63.3336Z" fill="#F6F7F8"/>
<path d="M75.5 63.8699C75.4083 63.8699 75.3165 63.8449 75.2332 63.7977L61.4269 55.827C61.263 55.7326 61.1602 55.5575 61.1602 55.3658L61.1629 39.4329C61.1629 39.244 61.2658 39.0662 61.4297 38.9717C61.5937 38.8773 61.7966 38.8773 61.9633 38.9717L75.7667 46.9396C75.9307 47.034 76.0335 47.2091 76.0335 47.4008V63.3393C76.0335 63.5282 75.9335 63.706 75.7667 63.8004C75.6834 63.8477 75.5917 63.8699 75.5 63.8699ZM62.2273 55.0602L74.9692 62.4169V47.7091L62.2301 40.3553L62.2273 55.0602Z" fill="#F6F7F8"/>
<path d="M61.6967 71.8321C61.605 71.8321 61.5133 71.807 61.4299 71.7598L47.6237 63.7892C47.4598 63.6947 47.3569 63.5197 47.3569 63.328L47.3597 47.3951C47.3597 47.2061 47.4625 47.0283 47.6265 46.9339C47.7905 46.8394 47.9933 46.8394 48.1601 46.9339L61.9441 54.8906C61.9552 54.8962 61.9663 54.9017 61.9774 54.9101C62.133 55.0073 62.2303 55.1796 62.2303 55.3629V71.3014C62.2303 71.4903 62.1303 71.6681 61.9635 71.7626C61.8801 71.8098 61.7884 71.8321 61.6967 71.8321ZM48.4241 63.0224L61.1659 70.3791V55.6713L48.4269 48.3174L48.4241 63.0224Z" fill="#F6F7F8"/>
<path d="M75.4999 63.8697C75.4082 63.8697 75.3165 63.8447 75.2331 63.7975C75.0691 63.7031 74.9663 63.528 74.9663 63.3363V47.3978C74.9663 47.2145 75.0608 47.0422 75.2192 46.945C75.2303 46.9394 75.2414 46.9311 75.2525 46.9255L89.0365 38.9688C89.2005 38.8743 89.4034 38.8743 89.5701 38.9688C89.7341 39.0633 89.8369 39.2383 89.8369 39.43L89.8397 55.3629C89.8397 55.5518 89.7396 55.7296 89.5729 55.8241L75.7667 63.7947C75.6833 63.8475 75.5916 63.8697 75.4999 63.8697ZM76.0307 47.7062V62.414L88.7725 55.0573L88.7698 40.3523L76.0307 47.7062Z" fill="#F6F7F8"/>
<path d="M89.3036 71.8322C89.2119 71.8322 89.1202 71.8071 89.0368 71.7599C88.8728 71.6655 88.77 71.4904 88.77 71.2987V55.3602C88.77 55.1769 88.8645 55.0046 89.0229 54.9074C89.034 54.9018 89.0451 54.8935 89.0563 54.8879L102.84 46.9312C103.004 46.8367 103.207 46.8367 103.374 46.9312C103.538 47.0257 103.641 47.2007 103.641 47.3924L103.643 63.3253C103.643 63.5142 103.543 63.692 103.377 63.7865L89.5704 71.7571C89.487 71.8099 89.3953 71.8322 89.3036 71.8322ZM89.8372 55.6714V70.3792L102.579 63.0225L102.576 48.3175L89.8372 55.6714Z" fill="#F6F7F8"/>
<path d="M47.8905 47.9425C47.7988 47.9425 47.7071 47.9175 47.6237 47.8703C47.4598 47.7758 47.3569 47.6008 47.3569 47.4091V31.4706C47.3569 31.2872 47.4514 31.115 47.6098 31.0177C47.6209 31.0122 47.6321 31.0039 47.6432 30.9983L61.4272 23.0415C61.5911 22.9471 61.794 22.9471 61.9607 23.0415C62.1247 23.136 62.2275 23.311 62.2275 23.5027L62.2303 39.4357C62.2303 39.6246 62.1303 39.8024 61.9635 39.8969L48.1573 47.8675C48.0739 47.9175 47.9822 47.9425 47.8905 47.9425ZM48.4241 31.779V46.4867L61.1659 39.1301L61.1632 24.4251L48.4241 31.779Z" fill="#F6F7F8"/>
<path d="M103.11 47.9424C103.018 47.9424 102.926 47.9174 102.843 47.8702L89.0368 39.8995C88.8728 39.8051 88.77 39.6301 88.77 39.4384L88.7728 23.5054C88.7728 23.3165 88.8756 23.1387 89.0396 23.0442C89.2035 22.9498 89.4064 22.9498 89.5732 23.0442L103.357 31.001C103.368 31.0065 103.379 31.0121 103.39 31.0204C103.546 31.1177 103.643 31.2899 103.643 31.4733V47.4118C103.643 47.6007 103.543 47.7785 103.377 47.873C103.293 47.9174 103.202 47.9424 103.11 47.9424ZM89.8372 39.13L102.579 46.4866V31.7789L89.8399 24.425L89.8372 39.13Z" fill="#F6F7F8"/>
<path d="M89.3064 55.8993C89.2147 55.8993 89.123 55.8743 89.0396 55.827C88.8756 55.7326 88.7728 55.5575 88.7728 55.3658L88.77 39.4329C88.77 39.244 88.8701 39.0662 89.0368 38.9717C89.2008 38.8773 89.4036 38.8773 89.5704 38.9717L103.374 46.9396C103.538 47.034 103.641 47.2091 103.641 47.4008C103.641 47.5925 103.541 47.7675 103.374 47.8619L89.5704 55.827C89.4898 55.8743 89.3981 55.8993 89.3064 55.8993ZM89.8372 40.3553L89.8399 54.4463L102.045 47.4008L89.8372 40.3553Z" fill="#F6F7F8"/>
<path d="M61.6994 71.8377C61.6077 71.8377 61.516 71.8127 61.4327 71.7655C61.2687 71.671 61.1659 71.496 61.1659 71.3043L61.1631 55.3714C61.1631 55.1825 61.2631 55.0047 61.4299 54.9102C61.5938 54.8157 61.7967 54.8157 61.9634 54.9102L75.7669 62.8781C75.9309 62.9725 76.0337 63.1475 76.0337 63.3392C76.0337 63.5309 75.9336 63.706 75.7669 63.8004L61.9634 71.7655C61.8829 71.8127 61.7911 71.8377 61.6994 71.8377ZM62.2275 56.2937L62.2302 70.3847L74.4357 63.3392L62.2275 56.2937Z" fill="#F6F7F8"/>
<path d="M61.6994 39.9691C61.6077 39.9691 61.516 39.9441 61.4327 39.8969C61.2687 39.8024 61.1659 39.6274 61.1659 39.4357L61.1631 23.5027C61.1631 23.3138 61.2631 23.136 61.4299 23.0415C61.5938 22.9471 61.7967 22.9471 61.9634 23.0415L75.7669 31.0094C75.9309 31.1039 76.0337 31.2789 76.0337 31.4706C76.0337 31.6623 75.9336 31.8373 75.7669 31.9318L61.9634 39.8969C61.8829 39.9469 61.7911 39.9691 61.6994 39.9691ZM62.2275 24.4251L62.2302 38.5161L74.4357 31.4706L62.2275 24.4251Z" fill="#F6F7F8"/>
<path d="M89.3033 39.969C89.2116 39.969 89.1199 39.944 89.0365 39.8968L75.2331 31.9317C75.0691 31.8372 74.9663 31.6622 74.9663 31.4705C74.9663 31.2788 75.0664 31.1038 75.2331 31.0093L89.0365 23.0442C89.2005 22.9498 89.4034 22.9498 89.5701 23.0442C89.7341 23.1387 89.8369 23.3137 89.8369 23.5054L89.8397 39.4384C89.8397 39.6273 89.7396 39.8051 89.5729 39.8995C89.4895 39.9468 89.3978 39.969 89.3033 39.969ZM76.5643 31.4705L88.7725 38.516L88.7698 24.425L76.5643 31.4705Z" fill="#F6F7F8"/>
<path d="M61.6969 55.9049C61.6052 55.9049 61.5135 55.8799 61.4301 55.8326L47.6267 47.8648C47.4627 47.7703 47.3599 47.5953 47.3599 47.4036C47.3599 47.2119 47.4599 47.0369 47.6267 46.9424L61.4301 38.9773C61.5941 38.8829 61.7969 38.8829 61.9637 38.9773C62.1276 39.0718 62.2305 39.2468 62.2305 39.4385L62.2332 55.3715C62.2332 55.5604 62.1332 55.7382 61.9665 55.8326C61.8803 55.8799 61.7886 55.9049 61.6969 55.9049ZM48.9578 47.4036L61.1661 54.4491L61.1633 40.3581L48.9578 47.4036Z" fill="#F6F7F8"/>
<path d="M75.4972 47.9314C75.4055 47.9314 75.3138 47.9064 75.2304 47.8591L61.4269 39.8968C61.263 39.8024 61.1602 39.6273 61.1602 39.4356C61.1602 39.2467 61.2602 39.0689 61.4269 38.9745L75.2304 31.0038C75.3944 30.9094 75.5972 30.9094 75.764 31.0038L89.5702 38.9772C89.7342 39.0717 89.837 39.2467 89.837 39.4384C89.837 39.6273 89.7342 39.8051 89.5702 39.8996L75.764 47.8619C75.6806 47.9091 75.5889 47.9314 75.4972 47.9314ZM62.7609 39.4356L75.4972 46.784L88.239 39.4384L75.4972 32.0818L62.7609 39.4356Z" fill="#F6F7F8"/>
<path d="M75.4972 79.8C75.4055 79.8 75.3138 79.775 75.2304 79.7278L61.4269 71.7655C61.263 71.671 61.1602 71.496 61.1602 71.3043C61.1602 71.1154 61.2602 70.9376 61.4269 70.8431L75.2304 62.8725C75.3944 62.778 75.5972 62.778 75.764 62.8725L89.5702 70.8459C89.7342 70.9404 89.837 71.1154 89.837 71.3071C89.837 71.496 89.7342 71.6738 89.5702 71.7683L75.764 79.7306C75.6806 79.775 75.5889 79.8 75.4972 79.8ZM62.7609 71.3043L75.4972 78.6526L88.239 71.3043L75.4972 63.9476L62.7609 71.3043Z" fill="#F6F7F8"/>
<path d="M75.4972 31.9984C75.4055 31.9984 75.3138 31.9734 75.2304 31.9261L61.4269 23.9638C61.263 23.8694 61.1602 23.6944 61.1602 23.5027C61.1602 23.3137 61.2602 23.1359 61.4269 23.0415L75.2304 15.0708C75.3944 14.9764 75.5972 14.9764 75.764 15.0708L89.5702 23.0443C89.7342 23.1387 89.837 23.3137 89.837 23.5054C89.837 23.6944 89.7342 23.8722 89.5702 23.9666L75.764 31.9289C75.6806 31.9734 75.5889 31.9984 75.4972 31.9984ZM62.7609 23.5027L75.4972 30.851L88.239 23.5027L75.4972 16.146L62.7609 23.5027Z" fill="#F6F7F8"/>
<path d="M46.4023 94.828C46.4769 94.828 46.5446 94.8584 46.6053 94.919L47.1373 95.5C46.7266 95.976 46.2273 96.347 45.6393 96.613C45.0559 96.879 44.3513 97.012 43.5253 97.012C42.8019 97.012 42.1463 96.8884 41.5583 96.641C40.9703 96.389 40.4686 96.039 40.0533 95.591C39.6379 95.1384 39.3159 94.597 39.0873 93.967C38.8586 93.337 38.7443 92.644 38.7443 91.888C38.7443 91.132 38.8656 90.439 39.1083 89.809C39.3556 89.179 39.7009 88.6377 40.1443 88.185C40.5876 87.7324 41.1173 87.3824 41.7333 87.135C42.3539 86.883 43.0376 86.757 43.7843 86.757C44.5216 86.757 45.1563 86.8714 45.6883 87.1C46.2249 87.3287 46.7009 87.639 47.1163 88.031L46.6753 88.654C46.6426 88.7007 46.6053 88.7404 46.5633 88.773C46.5213 88.801 46.4606 88.815 46.3813 88.815C46.3206 88.815 46.2553 88.794 46.1853 88.752C46.1199 88.7054 46.0406 88.6494 45.9473 88.584C45.8539 88.5187 45.7443 88.4487 45.6183 88.374C45.4923 88.2994 45.3429 88.2294 45.1703 88.164C44.9976 88.0987 44.7969 88.045 44.5683 88.003C44.3396 87.9564 44.0759 87.933 43.7773 87.933C43.2406 87.933 42.7483 88.0264 42.3003 88.213C41.8569 88.395 41.4743 88.6564 41.1523 88.997C40.8303 89.3377 40.5783 89.753 40.3963 90.243C40.2189 90.733 40.1303 91.2814 40.1303 91.888C40.1303 92.5134 40.2189 93.071 40.3963 93.561C40.5783 94.051 40.8233 94.4664 41.1313 94.807C41.4439 95.143 41.8126 95.3997 42.2373 95.577C42.6619 95.7544 43.1193 95.843 43.6093 95.843C43.9079 95.843 44.1763 95.8267 44.4143 95.794C44.6523 95.7567 44.8716 95.7007 45.0723 95.626C45.2776 95.5514 45.4666 95.458 45.6393 95.346C45.8166 95.2294 45.9939 95.0917 46.1713 94.933C46.2506 94.863 46.3276 94.828 46.4023 94.828ZM58.2332 91.888C58.2332 92.6394 58.1142 93.33 57.8762 93.96C57.6382 94.5854 57.3022 95.1244 56.8682 95.577C56.4342 96.0297 55.9116 96.382 55.3002 96.634C54.6936 96.8814 54.0216 97.005 53.2842 97.005C52.5469 97.005 51.8749 96.8814 51.2682 96.634C50.6616 96.382 50.1412 96.0297 49.7072 95.577C49.2732 95.1244 48.9372 94.5854 48.6992 93.96C48.4612 93.33 48.3422 92.6394 48.3422 91.888C48.3422 91.1367 48.4612 90.4484 48.6992 89.823C48.9372 89.193 49.2732 88.6517 49.7072 88.199C50.1412 87.7417 50.6616 87.387 51.2682 87.135C51.8749 86.883 52.5469 86.757 53.2842 86.757C54.0216 86.757 54.6936 86.883 55.3002 87.135C55.9116 87.387 56.4342 87.7417 56.8682 88.199C57.3022 88.6517 57.6382 89.193 57.8762 89.823C58.1142 90.4484 58.2332 91.1367 58.2332 91.888ZM56.8402 91.888C56.8402 91.272 56.7562 90.719 56.5882 90.229C56.4202 89.739 56.1822 89.326 55.8742 88.99C55.5662 88.6494 55.1929 88.388 54.7542 88.206C54.3156 88.024 53.8256 87.933 53.2842 87.933C52.7476 87.933 52.2599 88.024 51.8212 88.206C51.3826 88.388 51.0069 88.6494 50.6942 88.99C50.3862 89.326 50.1482 89.739 49.9802 90.229C49.8122 90.719 49.7282 91.272 49.7282 91.888C49.7282 92.504 49.8122 93.057 49.9802 93.547C50.1482 94.0324 50.3862 94.4454 50.6942 94.786C51.0069 95.122 51.3826 95.381 51.8212 95.563C52.2599 95.7404 52.7476 95.829 53.2842 95.829C53.8256 95.829 54.3156 95.7404 54.7542 95.563C55.1929 95.381 55.5662 95.122 55.8742 94.786C56.1822 94.4454 56.4202 94.0324 56.5882 93.547C56.7562 93.057 56.8402 92.504 56.8402 91.888ZM60.7862 86.869C60.9075 86.869 60.9962 86.8854 61.0522 86.918C61.1128 86.946 61.1805 87.0067 61.2552 87.1L67.0652 94.66C67.0512 94.5387 67.0418 94.422 67.0372 94.31C67.0325 94.1934 67.0302 94.0814 67.0302 93.974V86.869H68.2202V96.9H67.5342C67.4268 96.9 67.3358 96.8814 67.2612 96.844C67.1912 96.8067 67.1212 96.7437 67.0512 96.655L61.2482 89.102C61.2575 89.2187 61.2645 89.333 61.2692 89.445C61.2738 89.557 61.2762 89.6597 61.2762 89.753V96.9H60.0862V86.869H60.7862ZM77.5002 86.869V88.01H74.2592V96.9H72.9012V88.01H69.6462V86.869H77.5002ZM80.417 92.714V96.9H79.066V86.869H81.901C82.5357 86.869 83.084 86.9344 83.546 87.065C84.008 87.191 84.3883 87.3754 84.687 87.618C84.9903 87.8607 85.2143 88.1547 85.359 88.5C85.5037 88.8407 85.576 89.2234 85.576 89.648C85.576 90.0027 85.52 90.334 85.408 90.642C85.296 90.95 85.1327 91.2277 84.918 91.475C84.708 91.7177 84.449 91.9254 84.141 92.098C83.8377 92.2707 83.4923 92.4014 83.105 92.49C83.273 92.588 83.4223 92.7304 83.553 92.917L86.479 96.9H85.275C85.0277 96.9 84.8457 96.8044 84.729 96.613L82.125 93.029C82.0457 92.917 81.9593 92.8377 81.866 92.791C81.7727 92.7397 81.6327 92.714 81.446 92.714H80.417ZM80.417 91.727H81.838C82.2347 91.727 82.5823 91.6804 82.881 91.587C83.1843 91.489 83.4363 91.3537 83.637 91.181C83.8423 91.0037 83.9963 90.7937 84.099 90.551C84.2017 90.3084 84.253 90.04 84.253 89.746C84.253 89.1487 84.0547 88.6984 83.658 88.395C83.266 88.0917 82.6803 87.94 81.901 87.94H80.417V91.727ZM96.9246 91.888C96.9246 92.6394 96.8056 93.33 96.5676 93.96C96.3296 94.5854 95.9936 95.1244 95.5596 95.577C95.1256 96.0297 94.603 96.382 93.9916 96.634C93.385 96.8814 92.713 97.005 91.9756 97.005C91.2383 97.005 90.5663 96.8814 89.9596 96.634C89.353 96.382 88.8326 96.0297 88.3986 95.577C87.9646 95.1244 87.6286 94.5854 87.3906 93.96C87.1526 93.33 87.0336 92.6394 87.0336 91.888C87.0336 91.1367 87.1526 90.4484 87.3906 89.823C87.6286 89.193 87.9646 88.6517 88.3986 88.199C88.8326 87.7417 89.353 87.387 89.9596 87.135C90.5663 86.883 91.2383 86.757 91.9756 86.757C92.713 86.757 93.385 86.883 93.9916 87.135C94.603 87.387 95.1256 87.7417 95.5596 88.199C95.9936 88.6517 96.3296 89.193 96.5676 89.823C96.8056 90.4484 96.9246 91.1367 96.9246 91.888ZM95.5316 91.888C95.5316 91.272 95.4476 90.719 95.2796 90.229C95.1116 89.739 94.8736 89.326 94.5656 88.99C94.2576 88.6494 93.8843 88.388 93.4456 88.206C93.007 88.024 92.517 87.933 91.9756 87.933C91.439 87.933 90.9513 88.024 90.5126 88.206C90.074 88.388 89.6983 88.6494 89.3856 88.99C89.0776 89.326 88.8396 89.739 88.6716 90.229C88.5036 90.719 88.4196 91.272 88.4196 91.888C88.4196 92.504 88.5036 93.057 88.6716 93.547C88.8396 94.0324 89.0776 94.4454 89.3856 94.786C89.6983 95.122 90.074 95.381 90.5126 95.563C90.9513 95.7404 91.439 95.829 91.9756 95.829C92.517 95.829 93.007 95.7404 93.4456 95.563C93.8843 95.381 94.2576 95.122 94.5656 94.786C94.8736 94.4454 95.1116 94.0324 95.2796 93.547C95.4476 93.057 95.5316 92.504 95.5316 91.888ZM100.136 95.759H104.476V96.9H98.7776V86.869H100.136V95.759ZM112.15 86.869V87.975H107.334V91.307H111.233V92.371H107.334V95.794H112.15V96.9H105.969V86.869H112.15ZM47.3134 113.9H45.9554V103.869H47.3134V113.9ZM50.6963 103.869C50.8177 103.869 50.9063 103.885 50.9623 103.918C51.023 103.946 51.0907 104.007 51.1653 104.1L56.9753 111.66C56.9613 111.539 56.952 111.422 56.9473 111.31C56.9427 111.193 56.9403 111.081 56.9403 110.974V103.869H58.1303V113.9H57.4443C57.337 113.9 57.246 113.881 57.1713 113.844C57.1013 113.807 57.0313 113.744 56.9613 113.655L51.1583 106.102C51.1677 106.219 51.1747 106.333 51.1793 106.445C51.184 106.557 51.1863 106.66 51.1863 106.753V113.9H49.9963V103.869H50.6963ZM67.4104 103.869V105.01H64.1694V113.9H62.8114V105.01H59.5564V103.869H67.4104ZM75.0172 103.869V104.975H70.2012V108.307H74.1002V109.371H70.2012V112.794H75.0172V113.9H68.8362V103.869H75.0172ZM78.4619 109.714V113.9H77.1109V103.869H79.9459C80.5806 103.869 81.1289 103.934 81.5909 104.065C82.0529 104.191 82.4333 104.375 82.7319 104.618C83.0353 104.861 83.2593 105.155 83.4039 105.5C83.5486 105.841 83.6209 106.223 83.6209 106.648C83.6209 107.003 83.5649 107.334 83.4529 107.642C83.3409 107.95 83.1776 108.228 82.9629 108.475C82.7529 108.718 82.4939 108.925 82.1859 109.098C81.8826 109.271 81.5373 109.401 81.1499 109.49C81.3179 109.588 81.4673 109.73 81.5979 109.917L84.5239 113.9H83.3199C83.0726 113.9 82.8906 113.804 82.7739 113.613L80.1699 110.029C80.0906 109.917 80.0043 109.838 79.9109 109.791C79.8176 109.74 79.6776 109.714 79.4909 109.714H78.4619ZM78.4619 108.727H79.8829C80.2796 108.727 80.6273 108.68 80.9259 108.587C81.2293 108.489 81.4813 108.354 81.6819 108.181C81.8873 108.004 82.0413 107.794 82.1439 107.551C82.2466 107.308 82.2979 107.04 82.2979 106.746C82.2979 106.149 82.0996 105.698 81.7029 105.395C81.3109 105.092 80.7253 104.94 79.9459 104.94H78.4619V108.727ZM86.6807 103.869C86.802 103.869 86.8907 103.885 86.9467 103.918C87.0074 103.946 87.075 104.007 87.1497 104.1L92.9597 111.66C92.9457 111.539 92.9364 111.422 92.9317 111.31C92.927 111.193 92.9247 111.081 92.9247 110.974V103.869H94.1147V113.9H93.4287C93.3214 113.9 93.2304 113.881 93.1557 113.844C93.0857 113.807 93.0157 113.744 92.9457 113.655L87.1427 106.102C87.152 106.219 87.159 106.333 87.1637 106.445C87.1684 106.557 87.1707 106.66 87.1707 106.753V113.9H85.9807V103.869H86.6807ZM105.88 108.888C105.88 109.639 105.761 110.33 105.523 110.96C105.285 111.585 104.949 112.124 104.515 112.577C104.081 113.03 103.558 113.382 102.947 113.634C102.34 113.881 101.668 114.005 100.931 114.005C100.193 114.005 99.5214 113.881 98.9147 113.634C98.3081 113.382 97.7877 113.03 97.3537 112.577C96.9197 112.124 96.5837 111.585 96.3457 110.96C96.1077 110.33 95.9887 109.639 95.9887 108.888C95.9887 108.137 96.1077 107.448 96.3457 106.823C96.5837 106.193 96.9197 105.652 97.3537 105.199C97.7877 104.742 98.3081 104.387 98.9147 104.135C99.5214 103.883 100.193 103.757 100.931 103.757C101.668 103.757 102.34 103.883 102.947 104.135C103.558 104.387 104.081 104.742 104.515 105.199C104.949 105.652 105.285 106.193 105.523 106.823C105.761 107.448 105.88 108.137 105.88 108.888ZM104.487 108.888C104.487 108.272 104.403 107.719 104.235 107.229C104.067 106.739 103.829 106.326 103.521 105.99C103.213 105.649 102.839 105.388 102.401 105.206C101.962 105.024 101.472 104.933 100.931 104.933C100.394 104.933 99.9064 105.024 99.4677 105.206C99.0291 105.388 98.6534 105.649 98.3407 105.99C98.0327 106.326 97.7947 106.739 97.6267 107.229C97.4587 107.719 97.3747 108.272 97.3747 108.888C97.3747 109.504 97.4587 110.057 97.6267 110.547C97.7947 111.032 98.0327 111.445 98.3407 111.786C98.6534 112.122 99.0291 112.381 99.4677 112.563C99.9064 112.74 100.394 112.829 100.931 112.829C101.472 112.829 101.962 112.74 102.401 112.563C102.839 112.381 103.213 112.122 103.521 111.786C103.829 111.445 104.067 111.032 104.235 110.547C104.403 110.057 104.487 109.504 104.487 108.888Z" fill="#F6F7F8"/>
</svg>
