<svg width="151" height="130" viewBox="0 0 151 130" fill="none" xmlns="http://www.w3.org/2000/svg">
<rect width="151" height="130" rx="15" fill="#3995A1"/>
<path d="M89.3033 71.8321C89.2116 71.8321 89.1199 71.8071 89.0365 71.7599L75.2331 63.792C75.0691 63.6976 74.9663 63.5225 74.9663 63.3308C74.9663 63.1392 75.0664 62.9641 75.2331 62.8697L89.0365 54.9046C89.2005 54.8101 89.4034 54.8101 89.5701 54.9046C89.7341 54.999 89.8369 55.1741 89.8369 55.3658L89.8397 71.2987C89.8397 71.4876 89.7396 71.6654 89.5729 71.7599C89.4895 71.8099 89.3978 71.8321 89.3033 71.8321ZM76.5643 63.3336L88.7725 70.3791L88.7698 56.2881L76.5643 63.3336Z" fill="#F6F7F8"/>
<path d="M75.5 63.8699C75.4083 63.8699 75.3165 63.8449 75.2332 63.7977L61.4269 55.827C61.263 55.7326 61.1602 55.5575 61.1602 55.3658L61.1629 39.4329C61.1629 39.244 61.2658 39.0662 61.4297 38.9717C61.5937 38.8773 61.7966 38.8773 61.9633 38.9717L75.7667 46.9396C75.9307 47.034 76.0335 47.2091 76.0335 47.4008V63.3393C76.0335 63.5282 75.9335 63.706 75.7667 63.8004C75.6834 63.8477 75.5917 63.8699 75.5 63.8699ZM62.2273 55.0602L74.9692 62.4169V47.7091L62.2301 40.3553L62.2273 55.0602Z" fill="#F6F7F8"/>
<path d="M61.6967 71.8321C61.605 71.8321 61.5133 71.807 61.4299 71.7598L47.6237 63.7892C47.4598 63.6947 47.3569 63.5197 47.3569 63.328L47.3597 47.3951C47.3597 47.2061 47.4625 47.0283 47.6265 46.9339C47.7905 46.8394 47.9933 46.8394 48.1601 46.9339L61.9441 54.8906C61.9552 54.8962 61.9663 54.9017 61.9774 54.9101C62.133 55.0073 62.2303 55.1796 62.2303 55.3629V71.3014C62.2303 71.4903 62.1303 71.6681 61.9635 71.7626C61.8801 71.8098 61.7884 71.8321 61.6967 71.8321ZM48.4241 63.0224L61.1659 70.3791V55.6713L48.4269 48.3174L48.4241 63.0224Z" fill="#F6F7F8"/>
<path d="M75.4999 63.8697C75.4082 63.8697 75.3165 63.8447 75.2331 63.7975C75.0691 63.7031 74.9663 63.528 74.9663 63.3363V47.3978C74.9663 47.2145 75.0608 47.0422 75.2192 46.945C75.2303 46.9394 75.2414 46.9311 75.2525 46.9255L89.0365 38.9688C89.2005 38.8743 89.4034 38.8743 89.5701 38.9688C89.7341 39.0633 89.8369 39.2383 89.8369 39.43L89.8397 55.3629C89.8397 55.5518 89.7396 55.7296 89.5729 55.8241L75.7667 63.7947C75.6833 63.8475 75.5916 63.8697 75.4999 63.8697ZM76.0307 47.7062V62.414L88.7725 55.0573L88.7698 40.3523L76.0307 47.7062Z" fill="#F6F7F8"/>
<path d="M89.3036 71.8322C89.2119 71.8322 89.1202 71.8071 89.0368 71.7599C88.8728 71.6655 88.77 71.4904 88.77 71.2987V55.3602C88.77 55.1769 88.8645 55.0046 89.0229 54.9074C89.034 54.9018 89.0451 54.8935 89.0563 54.8879L102.84 46.9312C103.004 46.8367 103.207 46.8367 103.374 46.9312C103.538 47.0257 103.641 47.2007 103.641 47.3924L103.643 63.3253C103.643 63.5142 103.543 63.692 103.377 63.7865L89.5704 71.7571C89.487 71.8099 89.3953 71.8322 89.3036 71.8322ZM89.8372 55.6714V70.3792L102.579 63.0225L102.576 48.3175L89.8372 55.6714Z" fill="#F6F7F8"/>
<path d="M47.8905 47.9425C47.7988 47.9425 47.7071 47.9175 47.6237 47.8703C47.4598 47.7758 47.3569 47.6008 47.3569 47.4091V31.4706C47.3569 31.2872 47.4514 31.115 47.6098 31.0177C47.6209 31.0122 47.6321 31.0039 47.6432 30.9983L61.4272 23.0415C61.5911 22.9471 61.794 22.9471 61.9607 23.0415C62.1247 23.136 62.2275 23.311 62.2275 23.5027L62.2303 39.4357C62.2303 39.6246 62.1303 39.8024 61.9635 39.8969L48.1573 47.8675C48.0739 47.9175 47.9822 47.9425 47.8905 47.9425ZM48.4241 31.779V46.4867L61.1659 39.1301L61.1632 24.4251L48.4241 31.779Z" fill="#F6F7F8"/>
<path d="M103.11 47.9424C103.018 47.9424 102.926 47.9174 102.843 47.8702L89.0368 39.8995C88.8728 39.8051 88.77 39.6301 88.77 39.4384L88.7728 23.5054C88.7728 23.3165 88.8756 23.1387 89.0396 23.0442C89.2035 22.9498 89.4064 22.9498 89.5732 23.0442L103.357 31.001C103.368 31.0065 103.379 31.0121 103.39 31.0204C103.546 31.1177 103.643 31.2899 103.643 31.4733V47.4118C103.643 47.6007 103.543 47.7785 103.377 47.873C103.293 47.9174 103.202 47.9424 103.11 47.9424ZM89.8372 39.13L102.579 46.4866V31.7789L89.8399 24.425L89.8372 39.13Z" fill="#F6F7F8"/>
<path d="M89.3064 55.8993C89.2147 55.8993 89.123 55.8743 89.0396 55.827C88.8756 55.7326 88.7728 55.5575 88.7728 55.3658L88.77 39.4329C88.77 39.244 88.8701 39.0662 89.0368 38.9717C89.2008 38.8773 89.4036 38.8773 89.5704 38.9717L103.374 46.9396C103.538 47.034 103.641 47.2091 103.641 47.4008C103.641 47.5925 103.541 47.7675 103.374 47.8619L89.5704 55.827C89.4898 55.8743 89.3981 55.8993 89.3064 55.8993ZM89.8372 40.3553L89.8399 54.4463L102.045 47.4008L89.8372 40.3553Z" fill="#F6F7F8"/>
<path d="M61.6994 71.8377C61.6077 71.8377 61.516 71.8127 61.4327 71.7655C61.2687 71.671 61.1659 71.496 61.1659 71.3043L61.1631 55.3714C61.1631 55.1825 61.2631 55.0047 61.4299 54.9102C61.5938 54.8157 61.7967 54.8157 61.9634 54.9102L75.7669 62.8781C75.9309 62.9725 76.0337 63.1475 76.0337 63.3392C76.0337 63.5309 75.9336 63.706 75.7669 63.8004L61.9634 71.7655C61.8829 71.8127 61.7911 71.8377 61.6994 71.8377ZM62.2275 56.2937L62.2302 70.3847L74.4357 63.3392L62.2275 56.2937Z" fill="#F6F7F8"/>
<path d="M61.6994 39.9691C61.6077 39.9691 61.516 39.9441 61.4327 39.8969C61.2687 39.8024 61.1659 39.6274 61.1659 39.4357L61.1631 23.5027C61.1631 23.3138 61.2631 23.136 61.4299 23.0415C61.5938 22.9471 61.7967 22.9471 61.9634 23.0415L75.7669 31.0094C75.9309 31.1039 76.0337 31.2789 76.0337 31.4706C76.0337 31.6623 75.9336 31.8373 75.7669 31.9318L61.9634 39.8969C61.8829 39.9469 61.7911 39.9691 61.6994 39.9691ZM62.2275 24.4251L62.2302 38.5161L74.4357 31.4706L62.2275 24.4251Z" fill="#F6F7F8"/>
<path d="M89.3033 39.969C89.2116 39.969 89.1199 39.944 89.0365 39.8968L75.2331 31.9317C75.0691 31.8372 74.9663 31.6622 74.9663 31.4705C74.9663 31.2788 75.0664 31.1038 75.2331 31.0093L89.0365 23.0442C89.2005 22.9498 89.4034 22.9498 89.5701 23.0442C89.7341 23.1387 89.8369 23.3137 89.8369 23.5054L89.8397 39.4384C89.8397 39.6273 89.7396 39.8051 89.5729 39.8995C89.4895 39.9468 89.3978 39.969 89.3033 39.969ZM76.5643 31.4705L88.7725 38.516L88.7698 24.425L76.5643 31.4705Z" fill="#F6F7F8"/>
<path d="M61.6969 55.9049C61.6052 55.9049 61.5135 55.8799 61.4301 55.8326L47.6267 47.8648C47.4627 47.7703 47.3599 47.5953 47.3599 47.4036C47.3599 47.2119 47.4599 47.0369 47.6267 46.9424L61.4301 38.9773C61.5941 38.8829 61.7969 38.8829 61.9637 38.9773C62.1276 39.0718 62.2305 39.2468 62.2305 39.4385L62.2332 55.3715C62.2332 55.5604 62.1332 55.7382 61.9665 55.8326C61.8803 55.8799 61.7886 55.9049 61.6969 55.9049ZM48.9578 47.4036L61.1661 54.4491L61.1633 40.3581L48.9578 47.4036Z" fill="#F6F7F8"/>
<path d="M75.4972 47.9314C75.4055 47.9314 75.3138 47.9064 75.2304 47.8591L61.4269 39.8968C61.263 39.8024 61.1602 39.6273 61.1602 39.4356C61.1602 39.2467 61.2602 39.0689 61.4269 38.9745L75.2304 31.0038C75.3944 30.9094 75.5972 30.9094 75.764 31.0038L89.5702 38.9772C89.7342 39.0717 89.837 39.2467 89.837 39.4384C89.837 39.6273 89.7342 39.8051 89.5702 39.8996L75.764 47.8619C75.6806 47.9091 75.5889 47.9314 75.4972 47.9314ZM62.7609 39.4356L75.4972 46.784L88.239 39.4384L75.4972 32.0818L62.7609 39.4356Z" fill="#F6F7F8"/>
<path d="M75.4972 79.8C75.4055 79.8 75.3138 79.775 75.2304 79.7278L61.4269 71.7655C61.263 71.671 61.1602 71.496 61.1602 71.3043C61.1602 71.1154 61.2602 70.9376 61.4269 70.8431L75.2304 62.8725C75.3944 62.778 75.5972 62.778 75.764 62.8725L89.5702 70.8459C89.7342 70.9404 89.837 71.1154 89.837 71.3071C89.837 71.496 89.7342 71.6738 89.5702 71.7683L75.764 79.7306C75.6806 79.775 75.5889 79.8 75.4972 79.8ZM62.7609 71.3043L75.4972 78.6526L88.239 71.3043L75.4972 63.9476L62.7609 71.3043Z" fill="#F6F7F8"/>
<path d="M75.4972 31.9984C75.4055 31.9984 75.3138 31.9734 75.2304 31.9261L61.4269 23.9638C61.263 23.8694 61.1602 23.6944 61.1602 23.5027C61.1602 23.3137 61.2602 23.1359 61.4269 23.0415L75.2304 15.0708C75.3944 14.9764 75.5972 14.9764 75.764 15.0708L89.5702 23.0443C89.7342 23.1387 89.837 23.3137 89.837 23.5054C89.837 23.6944 89.7342 23.8722 89.5702 23.9666L75.764 31.9289C75.6806 31.9734 75.5889 31.9984 75.4972 31.9984ZM62.7609 23.5027L75.4972 30.851L88.239 23.5027L75.4972 16.146L62.7609 23.5027Z" fill="#F6F7F8"/>
<path d="M29.6102 91.888C29.6102 92.6394 29.4912 93.323 29.2532 93.939C29.0152 94.555 28.6792 95.0824 28.2452 95.521C27.8112 95.9597 27.2909 96.3004 26.6842 96.543C26.0776 96.781 25.4056 96.9 24.6682 96.9H20.9162V86.869H24.6682C25.4056 86.869 26.0776 86.9904 26.6842 87.233C27.2909 87.471 27.8112 87.8117 28.2452 88.255C28.6792 88.6937 29.0152 89.221 29.2532 89.837C29.4912 90.453 29.6102 91.1367 29.6102 91.888ZM28.2172 91.888C28.2172 91.272 28.1332 90.7214 27.9652 90.236C27.7972 89.7507 27.5592 89.34 27.2512 89.004C26.9432 88.668 26.5699 88.4114 26.1312 88.234C25.6926 88.0567 25.2049 87.968 24.6682 87.968H22.2812V95.801H24.6682C25.2049 95.801 25.6926 95.7124 26.1312 95.535C26.5699 95.3577 26.9432 95.1034 27.2512 94.772C27.5592 94.436 27.7972 94.0254 27.9652 93.54C28.1332 93.0547 28.2172 92.504 28.2172 91.888ZM37.6383 86.869V87.975H32.8223V91.307H36.7213V92.371H32.8223V95.794H37.6383V96.9H31.4573V86.869H37.6383ZM41.083 93.148V96.9H39.732V86.869H42.693C43.3277 86.869 43.8784 86.9437 44.345 87.093C44.8164 87.2377 45.206 87.4454 45.514 87.716C45.822 87.9867 46.0507 88.3134 46.2 88.696C46.354 89.0787 46.431 89.5057 46.431 89.977C46.431 90.4437 46.3494 90.8707 46.186 91.258C46.0227 91.6454 45.7824 91.979 45.465 92.259C45.1524 92.539 44.7627 92.7584 44.296 92.917C43.8294 93.071 43.295 93.148 42.693 93.148H41.083ZM41.083 92.07H42.693C43.0804 92.07 43.421 92.0187 43.715 91.916C44.0137 91.8134 44.2634 91.671 44.464 91.489C44.6647 91.3024 44.8164 91.0807 44.919 90.824C45.0217 90.5674 45.073 90.285 45.073 89.977C45.073 89.3377 44.8747 88.8384 44.478 88.479C44.086 88.1197 43.491 87.94 42.693 87.94H41.083V92.07ZM55.4329 96.9H54.3829C54.2616 96.9 54.1636 96.8697 54.0889 96.809C54.0142 96.7484 53.9582 96.6714 53.9209 96.578L52.9829 94.156H48.4819L47.5439 96.578C47.5112 96.662 47.4552 96.7367 47.3759 96.802C47.2966 96.8674 47.1986 96.9 47.0819 96.9H46.0319L50.0429 86.869H51.4219L55.4329 96.9ZM48.8599 93.176H52.6049L51.0299 89.095C50.9272 88.843 50.8269 88.528 50.7289 88.15C50.6776 88.3414 50.6262 88.5187 50.5749 88.682C50.5282 88.8407 50.4816 88.9807 50.4349 89.102L48.8599 93.176ZM58.1865 92.714V96.9H56.8355V86.869H59.6705C60.3052 86.869 60.8535 86.9344 61.3155 87.065C61.7775 87.191 62.1579 87.3754 62.4565 87.618C62.7599 87.8607 62.9839 88.1547 63.1285 88.5C63.2732 88.8407 63.3455 89.2234 63.3455 89.648C63.3455 90.0027 63.2895 90.334 63.1775 90.642C63.0655 90.95 62.9022 91.2277 62.6875 91.475C62.4775 91.7177 62.2185 91.9254 61.9105 92.098C61.6072 92.2707 61.2619 92.4014 60.8745 92.49C61.0425 92.588 61.1919 92.7304 61.3225 92.917L64.2485 96.9H63.0445C62.7972 96.9 62.6152 96.8044 62.4985 96.613L59.8945 93.029C59.8152 92.917 59.7289 92.8377 59.6355 92.791C59.5422 92.7397 59.4022 92.714 59.2155 92.714H58.1865ZM58.1865 91.727H59.6075C60.0042 91.727 60.3519 91.6804 60.6505 91.587C60.9539 91.489 61.2059 91.3537 61.4065 91.181C61.6119 91.0037 61.7659 90.7937 61.8685 90.551C61.9712 90.3084 62.0225 90.04 62.0225 89.746C62.0225 89.1487 61.8242 88.6984 61.4275 88.395C61.0355 88.0917 60.4499 87.94 59.6705 87.94H58.1865V91.727ZM72.1682 86.869V88.01H68.9272V96.9H67.5692V88.01H64.3142V86.869H72.1682ZM80.9173 96.9H79.8673C79.746 96.9 79.648 96.8697 79.5733 96.809C79.4986 96.7484 79.4426 96.6714 79.4053 96.578L78.4673 94.156H73.9663L73.0283 96.578C72.9956 96.662 72.9396 96.7367 72.8603 96.802C72.781 96.8674 72.683 96.9 72.5663 96.9H71.5163L75.5273 86.869H76.9063L80.9173 96.9ZM74.3443 93.176H78.0893L76.5143 89.095C76.4116 88.843 76.3113 88.528 76.2133 88.15C76.162 88.3414 76.1106 88.5187 76.0593 88.682C76.0126 88.8407 75.966 88.9807 75.9193 89.102L74.3443 93.176ZM87.1149 93.274C87.1802 93.386 87.2362 93.505 87.2829 93.631C87.3342 93.7524 87.3832 93.876 87.4299 94.002C87.4766 93.8714 87.5256 93.7477 87.5769 93.631C87.6282 93.5097 87.6866 93.3884 87.7519 93.267L91.1469 87.1C91.2076 86.9927 91.2706 86.9274 91.3359 86.904C91.4012 86.8807 91.4946 86.869 91.6159 86.869H92.6169V96.9H91.4269V89.529C91.4269 89.431 91.4292 89.326 91.4339 89.214C91.4386 89.102 91.4456 88.9877 91.4549 88.871L88.0179 95.143C87.9012 95.353 87.7379 95.458 87.5279 95.458H87.3319C87.1219 95.458 86.9586 95.353 86.8419 95.143L83.3279 88.85C83.3419 88.9714 83.3512 89.0904 83.3559 89.207C83.3652 89.3237 83.3699 89.431 83.3699 89.529V96.9H82.1799V86.869H83.1809C83.3022 86.869 83.3956 86.8807 83.4609 86.904C83.5262 86.9274 83.5892 86.9927 83.6499 87.1L87.1149 93.274ZM101.24 86.869V87.975H96.4238V91.307H100.323V92.371H96.4238V95.794H101.24V96.9H95.0588V86.869H101.24ZM103.894 86.869C104.015 86.869 104.104 86.8854 104.16 86.918C104.22 86.946 104.288 87.0067 104.363 87.1L110.173 94.66C110.159 94.5387 110.149 94.422 110.145 94.31C110.14 94.1934 110.138 94.0814 110.138 93.974V86.869H111.328V96.9H110.642C110.534 96.9 110.443 96.8814 110.369 96.844C110.299 96.8067 110.229 96.7437 110.159 96.655L104.356 89.102C104.365 89.2187 104.372 89.333 104.377 89.445C104.381 89.557 104.384 89.6597 104.384 89.753V96.9H103.194V86.869H103.894ZM120.608 86.869V88.01H117.367V96.9H116.009V88.01H112.754V86.869H120.608ZM130.667 91.888C130.667 92.6394 130.548 93.33 130.31 93.96C130.072 94.5854 129.736 95.1244 129.302 95.577C128.868 96.0297 128.345 96.382 127.734 96.634C127.127 96.8814 126.455 97.005 125.718 97.005C124.981 97.005 124.309 96.8814 123.702 96.634C123.095 96.382 122.575 96.0297 122.141 95.577C121.707 95.1244 121.371 94.5854 121.133 93.96C120.895 93.33 120.776 92.6394 120.776 91.888C120.776 91.1367 120.895 90.4484 121.133 89.823C121.371 89.193 121.707 88.6517 122.141 88.199C122.575 87.7417 123.095 87.387 123.702 87.135C124.309 86.883 124.981 86.757 125.718 86.757C126.455 86.757 127.127 86.883 127.734 87.135C128.345 87.387 128.868 87.7417 129.302 88.199C129.736 88.6517 130.072 89.193 130.31 89.823C130.548 90.4484 130.667 91.1367 130.667 91.888ZM129.274 91.888C129.274 91.272 129.19 90.719 129.022 90.229C128.854 89.739 128.616 89.326 128.308 88.99C128 88.6494 127.627 88.388 127.188 88.206C126.749 88.024 126.259 87.933 125.718 87.933C125.181 87.933 124.694 88.024 124.255 88.206C123.816 88.388 123.441 88.6494 123.128 88.99C122.82 89.326 122.582 89.739 122.414 90.229C122.246 90.719 122.162 91.272 122.162 91.888C122.162 92.504 122.246 93.057 122.414 93.547C122.582 94.0324 122.82 94.4454 123.128 94.786C123.441 95.122 123.816 95.381 124.255 95.563C124.694 95.7404 125.181 95.829 125.718 95.829C126.259 95.829 126.749 95.7404 127.188 95.563C127.627 95.381 128 95.122 128.308 94.786C128.616 94.4454 128.854 94.0324 129.022 93.547C129.19 93.057 129.274 92.504 129.274 91.888ZM48.6504 110.148V113.9H47.2994V103.869H50.2604C50.8951 103.869 51.4457 103.944 51.9124 104.093C52.3837 104.238 52.7734 104.445 53.0814 104.716C53.3894 104.987 53.6181 105.313 53.7674 105.696C53.9214 106.079 53.9984 106.506 53.9984 106.977C53.9984 107.444 53.9167 107.871 53.7534 108.258C53.5901 108.645 53.3497 108.979 53.0324 109.259C52.7197 109.539 52.3301 109.758 51.8634 109.917C51.3967 110.071 50.8624 110.148 50.2604 110.148H48.6504ZM48.6504 109.07H50.2604C50.6477 109.07 50.9884 109.019 51.2824 108.916C51.5811 108.813 51.8307 108.671 52.0314 108.489C52.2321 108.302 52.3837 108.081 52.4864 107.824C52.5891 107.567 52.6404 107.285 52.6404 106.977C52.6404 106.338 52.4421 105.838 52.0454 105.479C51.6534 105.12 51.0584 104.94 50.2604 104.94H48.6504V109.07ZM61.899 103.869V104.975H57.083V108.307H60.982V109.371H57.083V112.794H61.899V113.9H55.718V103.869H61.899ZM68.9908 105.437C68.9488 105.507 68.9044 105.561 68.8578 105.598C68.8111 105.631 68.7504 105.647 68.6758 105.647C68.5964 105.647 68.5031 105.607 68.3958 105.528C68.2931 105.449 68.1601 105.362 67.9968 105.269C67.8381 105.171 67.6444 105.082 67.4158 105.003C67.1918 104.924 66.9188 104.884 66.5968 104.884C66.2934 104.884 66.0251 104.926 65.7918 105.01C65.5584 105.089 65.3624 105.199 65.2038 105.339C65.0498 105.479 64.9331 105.645 64.8538 105.836C64.7744 106.023 64.7348 106.226 64.7348 106.445C64.7348 106.725 64.8024 106.958 64.9378 107.145C65.0778 107.327 65.2598 107.483 65.4838 107.614C65.7124 107.745 65.9691 107.859 66.2538 107.957C66.5431 108.05 66.8371 108.148 67.1358 108.251C67.4391 108.354 67.7331 108.47 68.0178 108.601C68.3071 108.727 68.5638 108.888 68.7878 109.084C69.0164 109.28 69.1984 109.52 69.3338 109.805C69.4738 110.09 69.5438 110.44 69.5438 110.855C69.5438 111.294 69.4691 111.707 69.3198 112.094C69.1704 112.477 68.9511 112.81 68.6618 113.095C68.3771 113.38 68.0248 113.604 67.6048 113.767C67.1894 113.93 66.7158 114.012 66.1838 114.012C65.5351 114.012 64.9424 113.895 64.4058 113.662C63.8738 113.424 63.4188 113.104 63.0408 112.703L63.4328 112.059C63.4701 112.008 63.5144 111.966 63.5658 111.933C63.6218 111.896 63.6824 111.877 63.7478 111.877C63.8458 111.877 63.9578 111.931 64.0838 112.038C64.2098 112.141 64.3661 112.255 64.5528 112.381C64.7441 112.507 64.9728 112.624 65.2388 112.731C65.5094 112.834 65.8384 112.885 66.2258 112.885C66.5478 112.885 66.8348 112.841 67.0868 112.752C67.3388 112.663 67.5511 112.54 67.7238 112.381C67.9011 112.218 68.0364 112.024 68.1298 111.8C68.2231 111.576 68.2698 111.326 68.2698 111.051C68.2698 110.748 68.1998 110.5 68.0598 110.309C67.9244 110.113 67.7448 109.95 67.5208 109.819C67.2968 109.688 67.0401 109.579 66.7508 109.49C66.4661 109.397 66.1721 109.303 65.8688 109.21C65.5701 109.112 65.2761 109 64.9868 108.874C64.7021 108.748 64.4478 108.585 64.2238 108.384C63.9998 108.183 63.8178 107.934 63.6778 107.635C63.5424 107.332 63.4748 106.958 63.4748 106.515C63.4748 106.16 63.5424 105.817 63.6778 105.486C63.8178 105.155 64.0184 104.861 64.2798 104.604C64.5411 104.347 64.8631 104.142 65.2458 103.988C65.6331 103.834 66.0764 103.757 66.5758 103.757C67.1358 103.757 67.6468 103.846 68.1088 104.023C68.5708 104.2 68.9744 104.457 69.3198 104.793L68.9908 105.437ZM76.4146 105.437C76.3726 105.507 76.3283 105.561 76.2816 105.598C76.2349 105.631 76.1743 105.647 76.0996 105.647C76.0203 105.647 75.9269 105.607 75.8196 105.528C75.7169 105.449 75.5839 105.362 75.4206 105.269C75.2619 105.171 75.0683 105.082 74.8396 105.003C74.6156 104.924 74.3426 104.884 74.0206 104.884C73.7173 104.884 73.4489 104.926 73.2156 105.01C72.9823 105.089 72.7863 105.199 72.6276 105.339C72.4736 105.479 72.3569 105.645 72.2776 105.836C72.1983 106.023 72.1586 106.226 72.1586 106.445C72.1586 106.725 72.2263 106.958 72.3616 107.145C72.5016 107.327 72.6836 107.483 72.9076 107.614C73.1363 107.745 73.3929 107.859 73.6776 107.957C73.9669 108.05 74.2609 108.148 74.5596 108.251C74.8629 108.354 75.1569 108.47 75.4416 108.601C75.7309 108.727 75.9876 108.888 76.2116 109.084C76.4403 109.28 76.6223 109.52 76.7576 109.805C76.8976 110.09 76.9676 110.44 76.9676 110.855C76.9676 111.294 76.8929 111.707 76.7436 112.094C76.5943 112.477 76.3749 112.81 76.0856 113.095C75.8009 113.38 75.4486 113.604 75.0286 113.767C74.6133 113.93 74.1396 114.012 73.6076 114.012C72.9589 114.012 72.3663 113.895 71.8296 113.662C71.2976 113.424 70.8426 113.104 70.4646 112.703L70.8566 112.059C70.8939 112.008 70.9383 111.966 70.9896 111.933C71.0456 111.896 71.1063 111.877 71.1716 111.877C71.2696 111.877 71.3816 111.931 71.5076 112.038C71.6336 112.141 71.7899 112.255 71.9766 112.381C72.1679 112.507 72.3966 112.624 72.6626 112.731C72.9333 112.834 73.2623 112.885 73.6496 112.885C73.9716 112.885 74.2586 112.841 74.5106 112.752C74.7626 112.663 74.9749 112.54 75.1476 112.381C75.3249 112.218 75.4603 112.024 75.5536 111.8C75.6469 111.576 75.6936 111.326 75.6936 111.051C75.6936 110.748 75.6236 110.5 75.4836 110.309C75.3483 110.113 75.1686 109.95 74.9446 109.819C74.7206 109.688 74.4639 109.579 74.1746 109.49C73.8899 109.397 73.5959 109.303 73.2926 109.21C72.9939 109.112 72.6999 109 72.4106 108.874C72.1259 108.748 71.8716 108.585 71.6476 108.384C71.4236 108.183 71.2416 107.934 71.1016 107.635C70.9663 107.332 70.8986 106.958 70.8986 106.515C70.8986 106.16 70.9663 105.817 71.1016 105.486C71.2416 105.155 71.4423 104.861 71.7036 104.604C71.9649 104.347 72.2869 104.142 72.6696 103.988C73.0569 103.834 73.5003 103.757 73.9996 103.757C74.5596 103.757 75.0706 103.846 75.5326 104.023C75.9946 104.2 76.3983 104.457 76.7436 104.793L76.4146 105.437ZM88.0174 108.888C88.0174 109.639 87.8984 110.33 87.6604 110.96C87.4224 111.585 87.0864 112.124 86.6524 112.577C86.2184 113.03 85.6958 113.382 85.0844 113.634C84.4778 113.881 83.8058 114.005 83.0684 114.005C82.3311 114.005 81.6591 113.881 81.0524 113.634C80.4458 113.382 79.9254 113.03 79.4914 112.577C79.0574 112.124 78.7214 111.585 78.4834 110.96C78.2454 110.33 78.1264 109.639 78.1264 108.888C78.1264 108.137 78.2454 107.448 78.4834 106.823C78.7214 106.193 79.0574 105.652 79.4914 105.199C79.9254 104.742 80.4458 104.387 81.0524 104.135C81.6591 103.883 82.3311 103.757 83.0684 103.757C83.8058 103.757 84.4778 103.883 85.0844 104.135C85.6958 104.387 86.2184 104.742 86.6524 105.199C87.0864 105.652 87.4224 106.193 87.6604 106.823C87.8984 107.448 88.0174 108.137 88.0174 108.888ZM86.6244 108.888C86.6244 108.272 86.5404 107.719 86.3724 107.229C86.2044 106.739 85.9664 106.326 85.6584 105.99C85.3504 105.649 84.9771 105.388 84.5384 105.206C84.0998 105.024 83.6098 104.933 83.0684 104.933C82.5318 104.933 82.0441 105.024 81.6054 105.206C81.1668 105.388 80.7911 105.649 80.4784 105.99C80.1704 106.326 79.9324 106.739 79.7644 107.229C79.5964 107.719 79.5124 108.272 79.5124 108.888C79.5124 109.504 79.5964 110.057 79.7644 110.547C79.9324 111.032 80.1704 111.445 80.4784 111.786C80.7911 112.122 81.1668 112.381 81.6054 112.563C82.0441 112.74 82.5318 112.829 83.0684 112.829C83.6098 112.829 84.0998 112.74 84.5384 112.563C84.9771 112.381 85.3504 112.122 85.6584 111.786C85.9664 111.445 86.2044 111.032 86.3724 110.547C86.5404 110.057 86.6244 109.504 86.6244 108.888ZM97.8226 113.9H96.7726C96.6512 113.9 96.5532 113.87 96.4786 113.809C96.4039 113.748 96.3479 113.671 96.3106 113.578L95.3726 111.156H90.8716L89.9336 113.578C89.9009 113.662 89.8449 113.737 89.7656 113.802C89.6862 113.867 89.5882 113.9 89.4716 113.9H88.4216L92.4326 103.869H93.8116L97.8226 113.9ZM91.2496 110.176H94.9946L93.4196 106.095C93.3169 105.843 93.2166 105.528 93.1186 105.15C93.0672 105.341 93.0159 105.519 92.9646 105.682C92.9179 105.841 92.8712 105.981 92.8246 106.102L91.2496 110.176ZM100.443 112.759H104.783V113.9H99.0852V103.869H100.443V112.759Z" fill="#F6F7F8"/>
</svg>
