<svg width="151" height="130" viewBox="0 0 151 130" fill="none" xmlns="http://www.w3.org/2000/svg">
<rect width="151" height="130" rx="15" fill="#7D7A65"/>
<path d="M89.3033 71.8321C89.2116 71.8321 89.1199 71.8071 89.0365 71.7599L75.2331 63.792C75.0691 63.6976 74.9663 63.5225 74.9663 63.3308C74.9663 63.1392 75.0664 62.9641 75.2331 62.8697L89.0365 54.9046C89.2005 54.8101 89.4034 54.8101 89.5701 54.9046C89.7341 54.999 89.8369 55.1741 89.8369 55.3658L89.8397 71.2987C89.8397 71.4876 89.7396 71.6654 89.5729 71.7599C89.4895 71.8099 89.3978 71.8321 89.3033 71.8321ZM76.5643 63.3336L88.7725 70.3791L88.7698 56.2881L76.5643 63.3336Z" fill="#F6F7F8"/>
<path d="M75.5 63.8699C75.4083 63.8699 75.3165 63.8449 75.2332 63.7977L61.4269 55.827C61.263 55.7326 61.1602 55.5575 61.1602 55.3658L61.1629 39.4329C61.1629 39.244 61.2658 39.0662 61.4297 38.9717C61.5937 38.8773 61.7966 38.8773 61.9633 38.9717L75.7667 46.9396C75.9307 47.034 76.0335 47.2091 76.0335 47.4008V63.3393C76.0335 63.5282 75.9335 63.706 75.7667 63.8004C75.6834 63.8477 75.5917 63.8699 75.5 63.8699ZM62.2273 55.0602L74.9692 62.4169V47.7091L62.2301 40.3553L62.2273 55.0602Z" fill="#F6F7F8"/>
<path d="M61.6967 71.8321C61.605 71.8321 61.5133 71.807 61.4299 71.7598L47.6237 63.7892C47.4598 63.6947 47.3569 63.5197 47.3569 63.328L47.3597 47.3951C47.3597 47.2061 47.4625 47.0283 47.6265 46.9339C47.7905 46.8394 47.9933 46.8394 48.1601 46.9339L61.9441 54.8906C61.9552 54.8962 61.9663 54.9017 61.9774 54.9101C62.133 55.0073 62.2303 55.1796 62.2303 55.3629V71.3014C62.2303 71.4903 62.1303 71.6681 61.9635 71.7626C61.8801 71.8098 61.7884 71.8321 61.6967 71.8321ZM48.4241 63.0224L61.1659 70.3791V55.6713L48.4269 48.3174L48.4241 63.0224Z" fill="#F6F7F8"/>
<path d="M75.4999 63.8697C75.4082 63.8697 75.3165 63.8447 75.2331 63.7975C75.0691 63.7031 74.9663 63.528 74.9663 63.3363V47.3978C74.9663 47.2145 75.0608 47.0422 75.2192 46.945C75.2303 46.9394 75.2414 46.9311 75.2525 46.9255L89.0365 38.9688C89.2005 38.8743 89.4034 38.8743 89.5701 38.9688C89.7341 39.0633 89.8369 39.2383 89.8369 39.43L89.8397 55.3629C89.8397 55.5518 89.7396 55.7296 89.5729 55.8241L75.7667 63.7947C75.6833 63.8475 75.5916 63.8697 75.4999 63.8697ZM76.0307 47.7062V62.414L88.7725 55.0573L88.7698 40.3523L76.0307 47.7062Z" fill="#F6F7F8"/>
<path d="M89.3036 71.8322C89.2119 71.8322 89.1202 71.8071 89.0368 71.7599C88.8728 71.6655 88.77 71.4904 88.77 71.2987V55.3602C88.77 55.1769 88.8645 55.0046 89.0229 54.9074C89.034 54.9018 89.0451 54.8935 89.0563 54.8879L102.84 46.9312C103.004 46.8367 103.207 46.8367 103.374 46.9312C103.538 47.0257 103.641 47.2007 103.641 47.3924L103.643 63.3253C103.643 63.5142 103.543 63.692 103.377 63.7865L89.5704 71.7571C89.487 71.8099 89.3953 71.8322 89.3036 71.8322ZM89.8372 55.6714V70.3792L102.579 63.0225L102.576 48.3175L89.8372 55.6714Z" fill="#F6F7F8"/>
<path d="M47.8905 47.9425C47.7988 47.9425 47.7071 47.9175 47.6237 47.8703C47.4598 47.7758 47.3569 47.6008 47.3569 47.4091V31.4706C47.3569 31.2872 47.4514 31.115 47.6098 31.0177C47.6209 31.0122 47.6321 31.0039 47.6432 30.9983L61.4272 23.0415C61.5911 22.9471 61.794 22.9471 61.9607 23.0415C62.1247 23.136 62.2275 23.311 62.2275 23.5027L62.2303 39.4357C62.2303 39.6246 62.1303 39.8024 61.9635 39.8969L48.1573 47.8675C48.0739 47.9175 47.9822 47.9425 47.8905 47.9425ZM48.4241 31.779V46.4867L61.1659 39.1301L61.1632 24.4251L48.4241 31.779Z" fill="#F6F7F8"/>
<path d="M103.11 47.9424C103.018 47.9424 102.926 47.9174 102.843 47.8702L89.0368 39.8995C88.8728 39.8051 88.77 39.6301 88.77 39.4384L88.7728 23.5054C88.7728 23.3165 88.8756 23.1387 89.0396 23.0442C89.2035 22.9498 89.4064 22.9498 89.5732 23.0442L103.357 31.001C103.368 31.0065 103.379 31.0121 103.39 31.0204C103.546 31.1177 103.643 31.2899 103.643 31.4733V47.4118C103.643 47.6007 103.543 47.7785 103.377 47.873C103.293 47.9174 103.202 47.9424 103.11 47.9424ZM89.8372 39.13L102.579 46.4866V31.7789L89.8399 24.425L89.8372 39.13Z" fill="#F6F7F8"/>
<path d="M89.3064 55.8993C89.2147 55.8993 89.123 55.8743 89.0396 55.827C88.8756 55.7326 88.7728 55.5575 88.7728 55.3658L88.77 39.4329C88.77 39.244 88.8701 39.0662 89.0368 38.9717C89.2008 38.8773 89.4036 38.8773 89.5704 38.9717L103.374 46.9396C103.538 47.034 103.641 47.2091 103.641 47.4008C103.641 47.5925 103.541 47.7675 103.374 47.8619L89.5704 55.827C89.4898 55.8743 89.3981 55.8993 89.3064 55.8993ZM89.8372 40.3553L89.8399 54.4463L102.045 47.4008L89.8372 40.3553Z" fill="#F6F7F8"/>
<path d="M61.6994 71.8377C61.6077 71.8377 61.516 71.8127 61.4327 71.7655C61.2687 71.671 61.1659 71.496 61.1659 71.3043L61.1631 55.3714C61.1631 55.1825 61.2631 55.0047 61.4299 54.9102C61.5938 54.8157 61.7967 54.8157 61.9634 54.9102L75.7669 62.8781C75.9309 62.9725 76.0337 63.1475 76.0337 63.3392C76.0337 63.5309 75.9336 63.706 75.7669 63.8004L61.9634 71.7655C61.8829 71.8127 61.7911 71.8377 61.6994 71.8377ZM62.2275 56.2937L62.2302 70.3847L74.4357 63.3392L62.2275 56.2937Z" fill="#F6F7F8"/>
<path d="M61.6994 39.9691C61.6077 39.9691 61.516 39.9441 61.4327 39.8969C61.2687 39.8024 61.1659 39.6274 61.1659 39.4357L61.1631 23.5027C61.1631 23.3138 61.2631 23.136 61.4299 23.0415C61.5938 22.9471 61.7967 22.9471 61.9634 23.0415L75.7669 31.0094C75.9309 31.1039 76.0337 31.2789 76.0337 31.4706C76.0337 31.6623 75.9336 31.8373 75.7669 31.9318L61.9634 39.8969C61.8829 39.9469 61.7911 39.9691 61.6994 39.9691ZM62.2275 24.4251L62.2302 38.5161L74.4357 31.4706L62.2275 24.4251Z" fill="#F6F7F8"/>
<path d="M89.3033 39.969C89.2116 39.969 89.1199 39.944 89.0365 39.8968L75.2331 31.9317C75.0691 31.8372 74.9663 31.6622 74.9663 31.4705C74.9663 31.2788 75.0664 31.1038 75.2331 31.0093L89.0365 23.0442C89.2005 22.9498 89.4034 22.9498 89.5701 23.0442C89.7341 23.1387 89.8369 23.3137 89.8369 23.5054L89.8397 39.4384C89.8397 39.6273 89.7396 39.8051 89.5729 39.8995C89.4895 39.9468 89.3978 39.969 89.3033 39.969ZM76.5643 31.4705L88.7725 38.516L88.7698 24.425L76.5643 31.4705Z" fill="#F6F7F8"/>
<path d="M61.6969 55.9049C61.6052 55.9049 61.5135 55.8799 61.4301 55.8326L47.6267 47.8648C47.4627 47.7703 47.3599 47.5953 47.3599 47.4036C47.3599 47.2119 47.4599 47.0369 47.6267 46.9424L61.4301 38.9773C61.5941 38.8829 61.7969 38.8829 61.9637 38.9773C62.1276 39.0718 62.2305 39.2468 62.2305 39.4385L62.2332 55.3715C62.2332 55.5604 62.1332 55.7382 61.9665 55.8326C61.8803 55.8799 61.7886 55.9049 61.6969 55.9049ZM48.9578 47.4036L61.1661 54.4491L61.1633 40.3581L48.9578 47.4036Z" fill="#F6F7F8"/>
<path d="M75.4972 47.9314C75.4055 47.9314 75.3138 47.9064 75.2304 47.8591L61.4269 39.8968C61.263 39.8024 61.1602 39.6273 61.1602 39.4356C61.1602 39.2467 61.2602 39.0689 61.4269 38.9745L75.2304 31.0038C75.3944 30.9094 75.5972 30.9094 75.764 31.0038L89.5702 38.9772C89.7342 39.0717 89.837 39.2467 89.837 39.4384C89.837 39.6273 89.7342 39.8051 89.5702 39.8996L75.764 47.8619C75.6806 47.9091 75.5889 47.9314 75.4972 47.9314ZM62.7609 39.4356L75.4972 46.784L88.239 39.4384L75.4972 32.0818L62.7609 39.4356Z" fill="#F6F7F8"/>
<path d="M75.4972 79.8C75.4055 79.8 75.3138 79.775 75.2304 79.7278L61.4269 71.7655C61.263 71.671 61.1602 71.496 61.1602 71.3043C61.1602 71.1154 61.2602 70.9376 61.4269 70.8431L75.2304 62.8725C75.3944 62.778 75.5972 62.778 75.764 62.8725L89.5702 70.8459C89.7342 70.9404 89.837 71.1154 89.837 71.3071C89.837 71.496 89.7342 71.6738 89.5702 71.7683L75.764 79.7306C75.6806 79.775 75.5889 79.8 75.4972 79.8ZM62.7609 71.3043L75.4972 78.6526L88.239 71.3043L75.4972 63.9476L62.7609 71.3043Z" fill="#F6F7F8"/>
<path d="M75.4972 31.9984C75.4055 31.9984 75.3138 31.9734 75.2304 31.9261L61.4269 23.9638C61.263 23.8694 61.1602 23.6944 61.1602 23.5027C61.1602 23.3137 61.2602 23.1359 61.4269 23.0415L75.2304 15.0708C75.3944 14.9764 75.5972 14.9764 75.764 15.0708L89.5702 23.0443C89.7342 23.1387 89.837 23.3137 89.837 23.5054C89.837 23.6944 89.7342 23.8722 89.5702 23.9666L75.764 31.9289C75.6806 31.9734 75.5889 31.9984 75.4972 31.9984ZM62.7609 23.5027L75.4972 30.851L88.239 23.5027L75.4972 16.146L62.7609 23.5027Z" fill="#F6F7F8"/>
<path d="M58.1161 100.388C58.1161 101.139 57.9971 101.823 57.7591 102.439C57.5211 103.055 57.1851 103.582 56.7511 104.021C56.3171 104.46 55.7968 104.8 55.1901 105.043C54.5834 105.281 53.9114 105.4 53.1741 105.4H49.4221V95.369H53.1741C53.9114 95.369 54.5834 95.4904 55.1901 95.733C55.7968 95.971 56.3171 96.3117 56.7511 96.755C57.1851 97.1937 57.5211 97.721 57.7591 98.337C57.9971 98.953 58.1161 99.6367 58.1161 100.388ZM56.7231 100.388C56.7231 99.772 56.6391 99.2214 56.4711 98.736C56.3031 98.2507 56.0651 97.84 55.7571 97.504C55.4491 97.168 55.0758 96.9114 54.6371 96.734C54.1984 96.5567 53.7108 96.468 53.1741 96.468H50.7871V104.301H53.1741C53.7108 104.301 54.1984 104.212 54.6371 104.035C55.0758 103.858 55.4491 103.603 55.7571 103.272C56.0651 102.936 56.3031 102.525 56.4711 102.04C56.6391 101.555 56.7231 101.004 56.7231 100.388ZM61.5731 105.4H60.2151V95.369H61.5731V105.4ZM72.5091 105.4H71.4591C71.3378 105.4 71.2398 105.37 71.1651 105.309C71.0904 105.248 71.0344 105.171 70.9971 105.078L70.0591 102.656H65.5581L64.6201 105.078C64.5874 105.162 64.5314 105.237 64.4521 105.302C64.3728 105.367 64.2748 105.4 64.1581 105.4H63.1081L67.1191 95.369H68.4981L72.5091 105.4ZM65.9361 101.676H69.6811L68.1061 97.595C68.0034 97.343 67.9031 97.028 67.8051 96.65C67.7538 96.8414 67.7024 97.0187 67.6511 97.182C67.6044 97.3407 67.5578 97.4807 67.5111 97.602L65.9361 101.676ZM70.1851 92.926L68.1271 94.438C68.0478 94.494 67.9778 94.5314 67.9171 94.55C67.8564 94.5687 67.7771 94.578 67.6791 94.578H66.7131L68.1901 93.157C68.2368 93.1104 68.2788 93.073 68.3161 93.045C68.3581 93.017 68.4001 92.9937 68.4421 92.975C68.4841 92.9564 68.5308 92.9447 68.5821 92.94C68.6334 92.9307 68.6988 92.926 68.7781 92.926H70.1851ZM75.2627 101.214V105.4H73.9117V95.369H76.7467C77.3814 95.369 77.9297 95.4344 78.3917 95.565C78.8537 95.691 79.234 95.8754 79.5327 96.118C79.836 96.3607 80.06 96.6547 80.2047 97C80.3494 97.3407 80.4217 97.7234 80.4217 98.148C80.4217 98.5027 80.3657 98.834 80.2537 99.142C80.1417 99.45 79.9784 99.7277 79.7637 99.975C79.5537 100.218 79.2947 100.425 78.9867 100.598C78.6834 100.771 78.338 100.901 77.9507 100.99C78.1187 101.088 78.268 101.23 78.3987 101.417L81.3247 105.4H80.1207C79.8734 105.4 79.6914 105.304 79.5747 105.113L76.9707 101.529C76.8914 101.417 76.805 101.338 76.7117 101.291C76.6184 101.24 76.4784 101.214 76.2917 101.214H75.2627ZM75.2627 100.227H76.6837C77.0804 100.227 77.428 100.18 77.7267 100.087C78.03 99.989 78.282 99.8537 78.4827 99.681C78.688 99.5037 78.842 99.2937 78.9447 99.051C79.0474 98.8084 79.0987 98.54 79.0987 98.246C79.0987 97.6487 78.9004 97.1984 78.5037 96.895C78.1117 96.5917 77.526 96.44 76.7467 96.44H75.2627V100.227ZM84.3915 105.4H83.0335V95.369H84.3915V105.4ZM95.3274 105.4H94.2774C94.1561 105.4 94.0581 105.37 93.9834 105.309C93.9088 105.248 93.8528 105.171 93.8154 105.078L92.8774 102.656H88.3764L87.4384 105.078C87.4058 105.162 87.3498 105.237 87.2704 105.302C87.1911 105.367 87.0931 105.4 86.9764 105.4H85.9264L89.9374 95.369H91.3164L95.3274 105.4ZM88.7544 101.676H92.4994L90.9244 97.595C90.8218 97.343 90.7214 97.028 90.6234 96.65C90.5721 96.8414 90.5208 97.0187 90.4694 97.182C90.4228 97.3407 90.3761 97.4807 90.3294 97.602L88.7544 101.676ZM101.728 96.937C101.686 97.007 101.642 97.0607 101.595 97.098C101.548 97.1307 101.488 97.147 101.413 97.147C101.334 97.147 101.24 97.1074 101.133 97.028C101.03 96.9487 100.897 96.8624 100.734 96.769C100.575 96.671 100.382 96.5824 100.153 96.503C99.9291 96.4237 99.6561 96.384 99.3341 96.384C99.0307 96.384 98.7624 96.426 98.5291 96.51C98.2957 96.5894 98.0997 96.699 97.9411 96.839C97.7871 96.979 97.6704 97.1447 97.5911 97.336C97.5117 97.5227 97.4721 97.7257 97.4721 97.945C97.4721 98.225 97.5397 98.4584 97.6751 98.645C97.8151 98.827 97.9971 98.9834 98.2211 99.114C98.4497 99.2447 98.7064 99.359 98.9911 99.457C99.2804 99.5504 99.5744 99.6484 99.8731 99.751C100.176 99.8537 100.47 99.9704 100.755 100.101C101.044 100.227 101.301 100.388 101.525 100.584C101.754 100.78 101.936 101.02 102.071 101.305C102.211 101.59 102.281 101.94 102.281 102.355C102.281 102.794 102.206 103.207 102.057 103.594C101.908 103.977 101.688 104.31 101.399 104.595C101.114 104.88 100.762 105.104 100.342 105.267C99.9267 105.43 99.4531 105.512 98.9211 105.512C98.2724 105.512 97.6797 105.395 97.1431 105.162C96.6111 104.924 96.1561 104.604 95.7781 104.203L96.1701 103.559C96.2074 103.508 96.2517 103.466 96.3031 103.433C96.3591 103.396 96.4197 103.377 96.4851 103.377C96.5831 103.377 96.6951 103.431 96.8211 103.538C96.9471 103.641 97.1034 103.755 97.2901 103.881C97.4814 104.007 97.7101 104.124 97.9761 104.231C98.2467 104.334 98.5757 104.385 98.9631 104.385C99.2851 104.385 99.5721 104.341 99.8241 104.252C100.076 104.163 100.288 104.04 100.461 103.881C100.638 103.718 100.774 103.524 100.867 103.3C100.96 103.076 101.007 102.826 101.007 102.551C101.007 102.248 100.937 102 100.797 101.809C100.662 101.613 100.482 101.45 100.258 101.319C100.034 101.188 99.7774 101.079 99.4881 100.99C99.2034 100.897 98.9094 100.803 98.6061 100.71C98.3074 100.612 98.0134 100.5 97.7241 100.374C97.4394 100.248 97.1851 100.085 96.9611 99.884C96.7371 99.6834 96.5551 99.4337 96.4151 99.135C96.2797 98.8317 96.2121 98.4584 96.2121 98.015C96.2121 97.6604 96.2797 97.3174 96.4151 96.986C96.5551 96.6547 96.7557 96.3607 97.0171 96.104C97.2784 95.8474 97.6004 95.642 97.9831 95.488C98.3704 95.334 98.8137 95.257 99.3131 95.257C99.8731 95.257 100.384 95.3457 100.846 95.523C101.308 95.7004 101.712 95.957 102.057 96.293L101.728 96.937Z" fill="#F6F7F8"/>
</svg>
