<svg width="151" height="130" viewBox="0 0 151 130" fill="none" xmlns="http://www.w3.org/2000/svg">
<rect width="151" height="130" rx="15" fill="#FC766F"/>
<path d="M89.3033 71.8321C89.2116 71.8321 89.1199 71.8071 89.0365 71.7599L75.2331 63.792C75.0691 63.6976 74.9663 63.5225 74.9663 63.3308C74.9663 63.1392 75.0664 62.9641 75.2331 62.8697L89.0365 54.9046C89.2005 54.8101 89.4034 54.8101 89.5701 54.9046C89.7341 54.999 89.8369 55.1741 89.8369 55.3658L89.8397 71.2987C89.8397 71.4876 89.7396 71.6654 89.5729 71.7599C89.4895 71.8099 89.3978 71.8321 89.3033 71.8321ZM76.5643 63.3336L88.7725 70.3791L88.7698 56.2881L76.5643 63.3336Z" fill="#F6F7F8"/>
<path d="M75.5 63.8699C75.4083 63.8699 75.3165 63.8449 75.2332 63.7977L61.4269 55.827C61.263 55.7326 61.1602 55.5575 61.1602 55.3658L61.1629 39.4329C61.1629 39.244 61.2658 39.0662 61.4297 38.9717C61.5937 38.8773 61.7966 38.8773 61.9633 38.9717L75.7667 46.9396C75.9307 47.034 76.0335 47.2091 76.0335 47.4008V63.3393C76.0335 63.5282 75.9335 63.706 75.7667 63.8004C75.6834 63.8477 75.5917 63.8699 75.5 63.8699ZM62.2273 55.0602L74.9692 62.4169V47.7091L62.2301 40.3553L62.2273 55.0602Z" fill="#F6F7F8"/>
<path d="M61.6967 71.8321C61.605 71.8321 61.5133 71.807 61.4299 71.7598L47.6237 63.7892C47.4598 63.6947 47.3569 63.5197 47.3569 63.328L47.3597 47.3951C47.3597 47.2061 47.4625 47.0283 47.6265 46.9339C47.7905 46.8394 47.9933 46.8394 48.1601 46.9339L61.9441 54.8906C61.9552 54.8962 61.9663 54.9017 61.9774 54.9101C62.133 55.0073 62.2303 55.1796 62.2303 55.3629V71.3014C62.2303 71.4903 62.1303 71.6681 61.9635 71.7626C61.8801 71.8098 61.7884 71.8321 61.6967 71.8321ZM48.4241 63.0224L61.1659 70.3791V55.6713L48.4269 48.3174L48.4241 63.0224Z" fill="#F6F7F8"/>
<path d="M75.4999 63.8697C75.4082 63.8697 75.3165 63.8447 75.2331 63.7975C75.0691 63.7031 74.9663 63.528 74.9663 63.3363V47.3978C74.9663 47.2145 75.0608 47.0422 75.2192 46.945C75.2303 46.9394 75.2414 46.9311 75.2525 46.9255L89.0365 38.9688C89.2005 38.8743 89.4034 38.8743 89.5701 38.9688C89.7341 39.0633 89.8369 39.2383 89.8369 39.43L89.8397 55.3629C89.8397 55.5518 89.7396 55.7296 89.5729 55.8241L75.7667 63.7947C75.6833 63.8475 75.5916 63.8697 75.4999 63.8697ZM76.0307 47.7062V62.414L88.7725 55.0573L88.7698 40.3523L76.0307 47.7062Z" fill="#F6F7F8"/>
<path d="M89.3036 71.8322C89.2119 71.8322 89.1202 71.8071 89.0368 71.7599C88.8728 71.6655 88.77 71.4904 88.77 71.2987V55.3602C88.77 55.1769 88.8645 55.0046 89.0229 54.9074C89.034 54.9018 89.0451 54.8935 89.0563 54.8879L102.84 46.9312C103.004 46.8367 103.207 46.8367 103.374 46.9312C103.538 47.0257 103.641 47.2007 103.641 47.3924L103.643 63.3253C103.643 63.5142 103.543 63.692 103.377 63.7865L89.5704 71.7571C89.487 71.8099 89.3953 71.8322 89.3036 71.8322ZM89.8372 55.6714V70.3792L102.579 63.0225L102.576 48.3175L89.8372 55.6714Z" fill="#F6F7F8"/>
<path d="M47.8905 47.9425C47.7988 47.9425 47.7071 47.9175 47.6237 47.8703C47.4598 47.7758 47.3569 47.6008 47.3569 47.4091V31.4706C47.3569 31.2872 47.4514 31.115 47.6098 31.0177C47.6209 31.0122 47.6321 31.0039 47.6432 30.9983L61.4272 23.0415C61.5911 22.9471 61.794 22.9471 61.9607 23.0415C62.1247 23.136 62.2275 23.311 62.2275 23.5027L62.2303 39.4357C62.2303 39.6246 62.1303 39.8024 61.9635 39.8969L48.1573 47.8675C48.0739 47.9175 47.9822 47.9425 47.8905 47.9425ZM48.4241 31.779V46.4867L61.1659 39.1301L61.1632 24.4251L48.4241 31.779Z" fill="#F6F7F8"/>
<path d="M103.11 47.9424C103.018 47.9424 102.926 47.9174 102.843 47.8702L89.0368 39.8995C88.8728 39.8051 88.77 39.6301 88.77 39.4384L88.7728 23.5054C88.7728 23.3165 88.8756 23.1387 89.0396 23.0442C89.2035 22.9498 89.4064 22.9498 89.5732 23.0442L103.357 31.001C103.368 31.0065 103.379 31.0121 103.39 31.0204C103.546 31.1177 103.643 31.2899 103.643 31.4733V47.4118C103.643 47.6007 103.543 47.7785 103.377 47.873C103.293 47.9174 103.202 47.9424 103.11 47.9424ZM89.8372 39.13L102.579 46.4866V31.7789L89.8399 24.425L89.8372 39.13Z" fill="#F6F7F8"/>
<path d="M89.3064 55.8993C89.2147 55.8993 89.123 55.8743 89.0396 55.827C88.8756 55.7326 88.7728 55.5575 88.7728 55.3658L88.77 39.4329C88.77 39.244 88.8701 39.0662 89.0368 38.9717C89.2008 38.8773 89.4036 38.8773 89.5704 38.9717L103.374 46.9396C103.538 47.034 103.641 47.2091 103.641 47.4008C103.641 47.5925 103.541 47.7675 103.374 47.8619L89.5704 55.827C89.4898 55.8743 89.3981 55.8993 89.3064 55.8993ZM89.8372 40.3553L89.8399 54.4463L102.045 47.4008L89.8372 40.3553Z" fill="#F6F7F8"/>
<path d="M61.6994 71.8377C61.6077 71.8377 61.516 71.8127 61.4327 71.7655C61.2687 71.671 61.1659 71.496 61.1659 71.3043L61.1631 55.3714C61.1631 55.1825 61.2631 55.0047 61.4299 54.9102C61.5938 54.8157 61.7967 54.8157 61.9634 54.9102L75.7669 62.8781C75.9309 62.9725 76.0337 63.1475 76.0337 63.3392C76.0337 63.5309 75.9336 63.706 75.7669 63.8004L61.9634 71.7655C61.8829 71.8127 61.7911 71.8377 61.6994 71.8377ZM62.2275 56.2937L62.2302 70.3847L74.4357 63.3392L62.2275 56.2937Z" fill="#F6F7F8"/>
<path d="M61.6994 39.9691C61.6077 39.9691 61.516 39.9441 61.4327 39.8969C61.2687 39.8024 61.1659 39.6274 61.1659 39.4357L61.1631 23.5027C61.1631 23.3138 61.2631 23.136 61.4299 23.0415C61.5938 22.9471 61.7967 22.9471 61.9634 23.0415L75.7669 31.0094C75.9309 31.1039 76.0337 31.2789 76.0337 31.4706C76.0337 31.6623 75.9336 31.8373 75.7669 31.9318L61.9634 39.8969C61.8829 39.9469 61.7911 39.9691 61.6994 39.9691ZM62.2275 24.4251L62.2302 38.5161L74.4357 31.4706L62.2275 24.4251Z" fill="#F6F7F8"/>
<path d="M89.3033 39.969C89.2116 39.969 89.1199 39.944 89.0365 39.8968L75.2331 31.9317C75.0691 31.8372 74.9663 31.6622 74.9663 31.4705C74.9663 31.2788 75.0664 31.1038 75.2331 31.0093L89.0365 23.0442C89.2005 22.9498 89.4034 22.9498 89.5701 23.0442C89.7341 23.1387 89.8369 23.3137 89.8369 23.5054L89.8397 39.4384C89.8397 39.6273 89.7396 39.8051 89.5729 39.8995C89.4895 39.9468 89.3978 39.969 89.3033 39.969ZM76.5643 31.4705L88.7725 38.516L88.7698 24.425L76.5643 31.4705Z" fill="#F6F7F8"/>
<path d="M61.6969 55.9049C61.6052 55.9049 61.5135 55.8799 61.4301 55.8326L47.6267 47.8648C47.4627 47.7703 47.3599 47.5953 47.3599 47.4036C47.3599 47.2119 47.4599 47.0369 47.6267 46.9424L61.4301 38.9773C61.5941 38.8829 61.7969 38.8829 61.9637 38.9773C62.1276 39.0718 62.2305 39.2468 62.2305 39.4385L62.2332 55.3715C62.2332 55.5604 62.1332 55.7382 61.9665 55.8326C61.8803 55.8799 61.7886 55.9049 61.6969 55.9049ZM48.9578 47.4036L61.1661 54.4491L61.1633 40.3581L48.9578 47.4036Z" fill="#F6F7F8"/>
<path d="M75.4972 47.9314C75.4055 47.9314 75.3138 47.9064 75.2304 47.8591L61.4269 39.8968C61.263 39.8024 61.1602 39.6273 61.1602 39.4356C61.1602 39.2467 61.2602 39.0689 61.4269 38.9745L75.2304 31.0038C75.3944 30.9094 75.5972 30.9094 75.764 31.0038L89.5702 38.9772C89.7342 39.0717 89.837 39.2467 89.837 39.4384C89.837 39.6273 89.7342 39.8051 89.5702 39.8996L75.764 47.8619C75.6806 47.9091 75.5889 47.9314 75.4972 47.9314ZM62.7609 39.4356L75.4972 46.784L88.239 39.4384L75.4972 32.0818L62.7609 39.4356Z" fill="#F6F7F8"/>
<path d="M75.4972 79.8C75.4055 79.8 75.3138 79.775 75.2304 79.7278L61.4269 71.7655C61.263 71.671 61.1602 71.496 61.1602 71.3043C61.1602 71.1154 61.2602 70.9376 61.4269 70.8431L75.2304 62.8725C75.3944 62.778 75.5972 62.778 75.764 62.8725L89.5702 70.8459C89.7342 70.9404 89.837 71.1154 89.837 71.3071C89.837 71.496 89.7342 71.6738 89.5702 71.7683L75.764 79.7306C75.6806 79.775 75.5889 79.8 75.4972 79.8ZM62.7609 71.3043L75.4972 78.6526L88.239 71.3043L75.4972 63.9476L62.7609 71.3043Z" fill="#F6F7F8"/>
<path d="M75.4972 31.9984C75.4055 31.9984 75.3138 31.9734 75.2304 31.9261L61.4269 23.9638C61.263 23.8694 61.1602 23.6944 61.1602 23.5027C61.1602 23.3137 61.2602 23.1359 61.4269 23.0415L75.2304 15.0708C75.3944 14.9764 75.5972 14.9764 75.764 15.0708L89.5702 23.0443C89.7342 23.1387 89.837 23.3137 89.837 23.5054C89.837 23.6944 89.7342 23.8722 89.5702 23.9666L75.764 31.9289C75.6806 31.9734 75.5889 31.9984 75.4972 31.9984ZM62.7609 23.5027L75.4972 30.851L88.239 23.5027L75.4972 16.146L62.7609 23.5027Z" fill="#F6F7F8"/>
<path d="M41.3895 100.388C41.3895 101.139 41.2705 101.83 41.0325 102.46C40.7945 103.085 40.4585 103.624 40.0245 104.077C39.5905 104.53 39.0678 104.882 38.4565 105.134C37.8498 105.381 37.1778 105.505 36.4405 105.505C35.7032 105.505 35.0312 105.381 34.4245 105.134C33.8178 104.882 33.2975 104.53 32.8635 104.077C32.4295 103.624 32.0935 103.085 31.8555 102.46C31.6175 101.83 31.4985 101.139 31.4985 100.388C31.4985 99.6367 31.6175 98.9484 31.8555 98.323C32.0935 97.693 32.4295 97.1517 32.8635 96.699C33.2975 96.2417 33.8178 95.887 34.4245 95.635C35.0312 95.383 35.7032 95.257 36.4405 95.257C37.1778 95.257 37.8498 95.383 38.4565 95.635C39.0678 95.887 39.5905 96.2417 40.0245 96.699C40.4585 97.1517 40.7945 97.693 41.0325 98.323C41.2705 98.9484 41.3895 99.6367 41.3895 100.388ZM39.9965 100.388C39.9965 99.772 39.9125 99.219 39.7445 98.729C39.5765 98.239 39.3385 97.826 39.0305 97.49C38.7225 97.1494 38.3492 96.888 37.9105 96.706C37.4718 96.524 36.9818 96.433 36.4405 96.433C35.9038 96.433 35.4162 96.524 34.9775 96.706C34.5388 96.888 34.1632 97.1494 33.8505 97.49C33.5425 97.826 33.3045 98.239 33.1365 98.729C32.9685 99.219 32.8845 99.772 32.8845 100.388C32.8845 101.004 32.9685 101.557 33.1365 102.047C33.3045 102.532 33.5425 102.945 33.8505 103.286C34.1632 103.622 34.5388 103.881 34.9775 104.063C35.4162 104.24 35.9038 104.329 36.4405 104.329C36.9818 104.329 37.4718 104.24 37.9105 104.063C38.3492 103.881 38.7225 103.622 39.0305 103.286C39.3385 102.945 39.5765 102.532 39.7445 102.047C39.9125 101.557 39.9965 101.004 39.9965 100.388ZM44.7334 101.214V105.4H43.3824V95.369H46.2174C46.8521 95.369 47.4004 95.4344 47.8624 95.565C48.3244 95.691 48.7047 95.8754 49.0034 96.118C49.3067 96.3607 49.5307 96.6547 49.6754 97C49.8201 97.3407 49.8924 97.7234 49.8924 98.148C49.8924 98.5027 49.8364 98.834 49.7244 99.142C49.6124 99.45 49.4491 99.7277 49.2344 99.975C49.0244 100.218 48.7654 100.425 48.4574 100.598C48.1541 100.771 47.8087 100.901 47.4214 100.99C47.5894 101.088 47.7387 101.23 47.8694 101.417L50.7954 105.4H49.5914C49.3441 105.4 49.1621 105.304 49.0454 105.113L46.4414 101.529C46.3621 101.417 46.2757 101.338 46.1824 101.291C46.0891 101.24 45.9491 101.214 45.7624 101.214H44.7334ZM44.7334 100.227H46.1544C46.5511 100.227 46.8987 100.18 47.1974 100.087C47.5007 99.989 47.7527 99.8537 47.9534 99.681C48.1587 99.5037 48.3127 99.2937 48.4154 99.051C48.5181 98.8084 48.5694 98.54 48.5694 98.246C48.5694 97.6487 48.3711 97.1984 47.9744 96.895C47.5824 96.5917 46.9967 96.44 46.2174 96.44H44.7334V100.227ZM55.2071 107.129C55.2351 107.129 55.2677 107.136 55.3051 107.15C55.3424 107.169 55.3867 107.187 55.4381 107.206C55.4894 107.229 55.5524 107.248 55.6271 107.262C55.7017 107.281 55.7881 107.29 55.8861 107.29C56.0821 107.29 56.2291 107.25 56.3271 107.171C56.4297 107.096 56.4811 106.998 56.4811 106.877C56.4811 106.788 56.4554 106.714 56.4041 106.653C56.3527 106.592 56.2781 106.541 56.1801 106.499C56.0867 106.457 55.9701 106.422 55.8301 106.394C55.6901 106.366 55.5314 106.34 55.3541 106.317L55.6061 105.491C54.9574 105.435 54.3694 105.272 53.8421 105.001C53.3147 104.726 52.8644 104.366 52.4911 103.923C52.1224 103.475 51.8377 102.952 51.6371 102.355C51.4364 101.758 51.3361 101.102 51.3361 100.388C51.3361 99.632 51.4574 98.939 51.7001 98.309C51.9474 97.679 52.2927 97.1377 52.7361 96.685C53.1794 96.2324 53.7091 95.8824 54.3251 95.635C54.9457 95.383 55.6294 95.257 56.3761 95.257C57.1134 95.257 57.7481 95.3714 58.2801 95.6C58.8167 95.8287 59.2927 96.139 59.7081 96.531L59.2671 97.154C59.2344 97.2007 59.1971 97.2404 59.1551 97.273C59.1131 97.301 59.0524 97.315 58.9731 97.315C58.9124 97.315 58.8471 97.294 58.7771 97.252C58.7117 97.2054 58.6324 97.1494 58.5391 97.084C58.4457 97.0187 58.3361 96.9487 58.2101 96.874C58.0841 96.7994 57.9347 96.7294 57.7621 96.664C57.5894 96.5987 57.3887 96.545 57.1601 96.503C56.9314 96.4564 56.6677 96.433 56.3691 96.433C55.8324 96.433 55.3401 96.5264 54.8921 96.713C54.4487 96.895 54.0661 97.1564 53.7441 97.497C53.4221 97.8377 53.1701 98.253 52.9881 98.743C52.8107 99.233 52.7221 99.7814 52.7221 100.388C52.7221 101.013 52.8107 101.571 52.9881 102.061C53.1701 102.551 53.4151 102.966 53.7231 103.307C54.0357 103.643 54.4044 103.9 54.8291 104.077C55.2537 104.254 55.7111 104.343 56.2011 104.343C56.4997 104.343 56.7681 104.327 57.0061 104.294C57.2441 104.257 57.4634 104.201 57.6641 104.126C57.8694 104.051 58.0584 103.958 58.2311 103.846C58.4084 103.729 58.5857 103.592 58.7631 103.433C58.8424 103.363 58.9194 103.328 58.9941 103.328C59.0687 103.328 59.1364 103.358 59.1971 103.419L59.7291 104C59.3417 104.453 58.8751 104.81 58.3291 105.071C57.7877 105.332 57.1391 105.477 56.3831 105.505L56.2711 105.89C56.6911 105.983 56.9944 106.109 57.1811 106.268C57.3724 106.431 57.4681 106.639 57.4681 106.891C57.4681 107.04 57.4307 107.173 57.3561 107.29C57.2814 107.411 57.1764 107.514 57.0411 107.598C56.9104 107.682 56.7517 107.745 56.5651 107.787C56.3784 107.834 56.1731 107.857 55.9491 107.857C55.7577 107.857 55.5757 107.836 55.4031 107.794C55.2304 107.757 55.0717 107.705 54.9271 107.64L55.0461 107.255C55.0741 107.171 55.1277 107.129 55.2071 107.129ZM69.761 105.4H68.711C68.5897 105.4 68.4917 105.37 68.417 105.309C68.3424 105.248 68.2864 105.171 68.249 105.078L67.311 102.656H62.81L61.872 105.078C61.8394 105.162 61.7834 105.237 61.704 105.302C61.6247 105.367 61.5267 105.4 61.41 105.4H60.36L64.371 95.369H65.75L69.761 105.4ZM63.188 101.676H66.933L65.358 97.595C65.2554 97.343 65.155 97.028 65.057 96.65C65.0057 96.8414 64.9544 97.0187 64.903 97.182C64.8564 97.3407 64.8097 97.4807 64.763 97.602L63.188 101.676ZM75.9587 101.774C76.024 101.886 76.08 102.005 76.1267 102.131C76.178 102.252 76.227 102.376 76.2737 102.502C76.3203 102.371 76.3693 102.248 76.4207 102.131C76.472 102.01 76.5303 101.888 76.5957 101.767L79.9907 95.6C80.0513 95.4927 80.1143 95.4274 80.1797 95.404C80.245 95.3807 80.3383 95.369 80.4597 95.369H81.4607V105.4H80.2707V98.029C80.2707 97.931 80.273 97.826 80.2777 97.714C80.2823 97.602 80.2893 97.4877 80.2987 97.371L76.8617 103.643C76.745 103.853 76.5817 103.958 76.3717 103.958H76.1757C75.9657 103.958 75.8023 103.853 75.6857 103.643L72.1717 97.35C72.1857 97.4714 72.195 97.5904 72.1997 97.707C72.209 97.8237 72.2137 97.931 72.2137 98.029V105.4H71.0237V95.369H72.0247C72.146 95.369 72.2393 95.3807 72.3047 95.404C72.37 95.4274 72.433 95.4927 72.4937 95.6L75.9587 101.774ZM90.0836 95.369V96.475H85.2676V99.807H89.1666V100.871H85.2676V104.294H90.0836V105.4H83.9026V95.369H90.0836ZM92.7373 95.369C92.8587 95.369 92.9473 95.3854 93.0033 95.418C93.064 95.446 93.1317 95.5067 93.2063 95.6L99.0163 103.16C99.0023 103.039 98.993 102.922 98.9883 102.81C98.9837 102.693 98.9813 102.581 98.9813 102.474V95.369H100.171V105.4H99.4853C99.378 105.4 99.287 105.381 99.2123 105.344C99.1423 105.307 99.0723 105.244 99.0023 105.155L93.1993 97.602C93.2087 97.7187 93.2157 97.833 93.2203 97.945C93.225 98.057 93.2273 98.1597 93.2273 98.253V105.4H92.0373V95.369H92.7373ZM109.451 95.369V96.51H106.21V105.4H104.852V96.51H101.597V95.369H109.451ZM119.511 100.388C119.511 101.139 119.392 101.83 119.154 102.46C118.916 103.085 118.58 103.624 118.146 104.077C117.712 104.53 117.189 104.882 116.578 105.134C115.971 105.381 115.299 105.505 114.562 105.505C113.824 105.505 113.152 105.381 112.546 105.134C111.939 104.882 111.419 104.53 110.985 104.077C110.551 103.624 110.215 103.085 109.977 102.46C109.739 101.83 109.62 101.139 109.62 100.388C109.62 99.6367 109.739 98.9484 109.977 98.323C110.215 97.693 110.551 97.1517 110.985 96.699C111.419 96.2417 111.939 95.887 112.546 95.635C113.152 95.383 113.824 95.257 114.562 95.257C115.299 95.257 115.971 95.383 116.578 95.635C117.189 95.887 117.712 96.2417 118.146 96.699C118.58 97.1517 118.916 97.693 119.154 98.323C119.392 98.9484 119.511 99.6367 119.511 100.388ZM118.118 100.388C118.118 99.772 118.034 99.219 117.866 98.729C117.698 98.239 117.46 97.826 117.152 97.49C116.844 97.1494 116.47 96.888 116.032 96.706C115.593 96.524 115.103 96.433 114.562 96.433C114.025 96.433 113.537 96.524 113.099 96.706C112.66 96.888 112.284 97.1494 111.972 97.49C111.664 97.826 111.426 98.239 111.258 98.729C111.09 99.219 111.006 99.772 111.006 100.388C111.006 101.004 111.09 101.557 111.258 102.047C111.426 102.532 111.664 102.945 111.972 103.286C112.284 103.622 112.66 103.881 113.099 104.063C113.537 104.24 114.025 104.329 114.562 104.329C115.103 104.329 115.593 104.24 116.032 104.063C116.47 103.881 116.844 103.622 117.152 103.286C117.46 102.945 117.698 102.532 117.866 102.047C118.034 101.557 118.118 101.004 118.118 100.388Z" fill="#F6F7F8"/>
</svg>
