<svg width="151" height="130" viewBox="0 0 151 130" fill="none" xmlns="http://www.w3.org/2000/svg">
<rect width="151" height="130" rx="15" fill="#B8623E"/>
<path d="M89.3033 71.8321C89.2116 71.8321 89.1199 71.8071 89.0365 71.7599L75.2331 63.792C75.0691 63.6976 74.9663 63.5225 74.9663 63.3308C74.9663 63.1392 75.0664 62.9641 75.2331 62.8697L89.0365 54.9046C89.2005 54.8101 89.4034 54.8101 89.5701 54.9046C89.7341 54.999 89.8369 55.1741 89.8369 55.3658L89.8397 71.2987C89.8397 71.4876 89.7396 71.6654 89.5729 71.7599C89.4895 71.8099 89.3978 71.8321 89.3033 71.8321ZM76.5643 63.3336L88.7725 70.3791L88.7698 56.2881L76.5643 63.3336Z" fill="#F6F7F8"/>
<path d="M75.5 63.8699C75.4083 63.8699 75.3165 63.8449 75.2332 63.7977L61.4269 55.827C61.263 55.7326 61.1602 55.5575 61.1602 55.3658L61.1629 39.4329C61.1629 39.244 61.2658 39.0662 61.4297 38.9717C61.5937 38.8773 61.7966 38.8773 61.9633 38.9717L75.7667 46.9396C75.9307 47.034 76.0335 47.2091 76.0335 47.4008V63.3393C76.0335 63.5282 75.9335 63.706 75.7667 63.8004C75.6834 63.8477 75.5917 63.8699 75.5 63.8699ZM62.2273 55.0602L74.9692 62.4169V47.7091L62.2301 40.3553L62.2273 55.0602Z" fill="#F6F7F8"/>
<path d="M61.6967 71.8321C61.605 71.8321 61.5133 71.807 61.4299 71.7598L47.6237 63.7892C47.4598 63.6947 47.3569 63.5197 47.3569 63.328L47.3597 47.3951C47.3597 47.2061 47.4625 47.0283 47.6265 46.9339C47.7905 46.8394 47.9933 46.8394 48.1601 46.9339L61.9441 54.8906C61.9552 54.8962 61.9663 54.9017 61.9774 54.9101C62.133 55.0073 62.2303 55.1796 62.2303 55.3629V71.3014C62.2303 71.4903 62.1303 71.6681 61.9635 71.7626C61.8801 71.8098 61.7884 71.8321 61.6967 71.8321ZM48.4241 63.0224L61.1659 70.3791V55.6713L48.4269 48.3174L48.4241 63.0224Z" fill="#F6F7F8"/>
<path d="M75.4999 63.8697C75.4082 63.8697 75.3165 63.8447 75.2331 63.7975C75.0691 63.7031 74.9663 63.528 74.9663 63.3363V47.3978C74.9663 47.2145 75.0608 47.0422 75.2192 46.945C75.2303 46.9394 75.2414 46.9311 75.2525 46.9255L89.0365 38.9688C89.2005 38.8743 89.4034 38.8743 89.5701 38.9688C89.7341 39.0633 89.8369 39.2383 89.8369 39.43L89.8397 55.3629C89.8397 55.5518 89.7396 55.7296 89.5729 55.8241L75.7667 63.7947C75.6833 63.8475 75.5916 63.8697 75.4999 63.8697ZM76.0307 47.7062V62.414L88.7725 55.0573L88.7698 40.3523L76.0307 47.7062Z" fill="#F6F7F8"/>
<path d="M89.3036 71.8322C89.2119 71.8322 89.1202 71.8071 89.0368 71.7599C88.8728 71.6655 88.77 71.4904 88.77 71.2987V55.3602C88.77 55.1769 88.8645 55.0046 89.0229 54.9074C89.034 54.9018 89.0451 54.8935 89.0563 54.8879L102.84 46.9312C103.004 46.8367 103.207 46.8367 103.374 46.9312C103.538 47.0257 103.641 47.2007 103.641 47.3924L103.643 63.3253C103.643 63.5142 103.543 63.692 103.377 63.7865L89.5704 71.7571C89.487 71.8099 89.3953 71.8322 89.3036 71.8322ZM89.8372 55.6714V70.3792L102.579 63.0225L102.576 48.3175L89.8372 55.6714Z" fill="#F6F7F8"/>
<path d="M47.8905 47.9425C47.7988 47.9425 47.7071 47.9175 47.6237 47.8703C47.4598 47.7758 47.3569 47.6008 47.3569 47.4091V31.4706C47.3569 31.2872 47.4514 31.115 47.6098 31.0177C47.6209 31.0122 47.6321 31.0039 47.6432 30.9983L61.4272 23.0415C61.5911 22.9471 61.794 22.9471 61.9607 23.0415C62.1247 23.136 62.2275 23.311 62.2275 23.5027L62.2303 39.4357C62.2303 39.6246 62.1303 39.8024 61.9635 39.8969L48.1573 47.8675C48.0739 47.9175 47.9822 47.9425 47.8905 47.9425ZM48.4241 31.779V46.4867L61.1659 39.1301L61.1632 24.4251L48.4241 31.779Z" fill="#F6F7F8"/>
<path d="M103.11 47.9424C103.018 47.9424 102.926 47.9174 102.843 47.8702L89.0368 39.8995C88.8728 39.8051 88.77 39.6301 88.77 39.4384L88.7728 23.5054C88.7728 23.3165 88.8756 23.1387 89.0396 23.0442C89.2035 22.9498 89.4064 22.9498 89.5732 23.0442L103.357 31.001C103.368 31.0065 103.379 31.0121 103.39 31.0204C103.546 31.1177 103.643 31.2899 103.643 31.4733V47.4118C103.643 47.6007 103.543 47.7785 103.377 47.873C103.293 47.9174 103.202 47.9424 103.11 47.9424ZM89.8372 39.13L102.579 46.4866V31.7789L89.8399 24.425L89.8372 39.13Z" fill="#F6F7F8"/>
<path d="M89.3064 55.8993C89.2147 55.8993 89.123 55.8743 89.0396 55.827C88.8756 55.7326 88.7728 55.5575 88.7728 55.3658L88.77 39.4329C88.77 39.244 88.8701 39.0662 89.0368 38.9717C89.2008 38.8773 89.4036 38.8773 89.5704 38.9717L103.374 46.9396C103.538 47.034 103.641 47.2091 103.641 47.4008C103.641 47.5925 103.541 47.7675 103.374 47.8619L89.5704 55.827C89.4898 55.8743 89.3981 55.8993 89.3064 55.8993ZM89.8372 40.3553L89.8399 54.4463L102.045 47.4008L89.8372 40.3553Z" fill="#F6F7F8"/>
<path d="M61.6994 71.8377C61.6077 71.8377 61.516 71.8127 61.4327 71.7655C61.2687 71.671 61.1659 71.496 61.1659 71.3043L61.1631 55.3714C61.1631 55.1825 61.2631 55.0047 61.4299 54.9102C61.5938 54.8157 61.7967 54.8157 61.9634 54.9102L75.7669 62.8781C75.9309 62.9725 76.0337 63.1475 76.0337 63.3392C76.0337 63.5309 75.9336 63.706 75.7669 63.8004L61.9634 71.7655C61.8829 71.8127 61.7911 71.8377 61.6994 71.8377ZM62.2275 56.2937L62.2302 70.3847L74.4357 63.3392L62.2275 56.2937Z" fill="#F6F7F8"/>
<path d="M61.6994 39.9691C61.6077 39.9691 61.516 39.9441 61.4327 39.8969C61.2687 39.8024 61.1659 39.6274 61.1659 39.4357L61.1631 23.5027C61.1631 23.3138 61.2631 23.136 61.4299 23.0415C61.5938 22.9471 61.7967 22.9471 61.9634 23.0415L75.7669 31.0094C75.9309 31.1039 76.0337 31.2789 76.0337 31.4706C76.0337 31.6623 75.9336 31.8373 75.7669 31.9318L61.9634 39.8969C61.8829 39.9469 61.7911 39.9691 61.6994 39.9691ZM62.2275 24.4251L62.2302 38.5161L74.4357 31.4706L62.2275 24.4251Z" fill="#F6F7F8"/>
<path d="M89.3033 39.969C89.2116 39.969 89.1199 39.944 89.0365 39.8968L75.2331 31.9317C75.0691 31.8372 74.9663 31.6622 74.9663 31.4705C74.9663 31.2788 75.0664 31.1038 75.2331 31.0093L89.0365 23.0442C89.2005 22.9498 89.4034 22.9498 89.5701 23.0442C89.7341 23.1387 89.8369 23.3137 89.8369 23.5054L89.8397 39.4384C89.8397 39.6273 89.7396 39.8051 89.5729 39.8995C89.4895 39.9468 89.3978 39.969 89.3033 39.969ZM76.5643 31.4705L88.7725 38.516L88.7698 24.425L76.5643 31.4705Z" fill="#F6F7F8"/>
<path d="M61.6969 55.9049C61.6052 55.9049 61.5135 55.8799 61.4301 55.8326L47.6267 47.8648C47.4627 47.7703 47.3599 47.5953 47.3599 47.4036C47.3599 47.2119 47.4599 47.0369 47.6267 46.9424L61.4301 38.9773C61.5941 38.8829 61.7969 38.8829 61.9637 38.9773C62.1276 39.0718 62.2305 39.2468 62.2305 39.4385L62.2332 55.3715C62.2332 55.5604 62.1332 55.7382 61.9665 55.8326C61.8803 55.8799 61.7886 55.9049 61.6969 55.9049ZM48.9578 47.4036L61.1661 54.4491L61.1633 40.3581L48.9578 47.4036Z" fill="#F6F7F8"/>
<path d="M75.4972 47.9314C75.4055 47.9314 75.3138 47.9064 75.2304 47.8591L61.4269 39.8968C61.263 39.8024 61.1602 39.6273 61.1602 39.4356C61.1602 39.2467 61.2602 39.0689 61.4269 38.9745L75.2304 31.0038C75.3944 30.9094 75.5972 30.9094 75.764 31.0038L89.5702 38.9772C89.7342 39.0717 89.837 39.2467 89.837 39.4384C89.837 39.6273 89.7342 39.8051 89.5702 39.8996L75.764 47.8619C75.6806 47.9091 75.5889 47.9314 75.4972 47.9314ZM62.7609 39.4356L75.4972 46.784L88.239 39.4384L75.4972 32.0818L62.7609 39.4356Z" fill="#F6F7F8"/>
<path d="M75.4972 79.8C75.4055 79.8 75.3138 79.775 75.2304 79.7278L61.4269 71.7655C61.263 71.671 61.1602 71.496 61.1602 71.3043C61.1602 71.1154 61.2602 70.9376 61.4269 70.8431L75.2304 62.8725C75.3944 62.778 75.5972 62.778 75.764 62.8725L89.5702 70.8459C89.7342 70.9404 89.837 71.1154 89.837 71.3071C89.837 71.496 89.7342 71.6738 89.5702 71.7683L75.764 79.7306C75.6806 79.775 75.5889 79.8 75.4972 79.8ZM62.7609 71.3043L75.4972 78.6526L88.239 71.3043L75.4972 63.9476L62.7609 71.3043Z" fill="#F6F7F8"/>
<path d="M75.4972 31.9984C75.4055 31.9984 75.3138 31.9734 75.2304 31.9261L61.4269 23.9638C61.263 23.8694 61.1602 23.6944 61.1602 23.5027C61.1602 23.3137 61.2602 23.1359 61.4269 23.0415L75.2304 15.0708C75.3944 14.9764 75.5972 14.9764 75.764 15.0708L89.5702 23.0443C89.7342 23.1387 89.837 23.3137 89.837 23.5054C89.837 23.6944 89.7342 23.8722 89.5702 23.9666L75.764 31.9289C75.6806 31.9734 75.5889 31.9984 75.4972 31.9984ZM62.7609 23.5027L75.4972 30.851L88.239 23.5027L75.4972 16.146L62.7609 23.5027Z" fill="#F6F7F8"/>
<path d="M36.1356 100.57C36.5229 100.57 36.8636 100.519 37.1576 100.416C37.4562 100.313 37.7059 100.171 37.9066 99.989C38.1119 99.8024 38.2659 99.5807 38.3686 99.324C38.4712 99.0674 38.5226 98.785 38.5226 98.477C38.5226 97.8377 38.3242 97.3384 37.9276 96.979C37.5356 96.6197 36.9382 96.44 36.1356 96.44H34.5256V100.57H36.1356ZM36.1356 95.369C36.7702 95.369 37.3209 95.4437 37.7876 95.593C38.2589 95.7377 38.6486 95.9454 38.9566 96.216C39.2646 96.4867 39.4932 96.8134 39.6426 97.196C39.7966 97.5787 39.8736 98.0057 39.8736 98.477C39.8736 98.9437 39.7919 99.3707 39.6286 99.758C39.4652 100.145 39.2249 100.479 38.9076 100.759C38.5949 101.039 38.2052 101.258 37.7386 101.417C37.2766 101.571 36.7422 101.648 36.1356 101.648H34.5256V105.4H33.1746V95.369H36.1356ZM46.2125 101.676L44.6375 97.595C44.5908 97.4737 44.5418 97.3337 44.4905 97.175C44.4392 97.0117 44.3902 96.839 44.3435 96.657C44.2455 97.035 44.1452 97.35 44.0425 97.602L42.4675 101.676H46.2125ZM49.0405 105.4H47.9905C47.8692 105.4 47.7712 105.37 47.6965 105.309C47.6218 105.248 47.5658 105.171 47.5285 105.078L46.5905 102.656H42.0895L41.1515 105.078C41.1235 105.162 41.0698 105.237 40.9905 105.302C40.9112 105.367 40.8132 105.4 40.6965 105.4H39.6465L43.6575 95.369H45.0295L49.0405 105.4ZM56.1587 96.51H52.9107V105.4H51.5597V96.51H48.3047V95.369H56.1587V96.51ZM60.4262 100.227C60.8182 100.227 61.1635 100.18 61.4622 100.087C61.7655 99.989 62.0175 99.8537 62.2182 99.681C62.4235 99.5037 62.5775 99.2937 62.6802 99.051C62.7829 98.8084 62.8342 98.54 62.8342 98.246C62.8342 97.6487 62.6382 97.1984 62.2462 96.895C61.8542 96.5917 61.2662 96.44 60.4822 96.44H58.9982V100.227H60.4262ZM65.0602 105.4H63.8562C63.6089 105.4 63.4269 105.304 63.3102 105.113L60.7062 101.529C60.6269 101.417 60.5405 101.338 60.4472 101.291C60.3585 101.24 60.2185 101.214 60.0272 101.214H58.9982V105.4H57.6472V95.369H60.4822C61.1169 95.369 61.6652 95.4344 62.1272 95.565C62.5892 95.691 62.9695 95.8754 63.2682 96.118C63.5715 96.3607 63.7955 96.6547 63.9402 97C64.0849 97.3407 64.1572 97.7234 64.1572 98.148C64.1572 98.5027 64.1012 98.834 63.9892 99.142C63.8772 99.45 63.7139 99.7277 63.4992 99.975C63.2892 100.218 63.0302 100.425 62.7222 100.598C62.4189 100.771 62.0735 100.901 61.6862 100.99C61.8589 101.088 62.0082 101.23 62.1342 101.417L65.0602 105.4ZM67.7826 105.4H66.4246V95.369H67.7826V105.4ZM80.7854 95.369V105.4H79.5954V98.029C79.5954 97.931 79.5977 97.826 79.6024 97.714C79.6117 97.602 79.6211 97.4877 79.6304 97.371L76.1864 103.643C76.079 103.853 75.9157 103.958 75.6964 103.958H75.5004C75.281 103.958 75.1177 103.853 75.0104 103.643L71.4964 97.343C71.5244 97.5904 71.5384 97.819 71.5384 98.029V105.4H70.3484V95.369H71.3494C71.4707 95.369 71.564 95.3807 71.6294 95.404C71.6947 95.4274 71.7577 95.4927 71.8184 95.6L75.2834 101.774C75.3394 101.886 75.393 102.003 75.4444 102.124C75.5004 102.245 75.5517 102.369 75.5984 102.495C75.645 102.369 75.694 102.245 75.7454 102.124C75.7967 101.998 75.8527 101.879 75.9134 101.767L79.3154 95.6C79.3714 95.4927 79.4321 95.4274 79.4974 95.404C79.5674 95.3807 79.6631 95.369 79.7844 95.369H80.7854ZM92.6183 100.388C92.6183 101.139 92.4993 101.83 92.2613 102.46C92.0233 103.085 91.6873 103.624 91.2533 104.077C90.8193 104.53 90.2967 104.882 89.6853 105.134C89.0787 105.381 88.4067 105.505 87.6693 105.505C86.932 105.505 86.26 105.381 85.6533 105.134C85.0467 104.882 84.5263 104.53 84.0923 104.077C83.6583 103.624 83.3223 103.085 83.0843 102.46C82.8463 101.83 82.7273 101.139 82.7273 100.388C82.7273 99.6367 82.8463 98.9484 83.0843 98.323C83.3223 97.693 83.6583 97.1517 84.0923 96.699C84.5263 96.2417 85.0467 95.887 85.6533 95.635C86.26 95.383 86.932 95.257 87.6693 95.257C88.4067 95.257 89.0787 95.383 89.6853 95.635C90.2967 95.887 90.8193 96.2417 91.2533 96.699C91.6873 97.1517 92.0233 97.693 92.2613 98.323C92.4993 98.9484 92.6183 99.6367 92.6183 100.388ZM91.2253 100.388C91.2253 99.772 91.1413 99.219 90.9733 98.729C90.8053 98.239 90.5673 97.826 90.2593 97.49C89.9513 97.1494 89.578 96.888 89.1393 96.706C88.7007 96.524 88.2107 96.433 87.6693 96.433C87.1327 96.433 86.645 96.524 86.2063 96.706C85.7677 96.888 85.392 97.1494 85.0793 97.49C84.7713 97.826 84.5333 98.239 84.3653 98.729C84.1973 99.219 84.1133 99.772 84.1133 100.388C84.1133 101.004 84.1973 101.557 84.3653 102.047C84.5333 102.532 84.7713 102.945 85.0793 103.286C85.392 103.622 85.7677 103.881 86.2063 104.063C86.645 104.24 87.1327 104.329 87.6693 104.329C88.2107 104.329 88.7007 104.24 89.1393 104.063C89.578 103.881 89.9513 103.622 90.2593 103.286C90.5673 102.945 90.8053 102.532 90.9733 102.047C91.1413 101.557 91.2253 101.004 91.2253 100.388ZM89.9303 94.578H89.0203C88.9643 94.578 88.8967 94.5687 88.8173 94.55C88.7427 94.5267 88.6657 94.4684 88.5863 94.375L87.7673 93.388L87.6833 93.262L87.5993 93.388L86.7803 94.375C86.701 94.4684 86.6217 94.5267 86.5423 94.55C86.4677 94.5687 86.4023 94.578 86.3463 94.578H85.4713L87.1443 92.681H88.2643L89.9303 94.578ZM102.688 95.369V105.4H102.009C101.902 105.4 101.811 105.381 101.736 105.344C101.666 105.307 101.596 105.244 101.526 105.155L95.7233 97.595C95.7326 97.7117 95.7396 97.826 95.7443 97.938C95.7489 98.05 95.7513 98.155 95.7513 98.253V105.4H94.5613V95.369H95.2613C95.3219 95.369 95.3733 95.3737 95.4153 95.383C95.4573 95.3877 95.4946 95.3994 95.5273 95.418C95.5599 95.432 95.5926 95.4554 95.6253 95.488C95.6579 95.516 95.6929 95.5534 95.7303 95.6L101.533 103.153C101.524 103.032 101.515 102.915 101.505 102.803C101.501 102.686 101.498 102.577 101.498 102.474V95.369H102.688ZM106.611 105.4H105.253V95.369H106.611V105.4ZM118.445 100.388C118.445 101.139 118.326 101.83 118.088 102.46C117.85 103.085 117.514 103.624 117.08 104.077C116.646 104.53 116.123 104.882 115.512 105.134C114.905 105.381 114.233 105.505 113.496 105.505C112.758 105.505 112.086 105.381 111.48 105.134C110.873 104.882 110.353 104.53 109.919 104.077C109.485 103.624 109.149 103.085 108.911 102.46C108.673 101.83 108.554 101.139 108.554 100.388C108.554 99.6367 108.673 98.9484 108.911 98.323C109.149 97.693 109.485 97.1517 109.919 96.699C110.353 96.2417 110.873 95.887 111.48 95.635C112.086 95.383 112.758 95.257 113.496 95.257C114.233 95.257 114.905 95.383 115.512 95.635C116.123 95.887 116.646 96.2417 117.08 96.699C117.514 97.1517 117.85 97.693 118.088 98.323C118.326 98.9484 118.445 99.6367 118.445 100.388ZM117.052 100.388C117.052 99.772 116.968 99.219 116.8 98.729C116.632 98.239 116.394 97.826 116.086 97.49C115.778 97.1494 115.404 96.888 114.966 96.706C114.527 96.524 114.037 96.433 113.496 96.433C112.959 96.433 112.471 96.524 112.033 96.706C111.594 96.888 111.218 97.1494 110.906 97.49C110.598 97.826 110.36 98.239 110.192 98.729C110.024 99.219 109.94 99.772 109.94 100.388C109.94 101.004 110.024 101.557 110.192 102.047C110.36 102.532 110.598 102.945 110.906 103.286C111.218 103.622 111.594 103.881 112.033 104.063C112.471 104.24 112.959 104.329 113.496 104.329C114.037 104.329 114.527 104.24 114.966 104.063C115.404 103.881 115.778 103.622 116.086 103.286C116.394 102.945 116.632 102.532 116.8 102.047C116.968 101.557 117.052 101.004 117.052 100.388Z" fill="#F6F7F8"/>
</svg>
