<svg width="151" height="130" viewBox="0 0 151 130" fill="none" xmlns="http://www.w3.org/2000/svg">
<rect width="151" height="130" rx="15" fill="#FAA129"/>
<path d="M89.3033 71.8321C89.2116 71.8321 89.1199 71.8071 89.0365 71.7599L75.2331 63.792C75.0691 63.6976 74.9663 63.5225 74.9663 63.3308C74.9663 63.1392 75.0664 62.9641 75.2331 62.8697L89.0365 54.9046C89.2005 54.8101 89.4034 54.8101 89.5701 54.9046C89.7341 54.999 89.8369 55.1741 89.8369 55.3658L89.8397 71.2987C89.8397 71.4876 89.7396 71.6654 89.5729 71.7599C89.4895 71.8099 89.3978 71.8321 89.3033 71.8321ZM76.5643 63.3336L88.7725 70.3791L88.7698 56.2881L76.5643 63.3336Z" fill="#F6F7F8"/>
<path d="M75.5 63.8699C75.4083 63.8699 75.3165 63.8449 75.2332 63.7977L61.4269 55.827C61.263 55.7326 61.1602 55.5575 61.1602 55.3658L61.1629 39.4329C61.1629 39.244 61.2658 39.0662 61.4297 38.9717C61.5937 38.8773 61.7966 38.8773 61.9633 38.9717L75.7667 46.9396C75.9307 47.034 76.0335 47.2091 76.0335 47.4008V63.3393C76.0335 63.5282 75.9335 63.706 75.7667 63.8004C75.6834 63.8477 75.5917 63.8699 75.5 63.8699ZM62.2273 55.0602L74.9692 62.4169V47.7091L62.2301 40.3553L62.2273 55.0602Z" fill="#F6F7F8"/>
<path d="M61.6967 71.8321C61.605 71.8321 61.5133 71.807 61.4299 71.7598L47.6237 63.7892C47.4598 63.6947 47.3569 63.5197 47.3569 63.328L47.3597 47.3951C47.3597 47.2061 47.4625 47.0283 47.6265 46.9339C47.7905 46.8394 47.9933 46.8394 48.1601 46.9339L61.9441 54.8906C61.9552 54.8962 61.9663 54.9017 61.9774 54.9101C62.133 55.0073 62.2303 55.1796 62.2303 55.3629V71.3014C62.2303 71.4903 62.1303 71.6681 61.9635 71.7626C61.8801 71.8098 61.7884 71.8321 61.6967 71.8321ZM48.4241 63.0224L61.1659 70.3791V55.6713L48.4269 48.3174L48.4241 63.0224Z" fill="#F6F7F8"/>
<path d="M75.4999 63.8697C75.4082 63.8697 75.3165 63.8447 75.2331 63.7975C75.0691 63.7031 74.9663 63.528 74.9663 63.3363V47.3978C74.9663 47.2145 75.0608 47.0422 75.2192 46.945C75.2303 46.9394 75.2414 46.9311 75.2525 46.9255L89.0365 38.9688C89.2005 38.8743 89.4034 38.8743 89.5701 38.9688C89.7341 39.0633 89.8369 39.2383 89.8369 39.43L89.8397 55.3629C89.8397 55.5518 89.7396 55.7296 89.5729 55.8241L75.7667 63.7947C75.6833 63.8475 75.5916 63.8697 75.4999 63.8697ZM76.0307 47.7062V62.414L88.7725 55.0573L88.7698 40.3523L76.0307 47.7062Z" fill="#F6F7F8"/>
<path d="M89.3036 71.8322C89.2119 71.8322 89.1202 71.8071 89.0368 71.7599C88.8728 71.6655 88.77 71.4904 88.77 71.2987V55.3602C88.77 55.1769 88.8645 55.0046 89.0229 54.9074C89.034 54.9018 89.0451 54.8935 89.0563 54.8879L102.84 46.9312C103.004 46.8367 103.207 46.8367 103.374 46.9312C103.538 47.0257 103.641 47.2007 103.641 47.3924L103.643 63.3253C103.643 63.5142 103.543 63.692 103.377 63.7865L89.5704 71.7571C89.487 71.8099 89.3953 71.8322 89.3036 71.8322ZM89.8372 55.6714V70.3792L102.579 63.0225L102.576 48.3175L89.8372 55.6714Z" fill="#F6F7F8"/>
<path d="M47.8905 47.9425C47.7988 47.9425 47.7071 47.9175 47.6237 47.8703C47.4598 47.7758 47.3569 47.6008 47.3569 47.4091V31.4706C47.3569 31.2872 47.4514 31.115 47.6098 31.0177C47.6209 31.0122 47.6321 31.0039 47.6432 30.9983L61.4272 23.0415C61.5911 22.9471 61.794 22.9471 61.9607 23.0415C62.1247 23.136 62.2275 23.311 62.2275 23.5027L62.2303 39.4357C62.2303 39.6246 62.1303 39.8024 61.9635 39.8969L48.1573 47.8675C48.0739 47.9175 47.9822 47.9425 47.8905 47.9425ZM48.4241 31.779V46.4867L61.1659 39.1301L61.1632 24.4251L48.4241 31.779Z" fill="#F6F7F8"/>
<path d="M103.11 47.9424C103.018 47.9424 102.926 47.9174 102.843 47.8702L89.0368 39.8995C88.8728 39.8051 88.77 39.6301 88.77 39.4384L88.7728 23.5054C88.7728 23.3165 88.8756 23.1387 89.0396 23.0442C89.2035 22.9498 89.4064 22.9498 89.5732 23.0442L103.357 31.001C103.368 31.0065 103.379 31.0121 103.39 31.0204C103.546 31.1177 103.643 31.2899 103.643 31.4733V47.4118C103.643 47.6007 103.543 47.7785 103.377 47.873C103.293 47.9174 103.202 47.9424 103.11 47.9424ZM89.8372 39.13L102.579 46.4866V31.7789L89.8399 24.425L89.8372 39.13Z" fill="#F6F7F8"/>
<path d="M89.3064 55.8993C89.2147 55.8993 89.123 55.8743 89.0396 55.827C88.8756 55.7326 88.7728 55.5575 88.7728 55.3658L88.77 39.4329C88.77 39.244 88.8701 39.0662 89.0368 38.9717C89.2008 38.8773 89.4036 38.8773 89.5704 38.9717L103.374 46.9396C103.538 47.034 103.641 47.2091 103.641 47.4008C103.641 47.5925 103.541 47.7675 103.374 47.8619L89.5704 55.827C89.4898 55.8743 89.3981 55.8993 89.3064 55.8993ZM89.8372 40.3553L89.8399 54.4463L102.045 47.4008L89.8372 40.3553Z" fill="#F6F7F8"/>
<path d="M61.6994 71.8377C61.6077 71.8377 61.516 71.8127 61.4327 71.7655C61.2687 71.671 61.1659 71.496 61.1659 71.3043L61.1631 55.3714C61.1631 55.1825 61.2631 55.0047 61.4299 54.9102C61.5938 54.8157 61.7967 54.8157 61.9634 54.9102L75.7669 62.8781C75.9309 62.9725 76.0337 63.1475 76.0337 63.3392C76.0337 63.5309 75.9336 63.706 75.7669 63.8004L61.9634 71.7655C61.8829 71.8127 61.7911 71.8377 61.6994 71.8377ZM62.2275 56.2937L62.2302 70.3847L74.4357 63.3392L62.2275 56.2937Z" fill="#F6F7F8"/>
<path d="M61.6994 39.9691C61.6077 39.9691 61.516 39.9441 61.4327 39.8969C61.2687 39.8024 61.1659 39.6274 61.1659 39.4357L61.1631 23.5027C61.1631 23.3138 61.2631 23.136 61.4299 23.0415C61.5938 22.9471 61.7967 22.9471 61.9634 23.0415L75.7669 31.0094C75.9309 31.1039 76.0337 31.2789 76.0337 31.4706C76.0337 31.6623 75.9336 31.8373 75.7669 31.9318L61.9634 39.8969C61.8829 39.9469 61.7911 39.9691 61.6994 39.9691ZM62.2275 24.4251L62.2302 38.5161L74.4357 31.4706L62.2275 24.4251Z" fill="#F6F7F8"/>
<path d="M89.3033 39.969C89.2116 39.969 89.1199 39.944 89.0365 39.8968L75.2331 31.9317C75.0691 31.8372 74.9663 31.6622 74.9663 31.4705C74.9663 31.2788 75.0664 31.1038 75.2331 31.0093L89.0365 23.0442C89.2005 22.9498 89.4034 22.9498 89.5701 23.0442C89.7341 23.1387 89.8369 23.3137 89.8369 23.5054L89.8397 39.4384C89.8397 39.6273 89.7396 39.8051 89.5729 39.8995C89.4895 39.9468 89.3978 39.969 89.3033 39.969ZM76.5643 31.4705L88.7725 38.516L88.7698 24.425L76.5643 31.4705Z" fill="#F6F7F8"/>
<path d="M61.6969 55.9049C61.6052 55.9049 61.5135 55.8799 61.4301 55.8326L47.6267 47.8648C47.4627 47.7703 47.3599 47.5953 47.3599 47.4036C47.3599 47.2119 47.4599 47.0369 47.6267 46.9424L61.4301 38.9773C61.5941 38.8829 61.7969 38.8829 61.9637 38.9773C62.1276 39.0718 62.2305 39.2468 62.2305 39.4385L62.2332 55.3715C62.2332 55.5604 62.1332 55.7382 61.9665 55.8326C61.8803 55.8799 61.7886 55.9049 61.6969 55.9049ZM48.9578 47.4036L61.1661 54.4491L61.1633 40.3581L48.9578 47.4036Z" fill="#F6F7F8"/>
<path d="M75.4972 47.9314C75.4055 47.9314 75.3138 47.9064 75.2304 47.8591L61.4269 39.8968C61.263 39.8024 61.1602 39.6273 61.1602 39.4356C61.1602 39.2467 61.2602 39.0689 61.4269 38.9745L75.2304 31.0038C75.3944 30.9094 75.5972 30.9094 75.764 31.0038L89.5702 38.9772C89.7342 39.0717 89.837 39.2467 89.837 39.4384C89.837 39.6273 89.7342 39.8051 89.5702 39.8996L75.764 47.8619C75.6806 47.9091 75.5889 47.9314 75.4972 47.9314ZM62.7609 39.4356L75.4972 46.784L88.239 39.4384L75.4972 32.0818L62.7609 39.4356Z" fill="#F6F7F8"/>
<path d="M75.4972 79.8C75.4055 79.8 75.3138 79.775 75.2304 79.7278L61.4269 71.7655C61.263 71.671 61.1602 71.496 61.1602 71.3043C61.1602 71.1154 61.2602 70.9376 61.4269 70.8431L75.2304 62.8725C75.3944 62.778 75.5972 62.778 75.764 62.8725L89.5702 70.8459C89.7342 70.9404 89.837 71.1154 89.837 71.3071C89.837 71.496 89.7342 71.6738 89.5702 71.7683L75.764 79.7306C75.6806 79.775 75.5889 79.8 75.4972 79.8ZM62.7609 71.3043L75.4972 78.6526L88.239 71.3043L75.4972 63.9476L62.7609 71.3043Z" fill="#F6F7F8"/>
<path d="M75.4972 31.9984C75.4055 31.9984 75.3138 31.9734 75.2304 31.9261L61.4269 23.9638C61.263 23.8694 61.1602 23.6944 61.1602 23.5027C61.1602 23.3137 61.2602 23.1359 61.4269 23.0415L75.2304 15.0708C75.3944 14.9764 75.5972 14.9764 75.764 15.0708L89.5702 23.0443C89.7342 23.1387 89.837 23.3137 89.837 23.5054C89.837 23.6944 89.7342 23.8722 89.5702 23.9666L75.764 31.9289C75.6806 31.9734 75.5889 31.9984 75.4972 31.9984ZM62.7609 23.5027L75.4972 30.851L88.239 23.5027L75.4972 16.146L62.7609 23.5027Z" fill="#F6F7F8"/>
<path d="M35.6963 101.648V105.4H34.3453V95.369H37.3063C37.941 95.369 38.4916 95.4437 38.9583 95.593C39.4296 95.7377 39.8193 95.9454 40.1273 96.216C40.4353 96.4867 40.664 96.8134 40.8133 97.196C40.9673 97.5787 41.0443 98.0057 41.0443 98.477C41.0443 98.9437 40.9626 99.3707 40.7993 99.758C40.636 100.145 40.3956 100.479 40.0783 100.759C39.7656 101.039 39.376 101.258 38.9093 101.417C38.4426 101.571 37.9083 101.648 37.3063 101.648H35.6963ZM35.6963 100.57H37.3063C37.6936 100.57 38.0343 100.519 38.3283 100.416C38.627 100.313 38.8766 100.171 39.0773 99.989C39.278 99.8024 39.4296 99.5807 39.5323 99.324C39.635 99.0674 39.6863 98.785 39.6863 98.477C39.6863 97.8377 39.488 97.3384 39.0913 96.979C38.6993 96.6197 38.1043 96.44 37.3063 96.44H35.6963V100.57ZM44.2549 101.214V105.4H42.9039V95.369H45.7389C46.3736 95.369 46.9219 95.4344 47.3839 95.565C47.8459 95.691 48.2262 95.8754 48.5249 96.118C48.8282 96.3607 49.0522 96.6547 49.1969 97C49.3416 97.3407 49.4139 97.7234 49.4139 98.148C49.4139 98.5027 49.3579 98.834 49.2459 99.142C49.1339 99.45 48.9706 99.7277 48.7559 99.975C48.5459 100.218 48.2869 100.425 47.9789 100.598C47.6756 100.771 47.3302 100.901 46.9429 100.99C47.1109 101.088 47.2602 101.23 47.3909 101.417L50.3169 105.4H49.1129C48.8656 105.4 48.6836 105.304 48.5669 105.113L45.9629 101.529C45.8836 101.417 45.7972 101.338 45.7039 101.291C45.6106 101.24 45.4706 101.214 45.2839 101.214H44.2549ZM44.2549 100.227H45.6759C46.0726 100.227 46.4202 100.18 46.7189 100.087C47.0222 99.989 47.2742 99.8537 47.4749 99.681C47.6802 99.5037 47.8342 99.2937 47.9369 99.051C48.0396 98.8084 48.0909 98.54 48.0909 98.246C48.0909 97.6487 47.8926 97.1984 47.4959 96.895C47.1039 96.5917 46.5182 96.44 45.7389 96.44H44.2549V100.227ZM60.7625 100.388C60.7625 101.139 60.6435 101.83 60.4055 102.46C60.1675 103.085 59.8315 103.624 59.3975 104.077C58.9635 104.53 58.4409 104.882 57.8295 105.134C57.2229 105.381 56.5509 105.505 55.8135 105.505C55.0762 105.505 54.4042 105.381 53.7975 105.134C53.1909 104.882 52.6705 104.53 52.2365 104.077C51.8025 103.624 51.4665 103.085 51.2285 102.46C50.9905 101.83 50.8715 101.139 50.8715 100.388C50.8715 99.6367 50.9905 98.9484 51.2285 98.323C51.4665 97.693 51.8025 97.1517 52.2365 96.699C52.6705 96.2417 53.1909 95.887 53.7975 95.635C54.4042 95.383 55.0762 95.257 55.8135 95.257C56.5509 95.257 57.2229 95.383 57.8295 95.635C58.4409 95.887 58.9635 96.2417 59.3975 96.699C59.8315 97.1517 60.1675 97.693 60.4055 98.323C60.6435 98.9484 60.7625 99.6367 60.7625 100.388ZM59.3695 100.388C59.3695 99.772 59.2855 99.219 59.1175 98.729C58.9495 98.239 58.7115 97.826 58.4035 97.49C58.0955 97.1494 57.7222 96.888 57.2835 96.706C56.8449 96.524 56.3549 96.433 55.8135 96.433C55.2769 96.433 54.7892 96.524 54.3505 96.706C53.9119 96.888 53.5362 97.1494 53.2235 97.49C52.9155 97.826 52.6775 98.239 52.5095 98.729C52.3415 99.219 52.2575 99.772 52.2575 100.388C52.2575 101.004 52.3415 101.557 52.5095 102.047C52.6775 102.532 52.9155 102.945 53.2235 103.286C53.5362 103.622 53.9119 103.881 54.3505 104.063C54.7892 104.24 55.2769 104.329 55.8135 104.329C56.3549 104.329 56.8449 104.24 57.2835 104.063C57.7222 103.881 58.0955 103.622 58.4035 103.286C58.7115 102.945 58.9495 102.532 59.1175 102.047C59.2855 101.557 59.3695 101.004 59.3695 100.388ZM68.7639 95.369V96.51H65.5229V105.4H64.1649V96.51H60.9099V95.369H68.7639ZM78.8231 100.388C78.8231 101.139 78.7041 101.83 78.4661 102.46C78.2281 103.085 77.8921 103.624 77.4581 104.077C77.0241 104.53 76.5014 104.882 75.8901 105.134C75.2834 105.381 74.6114 105.505 73.8741 105.505C73.1368 105.505 72.4648 105.381 71.8581 105.134C71.2514 104.882 70.7311 104.53 70.2971 104.077C69.8631 103.624 69.5271 103.085 69.2891 102.46C69.0511 101.83 68.9321 101.139 68.9321 100.388C68.9321 99.6367 69.0511 98.9484 69.2891 98.323C69.5271 97.693 69.8631 97.1517 70.2971 96.699C70.7311 96.2417 71.2514 95.887 71.8581 95.635C72.4648 95.383 73.1368 95.257 73.8741 95.257C74.6114 95.257 75.2834 95.383 75.8901 95.635C76.5014 95.887 77.0241 96.2417 77.4581 96.699C77.8921 97.1517 78.2281 97.693 78.4661 98.323C78.7041 98.9484 78.8231 99.6367 78.8231 100.388ZM77.4301 100.388C77.4301 99.772 77.3461 99.219 77.1781 98.729C77.0101 98.239 76.7721 97.826 76.4641 97.49C76.1561 97.1494 75.7828 96.888 75.3441 96.706C74.9054 96.524 74.4154 96.433 73.8741 96.433C73.3374 96.433 72.8498 96.524 72.4111 96.706C71.9724 96.888 71.5968 97.1494 71.2841 97.49C70.9761 97.826 70.7381 98.239 70.5701 98.729C70.4021 99.219 70.3181 99.772 70.3181 100.388C70.3181 101.004 70.4021 101.557 70.5701 102.047C70.7381 102.532 70.9761 102.945 71.2841 103.286C71.5968 103.622 71.9724 103.881 72.4111 104.063C72.8498 104.24 73.3374 104.329 73.8741 104.329C74.4154 104.329 74.9054 104.24 75.3441 104.063C75.7828 103.881 76.1561 103.622 76.4641 103.286C76.7721 102.945 77.0101 102.532 77.1781 102.047C77.3461 101.557 77.4301 101.004 77.4301 100.388ZM87.746 103.328C87.8207 103.328 87.8883 103.358 87.949 103.419L88.481 104C88.0703 104.476 87.571 104.847 86.983 105.113C86.3997 105.379 85.695 105.512 84.869 105.512C84.1457 105.512 83.49 105.388 82.902 105.141C82.314 104.889 81.8123 104.539 81.397 104.091C80.9817 103.638 80.6597 103.097 80.431 102.467C80.2023 101.837 80.088 101.144 80.088 100.388C80.088 99.632 80.2093 98.939 80.452 98.309C80.6993 97.679 81.0447 97.1377 81.488 96.685C81.9313 96.2324 82.461 95.8824 83.077 95.635C83.6977 95.383 84.3813 95.257 85.128 95.257C85.8653 95.257 86.5 95.3714 87.032 95.6C87.5687 95.8287 88.0447 96.139 88.46 96.531L88.019 97.154C87.9863 97.2007 87.949 97.2404 87.907 97.273C87.865 97.301 87.8043 97.315 87.725 97.315C87.6643 97.315 87.599 97.294 87.529 97.252C87.4637 97.2054 87.3843 97.1494 87.291 97.084C87.1977 97.0187 87.088 96.9487 86.962 96.874C86.836 96.7994 86.6867 96.7294 86.514 96.664C86.3413 96.5987 86.1407 96.545 85.912 96.503C85.6833 96.4564 85.4197 96.433 85.121 96.433C84.5843 96.433 84.092 96.5264 83.644 96.713C83.2007 96.895 82.818 97.1564 82.496 97.497C82.174 97.8377 81.922 98.253 81.74 98.743C81.5627 99.233 81.474 99.7814 81.474 100.388C81.474 101.013 81.5627 101.571 81.74 102.061C81.922 102.551 82.167 102.966 82.475 103.307C82.7877 103.643 83.1563 103.9 83.581 104.077C84.0057 104.254 84.463 104.343 84.953 104.343C85.2517 104.343 85.52 104.327 85.758 104.294C85.996 104.257 86.2153 104.201 86.416 104.126C86.6213 104.051 86.8103 103.958 86.983 103.846C87.1603 103.729 87.3377 103.592 87.515 103.433C87.5943 103.363 87.6713 103.328 87.746 103.328ZM99.577 100.388C99.577 101.139 99.458 101.83 99.22 102.46C98.982 103.085 98.646 103.624 98.212 104.077C97.778 104.53 97.2553 104.882 96.644 105.134C96.0373 105.381 95.3653 105.505 94.628 105.505C93.8907 105.505 93.2187 105.381 92.612 105.134C92.0053 104.882 91.485 104.53 91.051 104.077C90.617 103.624 90.281 103.085 90.043 102.46C89.805 101.83 89.686 101.139 89.686 100.388C89.686 99.6367 89.805 98.9484 90.043 98.323C90.281 97.693 90.617 97.1517 91.051 96.699C91.485 96.2417 92.0053 95.887 92.612 95.635C93.2187 95.383 93.8907 95.257 94.628 95.257C95.3653 95.257 96.0373 95.383 96.644 95.635C97.2553 95.887 97.778 96.2417 98.212 96.699C98.646 97.1517 98.982 97.693 99.22 98.323C99.458 98.9484 99.577 99.6367 99.577 100.388ZM98.184 100.388C98.184 99.772 98.1 99.219 97.932 98.729C97.764 98.239 97.526 97.826 97.218 97.49C96.91 97.1494 96.5367 96.888 96.098 96.706C95.6593 96.524 95.1693 96.433 94.628 96.433C94.0913 96.433 93.6037 96.524 93.165 96.706C92.7263 96.888 92.3507 97.1494 92.038 97.49C91.73 97.826 91.492 98.239 91.324 98.729C91.156 99.219 91.072 99.772 91.072 100.388C91.072 101.004 91.156 101.557 91.324 102.047C91.492 102.532 91.73 102.945 92.038 103.286C92.3507 103.622 92.7263 103.881 93.165 104.063C93.6037 104.24 94.0913 104.329 94.628 104.329C95.1693 104.329 95.6593 104.24 96.098 104.063C96.5367 103.881 96.91 103.622 97.218 103.286C97.526 102.945 97.764 102.532 97.932 102.047C98.1 101.557 98.184 101.004 98.184 100.388ZM102.788 104.259H107.128V105.4H101.43V95.369H102.788V104.259ZM117.378 100.388C117.378 101.139 117.259 101.83 117.021 102.46C116.783 103.085 116.447 103.624 116.013 104.077C115.579 104.53 115.056 104.882 114.445 105.134C113.838 105.381 113.166 105.505 112.429 105.505C111.691 105.505 111.019 105.381 110.413 105.134C109.806 104.882 109.286 104.53 108.852 104.077C108.418 103.624 108.082 103.085 107.844 102.46C107.606 101.83 107.487 101.139 107.487 100.388C107.487 99.6367 107.606 98.9484 107.844 98.323C108.082 97.693 108.418 97.1517 108.852 96.699C109.286 96.2417 109.806 95.887 110.413 95.635C111.019 95.383 111.691 95.257 112.429 95.257C113.166 95.257 113.838 95.383 114.445 95.635C115.056 95.887 115.579 96.2417 116.013 96.699C116.447 97.1517 116.783 97.693 117.021 98.323C117.259 98.9484 117.378 99.6367 117.378 100.388ZM115.985 100.388C115.985 99.772 115.901 99.219 115.733 98.729C115.565 98.239 115.327 97.826 115.019 97.49C114.711 97.1494 114.337 96.888 113.899 96.706C113.46 96.524 112.97 96.433 112.429 96.433C111.892 96.433 111.404 96.524 110.966 96.706C110.527 96.888 110.151 97.1494 109.839 97.49C109.531 97.826 109.293 98.239 109.125 98.729C108.957 99.219 108.873 99.772 108.873 100.388C108.873 101.004 108.957 101.557 109.125 102.047C109.293 102.532 109.531 102.945 109.839 103.286C110.151 103.622 110.527 103.881 110.966 104.063C111.404 104.24 111.892 104.329 112.429 104.329C112.97 104.329 113.46 104.24 113.899 104.063C114.337 103.881 114.711 103.622 115.019 103.286C115.327 102.945 115.565 102.532 115.733 102.047C115.901 101.557 115.985 101.004 115.985 100.388Z" fill="#F6F7F8"/>
</svg>
