<svg width="151" height="130" viewBox="0 0 151 130" fill="none" xmlns="http://www.w3.org/2000/svg">
<rect width="151" height="130" rx="15" fill="#87773D"/>
<path d="M89.3033 71.8321C89.2116 71.8321 89.1199 71.8071 89.0365 71.7599L75.2331 63.792C75.0691 63.6976 74.9663 63.5225 74.9663 63.3308C74.9663 63.1392 75.0664 62.9641 75.2331 62.8697L89.0365 54.9046C89.2005 54.8101 89.4034 54.8101 89.5701 54.9046C89.7341 54.999 89.8369 55.1741 89.8369 55.3658L89.8397 71.2987C89.8397 71.4876 89.7396 71.6654 89.5729 71.7599C89.4895 71.8099 89.3978 71.8321 89.3033 71.8321ZM76.5643 63.3336L88.7725 70.3791L88.7698 56.2881L76.5643 63.3336Z" fill="#F6F7F8"/>
<path d="M75.5 63.8699C75.4083 63.8699 75.3165 63.8449 75.2332 63.7977L61.4269 55.827C61.263 55.7326 61.1602 55.5575 61.1602 55.3658L61.1629 39.4329C61.1629 39.244 61.2658 39.0662 61.4297 38.9717C61.5937 38.8773 61.7966 38.8773 61.9633 38.9717L75.7667 46.9396C75.9307 47.034 76.0335 47.2091 76.0335 47.4008V63.3393C76.0335 63.5282 75.9335 63.706 75.7667 63.8004C75.6834 63.8477 75.5917 63.8699 75.5 63.8699ZM62.2273 55.0602L74.9692 62.4169V47.7091L62.2301 40.3553L62.2273 55.0602Z" fill="#F6F7F8"/>
<path d="M61.6967 71.8321C61.605 71.8321 61.5133 71.807 61.4299 71.7598L47.6237 63.7892C47.4598 63.6947 47.3569 63.5197 47.3569 63.328L47.3597 47.3951C47.3597 47.2061 47.4625 47.0283 47.6265 46.9339C47.7905 46.8394 47.9933 46.8394 48.1601 46.9339L61.9441 54.8906C61.9552 54.8962 61.9663 54.9017 61.9774 54.9101C62.133 55.0073 62.2303 55.1796 62.2303 55.3629V71.3014C62.2303 71.4903 62.1303 71.6681 61.9635 71.7626C61.8801 71.8098 61.7884 71.8321 61.6967 71.8321ZM48.4241 63.0224L61.1659 70.3791V55.6713L48.4269 48.3174L48.4241 63.0224Z" fill="#F6F7F8"/>
<path d="M75.4999 63.8697C75.4082 63.8697 75.3165 63.8447 75.2331 63.7975C75.0691 63.7031 74.9663 63.528 74.9663 63.3363V47.3978C74.9663 47.2145 75.0608 47.0422 75.2192 46.945C75.2303 46.9394 75.2414 46.9311 75.2525 46.9255L89.0365 38.9688C89.2005 38.8743 89.4034 38.8743 89.5701 38.9688C89.7341 39.0633 89.8369 39.2383 89.8369 39.43L89.8397 55.3629C89.8397 55.5518 89.7396 55.7296 89.5729 55.8241L75.7667 63.7947C75.6833 63.8475 75.5916 63.8697 75.4999 63.8697ZM76.0307 47.7062V62.414L88.7725 55.0573L88.7698 40.3523L76.0307 47.7062Z" fill="#F6F7F8"/>
<path d="M89.3036 71.8322C89.2119 71.8322 89.1202 71.8071 89.0368 71.7599C88.8728 71.6655 88.77 71.4904 88.77 71.2987V55.3602C88.77 55.1769 88.8645 55.0046 89.0229 54.9074C89.034 54.9018 89.0451 54.8935 89.0563 54.8879L102.84 46.9312C103.004 46.8367 103.207 46.8367 103.374 46.9312C103.538 47.0257 103.641 47.2007 103.641 47.3924L103.643 63.3253C103.643 63.5142 103.543 63.692 103.377 63.7865L89.5704 71.7571C89.487 71.8099 89.3953 71.8322 89.3036 71.8322ZM89.8372 55.6714V70.3792L102.579 63.0225L102.576 48.3175L89.8372 55.6714Z" fill="#F6F7F8"/>
<path d="M47.8905 47.9425C47.7988 47.9425 47.7071 47.9175 47.6237 47.8703C47.4598 47.7758 47.3569 47.6008 47.3569 47.4091V31.4706C47.3569 31.2872 47.4514 31.115 47.6098 31.0177C47.6209 31.0122 47.6321 31.0039 47.6432 30.9983L61.4272 23.0415C61.5911 22.9471 61.794 22.9471 61.9607 23.0415C62.1247 23.136 62.2275 23.311 62.2275 23.5027L62.2303 39.4357C62.2303 39.6246 62.1303 39.8024 61.9635 39.8969L48.1573 47.8675C48.0739 47.9175 47.9822 47.9425 47.8905 47.9425ZM48.4241 31.779V46.4867L61.1659 39.1301L61.1632 24.4251L48.4241 31.779Z" fill="#F6F7F8"/>
<path d="M103.11 47.9424C103.018 47.9424 102.926 47.9174 102.843 47.8702L89.0368 39.8995C88.8728 39.8051 88.77 39.6301 88.77 39.4384L88.7728 23.5054C88.7728 23.3165 88.8756 23.1387 89.0396 23.0442C89.2035 22.9498 89.4064 22.9498 89.5732 23.0442L103.357 31.001C103.368 31.0065 103.379 31.0121 103.39 31.0204C103.546 31.1177 103.643 31.2899 103.643 31.4733V47.4118C103.643 47.6007 103.543 47.7785 103.377 47.873C103.293 47.9174 103.202 47.9424 103.11 47.9424ZM89.8372 39.13L102.579 46.4866V31.7789L89.8399 24.425L89.8372 39.13Z" fill="#F6F7F8"/>
<path d="M89.3064 55.8993C89.2147 55.8993 89.123 55.8743 89.0396 55.827C88.8756 55.7326 88.7728 55.5575 88.7728 55.3658L88.77 39.4329C88.77 39.244 88.8701 39.0662 89.0368 38.9717C89.2008 38.8773 89.4036 38.8773 89.5704 38.9717L103.374 46.9396C103.538 47.034 103.641 47.2091 103.641 47.4008C103.641 47.5925 103.541 47.7675 103.374 47.8619L89.5704 55.827C89.4898 55.8743 89.3981 55.8993 89.3064 55.8993ZM89.8372 40.3553L89.8399 54.4463L102.045 47.4008L89.8372 40.3553Z" fill="#F6F7F8"/>
<path d="M61.6994 71.8377C61.6077 71.8377 61.516 71.8127 61.4327 71.7655C61.2687 71.671 61.1659 71.496 61.1659 71.3043L61.1631 55.3714C61.1631 55.1825 61.2631 55.0047 61.4299 54.9102C61.5938 54.8157 61.7967 54.8157 61.9634 54.9102L75.7669 62.8781C75.9309 62.9725 76.0337 63.1475 76.0337 63.3392C76.0337 63.5309 75.9336 63.706 75.7669 63.8004L61.9634 71.7655C61.8829 71.8127 61.7911 71.8377 61.6994 71.8377ZM62.2275 56.2937L62.2302 70.3847L74.4357 63.3392L62.2275 56.2937Z" fill="#F6F7F8"/>
<path d="M61.6994 39.9691C61.6077 39.9691 61.516 39.9441 61.4327 39.8969C61.2687 39.8024 61.1659 39.6274 61.1659 39.4357L61.1631 23.5027C61.1631 23.3138 61.2631 23.136 61.4299 23.0415C61.5938 22.9471 61.7967 22.9471 61.9634 23.0415L75.7669 31.0094C75.9309 31.1039 76.0337 31.2789 76.0337 31.4706C76.0337 31.6623 75.9336 31.8373 75.7669 31.9318L61.9634 39.8969C61.8829 39.9469 61.7911 39.9691 61.6994 39.9691ZM62.2275 24.4251L62.2302 38.5161L74.4357 31.4706L62.2275 24.4251Z" fill="#F6F7F8"/>
<path d="M89.3033 39.969C89.2116 39.969 89.1199 39.944 89.0365 39.8968L75.2331 31.9317C75.0691 31.8372 74.9663 31.6622 74.9663 31.4705C74.9663 31.2788 75.0664 31.1038 75.2331 31.0093L89.0365 23.0442C89.2005 22.9498 89.4034 22.9498 89.5701 23.0442C89.7341 23.1387 89.8369 23.3137 89.8369 23.5054L89.8397 39.4384C89.8397 39.6273 89.7396 39.8051 89.5729 39.8995C89.4895 39.9468 89.3978 39.969 89.3033 39.969ZM76.5643 31.4705L88.7725 38.516L88.7698 24.425L76.5643 31.4705Z" fill="#F6F7F8"/>
<path d="M61.6969 55.9049C61.6052 55.9049 61.5135 55.8799 61.4301 55.8326L47.6267 47.8648C47.4627 47.7703 47.3599 47.5953 47.3599 47.4036C47.3599 47.2119 47.4599 47.0369 47.6267 46.9424L61.4301 38.9773C61.5941 38.8829 61.7969 38.8829 61.9637 38.9773C62.1276 39.0718 62.2305 39.2468 62.2305 39.4385L62.2332 55.3715C62.2332 55.5604 62.1332 55.7382 61.9665 55.8326C61.8803 55.8799 61.7886 55.9049 61.6969 55.9049ZM48.9578 47.4036L61.1661 54.4491L61.1633 40.3581L48.9578 47.4036Z" fill="#F6F7F8"/>
<path d="M75.4972 47.9314C75.4055 47.9314 75.3138 47.9064 75.2304 47.8591L61.4269 39.8968C61.263 39.8024 61.1602 39.6273 61.1602 39.4356C61.1602 39.2467 61.2602 39.0689 61.4269 38.9745L75.2304 31.0038C75.3944 30.9094 75.5972 30.9094 75.764 31.0038L89.5702 38.9772C89.7342 39.0717 89.837 39.2467 89.837 39.4384C89.837 39.6273 89.7342 39.8051 89.5702 39.8996L75.764 47.8619C75.6806 47.9091 75.5889 47.9314 75.4972 47.9314ZM62.7609 39.4356L75.4972 46.784L88.239 39.4384L75.4972 32.0818L62.7609 39.4356Z" fill="#F6F7F8"/>
<path d="M75.4972 79.8C75.4055 79.8 75.3138 79.775 75.2304 79.7278L61.4269 71.7655C61.263 71.671 61.1602 71.496 61.1602 71.3043C61.1602 71.1154 61.2602 70.9376 61.4269 70.8431L75.2304 62.8725C75.3944 62.778 75.5972 62.778 75.764 62.8725L89.5702 70.8459C89.7342 70.9404 89.837 71.1154 89.837 71.3071C89.837 71.496 89.7342 71.6738 89.5702 71.7683L75.764 79.7306C75.6806 79.775 75.5889 79.8 75.4972 79.8ZM62.7609 71.3043L75.4972 78.6526L88.239 71.3043L75.4972 63.9476L62.7609 71.3043Z" fill="#F6F7F8"/>
<path d="M75.4972 31.9984C75.4055 31.9984 75.3138 31.9734 75.2304 31.9261L61.4269 23.9638C61.263 23.8694 61.1602 23.6944 61.1602 23.5027C61.1602 23.3137 61.2602 23.1359 61.4269 23.0415L75.2304 15.0708C75.3944 14.9764 75.5972 14.9764 75.764 15.0708L89.5702 23.0443C89.7342 23.1387 89.837 23.3137 89.837 23.5054C89.837 23.6944 89.7342 23.8722 89.5702 23.9666L75.764 31.9289C75.6806 31.9734 75.5889 31.9984 75.4972 31.9984ZM62.7609 23.5027L75.4972 30.851L88.239 23.5027L75.4972 16.146L62.7609 23.5027Z" fill="#F6F7F8"/>
<path d="M35.9492 92.714V96.9H34.5982V86.869H37.4332C38.0679 86.869 38.6162 86.9344 39.0782 87.065C39.5402 87.191 39.9206 87.3754 40.2192 87.618C40.5226 87.8607 40.7466 88.1547 40.8912 88.5C41.0359 88.8407 41.1082 89.2234 41.1082 89.648C41.1082 90.0027 41.0522 90.334 40.9402 90.642C40.8282 90.95 40.6649 91.2277 40.4502 91.475C40.2402 91.7177 39.9812 91.9254 39.6732 92.098C39.3699 92.2707 39.0246 92.4014 38.6372 92.49C38.8052 92.588 38.9546 92.7304 39.0852 92.917L42.0112 96.9H40.8072C40.5599 96.9 40.3779 96.8044 40.2612 96.613L37.6572 93.029C37.5779 92.917 37.4916 92.8377 37.3982 92.791C37.3049 92.7397 37.1649 92.714 36.9782 92.714H35.9492ZM35.9492 91.727H37.3702C37.7669 91.727 38.1146 91.6804 38.4132 91.587C38.7166 91.489 38.9686 91.3537 39.1692 91.181C39.3746 91.0037 39.5286 90.7937 39.6312 90.551C39.7339 90.3084 39.7852 90.04 39.7852 89.746C39.7852 89.1487 39.5869 88.6984 39.1902 88.395C38.7982 88.0917 38.2126 87.94 37.4332 87.94H35.9492V91.727ZM49.649 86.869V87.975H44.833V91.307H48.732V92.371H44.833V95.794H49.649V96.9H43.468V86.869H49.649ZM60.9198 91.888C60.9198 92.3594 60.8708 92.8074 60.7728 93.232C60.6794 93.6567 60.5418 94.0534 60.3598 94.422C60.1778 94.786 59.9561 95.1174 59.6948 95.416C59.4334 95.7147 59.1394 95.9737 58.8128 96.193L61.3888 98.972H60.2688C60.1008 98.972 59.9514 98.9487 59.8208 98.902C59.6901 98.8554 59.5711 98.7737 59.4638 98.657L57.6998 96.739C57.4338 96.823 57.1561 96.8884 56.8668 96.935C56.5821 96.9817 56.2834 97.005 55.9708 97.005C55.2334 97.005 54.5614 96.8814 53.9548 96.634C53.3481 96.382 52.8278 96.0297 52.3938 95.577C51.9598 95.1244 51.6238 94.5854 51.3858 93.96C51.1478 93.33 51.0288 92.6394 51.0288 91.888C51.0288 91.1367 51.1478 90.4484 51.3858 89.823C51.6238 89.193 51.9598 88.6517 52.3938 88.199C52.8278 87.7417 53.3481 87.387 53.9548 87.135C54.5614 86.883 55.2334 86.757 55.9708 86.757C56.7081 86.757 57.3801 86.883 57.9868 87.135C58.5981 87.387 59.1208 87.7417 59.5548 88.199C59.9888 88.6517 60.3248 89.193 60.5628 89.823C60.8008 90.4484 60.9198 91.1367 60.9198 91.888ZM59.5268 91.888C59.5268 91.272 59.4428 90.719 59.2748 90.229C59.1068 89.739 58.8688 89.326 58.5608 88.99C58.2528 88.6494 57.8794 88.388 57.4408 88.206C57.0021 88.024 56.5121 87.933 55.9708 87.933C55.4341 87.933 54.9464 88.024 54.5078 88.206C54.0691 88.388 53.6934 88.6494 53.3808 88.99C53.0728 89.326 52.8348 89.739 52.6668 90.229C52.4988 90.719 52.4148 91.272 52.4148 91.888C52.4148 92.504 52.4988 93.057 52.6668 93.547C52.8348 94.0324 53.0728 94.4454 53.3808 94.786C53.6934 95.122 54.0691 95.381 54.5078 95.563C54.9464 95.7404 55.4341 95.829 55.9708 95.829C56.5121 95.829 57.0021 95.7404 57.4408 95.563C57.8794 95.381 58.2528 95.122 58.5608 94.786C58.8688 94.4454 59.1068 94.0324 59.2748 93.547C59.4428 93.057 59.5268 92.504 59.5268 91.888ZM66.6717 95.822C67.087 95.822 67.458 95.752 67.7847 95.612C68.1114 95.472 68.3867 95.276 68.6107 95.024C68.8394 94.772 69.012 94.471 69.1287 94.121C69.25 93.771 69.3107 93.386 69.3107 92.966V86.869H70.6617V92.966C70.6617 93.5447 70.5684 94.0814 70.3817 94.576C70.1997 95.0707 69.936 95.5 69.5907 95.864C69.25 96.2234 68.8324 96.5057 68.3377 96.711C67.843 96.9164 67.2877 97.019 66.6717 97.019C66.0557 97.019 65.5004 96.9164 65.0057 96.711C64.511 96.5057 64.091 96.2234 63.7457 95.864C63.4004 95.5 63.1344 95.0707 62.9477 94.576C62.7657 94.0814 62.6747 93.5447 62.6747 92.966V86.869H64.0257V92.959C64.0257 93.379 64.084 93.764 64.2007 94.114C64.322 94.464 64.4947 94.765 64.7187 95.017C64.9474 95.269 65.225 95.4674 65.5517 95.612C65.883 95.752 66.2564 95.822 66.6717 95.822ZM74.6093 96.9H73.2513V86.869H74.6093V96.9ZM82.4302 88.437C82.3882 88.507 82.3439 88.5607 82.2972 88.598C82.2506 88.6307 82.1899 88.647 82.1152 88.647C82.0359 88.647 81.9426 88.6074 81.8352 88.528C81.7326 88.4487 81.5996 88.3624 81.4362 88.269C81.2776 88.171 81.0839 88.0824 80.8552 88.003C80.6312 87.9237 80.3582 87.884 80.0362 87.884C79.7329 87.884 79.4646 87.926 79.2312 88.01C78.9979 88.0894 78.8019 88.199 78.6432 88.339C78.4892 88.479 78.3726 88.6447 78.2932 88.836C78.2139 89.0227 78.1742 89.2257 78.1742 89.445C78.1742 89.725 78.2419 89.9584 78.3772 90.145C78.5172 90.327 78.6992 90.4834 78.9232 90.614C79.1519 90.7447 79.4086 90.859 79.6932 90.957C79.9826 91.0504 80.2766 91.1484 80.5752 91.251C80.8786 91.3537 81.1726 91.4704 81.4572 91.601C81.7466 91.727 82.0032 91.888 82.2272 92.084C82.4559 92.28 82.6379 92.5204 82.7732 92.805C82.9132 93.0897 82.9832 93.4397 82.9832 93.855C82.9832 94.2937 82.9086 94.7067 82.7592 95.094C82.6099 95.4767 82.3906 95.8104 82.1012 96.095C81.8166 96.3797 81.4642 96.6037 81.0442 96.767C80.6289 96.9304 80.1552 97.012 79.6232 97.012C78.9746 97.012 78.3819 96.8954 77.8452 96.662C77.3132 96.424 76.8582 96.1044 76.4802 95.703L76.8722 95.059C76.9096 95.0077 76.9539 94.9657 77.0052 94.933C77.0612 94.8957 77.1219 94.877 77.1872 94.877C77.2852 94.877 77.3972 94.9307 77.5232 95.038C77.6492 95.1407 77.8056 95.255 77.9922 95.381C78.1836 95.507 78.4122 95.6237 78.6782 95.731C78.9489 95.8337 79.2779 95.885 79.6652 95.885C79.9872 95.885 80.2742 95.8407 80.5262 95.752C80.7782 95.6634 80.9906 95.5397 81.1632 95.381C81.3406 95.2177 81.4759 95.024 81.5692 94.8C81.6626 94.576 81.7092 94.3264 81.7092 94.051C81.7092 93.7477 81.6392 93.5004 81.4992 93.309C81.3639 93.113 81.1842 92.9497 80.9602 92.819C80.7362 92.6884 80.4796 92.5787 80.1902 92.49C79.9056 92.3967 79.6116 92.3034 79.3082 92.21C79.0096 92.112 78.7156 92 78.4262 91.874C78.1416 91.748 77.8872 91.5847 77.6632 91.384C77.4392 91.1834 77.2572 90.9337 77.1172 90.635C76.9819 90.3317 76.9142 89.9584 76.9142 89.515C76.9142 89.1604 76.9819 88.8174 77.1172 88.486C77.2572 88.1547 77.4579 87.8607 77.7192 87.604C77.9806 87.3474 78.3026 87.142 78.6852 86.988C79.0726 86.834 79.5159 86.757 80.0152 86.757C80.5752 86.757 81.0862 86.8457 81.5482 87.023C82.0102 87.2004 82.4139 87.457 82.7592 87.793L82.4302 88.437ZM86.326 96.9H84.968V86.869H86.326V96.9ZM92.292 98.629C92.32 98.629 92.3527 98.636 92.39 98.65C92.4273 98.6687 92.4717 98.6874 92.523 98.706C92.5743 98.7294 92.6373 98.748 92.712 98.762C92.7867 98.7807 92.873 98.79 92.971 98.79C93.167 98.79 93.314 98.7504 93.412 98.671C93.5147 98.5964 93.566 98.4984 93.566 98.377C93.566 98.2884 93.5403 98.2137 93.489 98.153C93.4377 98.0924 93.363 98.041 93.265 97.999C93.1717 97.957 93.055 97.922 92.915 97.894C92.775 97.866 92.6163 97.8404 92.439 97.817L92.691 96.991C92.0423 96.935 91.4543 96.7717 90.927 96.501C90.3997 96.2257 89.9493 95.8664 89.576 95.423C89.2073 94.975 88.9227 94.4524 88.722 93.855C88.5213 93.2577 88.421 92.602 88.421 91.888C88.421 91.132 88.5423 90.439 88.785 89.809C89.0323 89.179 89.3777 88.6377 89.821 88.185C90.2643 87.7324 90.794 87.3824 91.41 87.135C92.0307 86.883 92.7143 86.757 93.461 86.757C94.1983 86.757 94.833 86.8714 95.365 87.1C95.9017 87.3287 96.3777 87.639 96.793 88.031L96.352 88.654C96.3193 88.7007 96.282 88.7404 96.24 88.773C96.198 88.801 96.1373 88.815 96.058 88.815C95.9973 88.815 95.932 88.794 95.862 88.752C95.7967 88.7054 95.7173 88.6494 95.624 88.584C95.5307 88.5187 95.421 88.4487 95.295 88.374C95.169 88.2994 95.0197 88.2294 94.847 88.164C94.6743 88.0987 94.4737 88.045 94.245 88.003C94.0163 87.9564 93.7527 87.933 93.454 87.933C92.9173 87.933 92.425 88.0264 91.977 88.213C91.5337 88.395 91.151 88.6564 90.829 88.997C90.507 89.3377 90.255 89.753 90.073 90.243C89.8957 90.733 89.807 91.2814 89.807 91.888C89.807 92.5134 89.8957 93.071 90.073 93.561C90.255 94.051 90.5 94.4664 90.808 94.807C91.1207 95.143 91.4893 95.3997 91.914 95.577C92.3387 95.7544 92.796 95.843 93.286 95.843C93.5847 95.843 93.853 95.8267 94.091 95.794C94.329 95.7567 94.5483 95.7007 94.749 95.626C94.9543 95.5514 95.1433 95.458 95.316 95.346C95.4933 95.2294 95.6707 95.0917 95.848 94.933C95.9273 94.863 96.0043 94.828 96.079 94.828C96.1537 94.828 96.2213 94.8584 96.282 94.919L96.814 95.5C96.4267 95.9527 95.96 96.3097 95.414 96.571C94.8727 96.8324 94.224 96.977 93.468 97.005L93.356 97.39C93.776 97.4834 94.0793 97.6094 94.266 97.768C94.4573 97.9314 94.553 98.139 94.553 98.391C94.553 98.5404 94.5157 98.6734 94.441 98.79C94.3663 98.9114 94.2613 99.014 94.126 99.098C93.9953 99.182 93.8367 99.245 93.65 99.287C93.4633 99.3337 93.258 99.357 93.034 99.357C92.8427 99.357 92.6607 99.336 92.488 99.294C92.3153 99.2567 92.1567 99.2054 92.012 99.14L92.131 98.755C92.159 98.671 92.2127 98.629 92.292 98.629ZM106.846 96.9H105.796C105.675 96.9 105.577 96.8697 105.502 96.809C105.427 96.7484 105.371 96.6714 105.334 96.578L104.396 94.156H99.895L98.957 96.578C98.9243 96.662 98.8683 96.7367 98.789 96.802C98.7097 96.8674 98.6117 96.9 98.495 96.9H97.445L101.456 86.869H102.835L106.846 96.9ZM100.273 93.176H104.018L102.443 89.095C102.34 88.843 102.24 88.528 102.142 88.15C102.091 88.3414 102.039 88.5187 101.988 88.682C101.941 88.8407 101.895 88.9807 101.848 89.102L100.273 93.176ZM102.982 85.259C103.145 85.259 103.269 85.2124 103.353 85.119C103.442 85.021 103.488 84.8857 103.493 84.713H104.179C104.179 84.9137 104.153 85.098 104.102 85.266C104.051 85.434 103.976 85.581 103.878 85.707C103.78 85.8284 103.659 85.924 103.514 85.994C103.369 86.0594 103.204 86.092 103.017 86.092C102.854 86.092 102.697 86.0617 102.548 86.001C102.399 85.9404 102.254 85.875 102.114 85.805C101.979 85.7304 101.85 85.6627 101.729 85.602C101.608 85.5414 101.491 85.511 101.379 85.511C101.22 85.511 101.097 85.5624 101.008 85.665C100.924 85.763 100.88 85.896 100.875 86.064H100.175C100.175 85.8634 100.201 85.679 100.252 85.511C100.308 85.3384 100.385 85.1914 100.483 85.07C100.586 84.9487 100.709 84.853 100.854 84.783C101.003 84.713 101.169 84.678 101.351 84.678C101.514 84.678 101.671 84.7084 101.82 84.769C101.969 84.8297 102.112 84.8974 102.247 84.972C102.382 85.042 102.511 85.1074 102.632 85.168C102.753 85.2287 102.87 85.259 102.982 85.259ZM117.125 91.888C117.125 92.6394 117.006 93.33 116.768 93.96C116.53 94.5854 116.194 95.1244 115.76 95.577C115.326 96.0297 114.803 96.382 114.192 96.634C113.585 96.8814 112.913 97.005 112.176 97.005C111.439 97.005 110.767 96.8814 110.16 96.634C109.553 96.382 109.033 96.0297 108.599 95.577C108.165 95.1244 107.829 94.5854 107.591 93.96C107.353 93.33 107.234 92.6394 107.234 91.888C107.234 91.1367 107.353 90.4484 107.591 89.823C107.829 89.193 108.165 88.6517 108.599 88.199C109.033 87.7417 109.553 87.387 110.16 87.135C110.767 86.883 111.439 86.757 112.176 86.757C112.913 86.757 113.585 86.883 114.192 87.135C114.803 87.387 115.326 87.7417 115.76 88.199C116.194 88.6517 116.53 89.193 116.768 89.823C117.006 90.4484 117.125 91.1367 117.125 91.888ZM115.732 91.888C115.732 91.272 115.648 90.719 115.48 90.229C115.312 89.739 115.074 89.326 114.766 88.99C114.458 88.6494 114.085 88.388 113.646 88.206C113.207 88.024 112.717 87.933 112.176 87.933C111.639 87.933 111.152 88.024 110.713 88.206C110.274 88.388 109.899 88.6494 109.586 88.99C109.278 89.326 109.04 89.739 108.872 90.229C108.704 90.719 108.62 91.272 108.62 91.888C108.62 92.504 108.704 93.057 108.872 93.547C109.04 94.0324 109.278 94.4454 109.586 94.786C109.899 95.122 110.274 95.381 110.713 95.563C111.152 95.7404 111.639 95.829 112.176 95.829C112.717 95.829 113.207 95.7404 113.646 95.563C114.085 95.381 114.458 95.122 114.766 94.786C115.074 94.4454 115.312 94.0324 115.48 93.547C115.648 93.057 115.732 92.504 115.732 91.888ZM48.1405 113.9H46.7825V103.869H48.1405V113.9ZM51.5235 103.869C51.6448 103.869 51.7335 103.885 51.7895 103.918C51.8501 103.946 51.9178 104.007 51.9925 104.1L57.8025 111.66C57.7885 111.539 57.7791 111.422 57.7745 111.31C57.7698 111.193 57.7675 111.081 57.7675 110.974V103.869H58.9575V113.9H58.2715C58.1641 113.9 58.0731 113.881 57.9985 113.844C57.9285 113.807 57.8585 113.744 57.7885 113.655L51.9855 106.102C51.9948 106.219 52.0018 106.333 52.0065 106.445C52.0111 106.557 52.0135 106.66 52.0135 106.753V113.9H50.8235V103.869H51.5235ZM68.2375 103.869V105.01H64.9965V113.9H63.6385V105.01H60.3835V103.869H68.2375ZM75.8443 103.869V104.975H71.0283V108.307H74.9273V109.371H71.0283V112.794H75.8443V113.9H69.6633V103.869H75.8443ZM79.2891 109.714V113.9H77.9381V103.869H80.7731C81.4077 103.869 81.9561 103.934 82.4181 104.065C82.8801 104.191 83.2604 104.375 83.5591 104.618C83.8624 104.861 84.0864 105.155 84.2311 105.5C84.3757 105.841 84.4481 106.223 84.4481 106.648C84.4481 107.003 84.3921 107.334 84.2801 107.642C84.1681 107.95 84.0047 108.228 83.7901 108.475C83.5801 108.718 83.3211 108.925 83.0131 109.098C82.7097 109.271 82.3644 109.401 81.9771 109.49C82.1451 109.588 82.2944 109.73 82.4251 109.917L85.3511 113.9H84.1471C83.8997 113.9 83.7177 113.804 83.6011 113.613L80.9971 110.029C80.9177 109.917 80.8314 109.838 80.7381 109.791C80.6447 109.74 80.5047 109.714 80.3181 109.714H79.2891ZM79.2891 108.727H80.7101C81.1067 108.727 81.4544 108.68 81.7531 108.587C82.0564 108.489 82.3084 108.354 82.5091 108.181C82.7144 108.004 82.8684 107.794 82.9711 107.551C83.0737 107.308 83.1251 107.04 83.1251 106.746C83.1251 106.149 82.9267 105.698 82.5301 105.395C82.1381 105.092 81.5524 104.94 80.7731 104.94H79.2891V108.727ZM87.5078 103.869C87.6292 103.869 87.7178 103.885 87.7738 103.918C87.8345 103.946 87.9022 104.007 87.9768 104.1L93.7868 111.66C93.7728 111.539 93.7635 111.422 93.7588 111.31C93.7542 111.193 93.7518 111.081 93.7518 110.974V103.869H94.9418V113.9H94.2558C94.1485 113.9 94.0575 113.881 93.9828 113.844C93.9128 113.807 93.8428 113.744 93.7728 113.655L87.9698 106.102C87.9792 106.219 87.9862 106.333 87.9908 106.445C87.9955 106.557 87.9978 106.66 87.9978 106.753V113.9H86.8078V103.869H87.5078ZM105.643 113.9H104.593C104.472 113.9 104.374 113.87 104.299 113.809C104.224 113.748 104.168 113.671 104.131 113.578L103.193 111.156H98.6919L97.7539 113.578C97.7212 113.662 97.6652 113.737 97.5859 113.802C97.5065 113.867 97.4085 113.9 97.2919 113.9H96.2419L100.253 103.869H101.632L105.643 113.9ZM99.0699 110.176H102.815L101.24 106.095C101.137 105.843 101.037 105.528 100.939 105.15C100.888 105.341 100.836 105.519 100.785 105.682C100.738 105.841 100.692 105.981 100.645 106.102L99.0699 110.176Z" fill="#F6F7F8"/>
</svg>
