<svg width="151" height="130" viewBox="0 0 151 130" fill="none" xmlns="http://www.w3.org/2000/svg">
<rect width="151" height="130" rx="15" fill="#D4987F"/>
<path d="M89.3033 71.8321C89.2116 71.8321 89.1199 71.8071 89.0365 71.7599L75.2331 63.792C75.0691 63.6976 74.9663 63.5225 74.9663 63.3308C74.9663 63.1392 75.0664 62.9641 75.2331 62.8697L89.0365 54.9046C89.2005 54.8101 89.4034 54.8101 89.5701 54.9046C89.7341 54.999 89.8369 55.1741 89.8369 55.3658L89.8397 71.2987C89.8397 71.4876 89.7396 71.6654 89.5729 71.7599C89.4895 71.8099 89.3978 71.8321 89.3033 71.8321ZM76.5643 63.3336L88.7725 70.3791L88.7698 56.2881L76.5643 63.3336Z" fill="#F6F7F8"/>
<path d="M75.5 63.8699C75.4083 63.8699 75.3165 63.8449 75.2332 63.7977L61.4269 55.827C61.263 55.7326 61.1602 55.5575 61.1602 55.3658L61.1629 39.4329C61.1629 39.244 61.2658 39.0662 61.4297 38.9717C61.5937 38.8773 61.7966 38.8773 61.9633 38.9717L75.7667 46.9396C75.9307 47.034 76.0335 47.2091 76.0335 47.4008V63.3393C76.0335 63.5282 75.9335 63.706 75.7667 63.8004C75.6834 63.8477 75.5917 63.8699 75.5 63.8699ZM62.2273 55.0602L74.9692 62.4169V47.7091L62.2301 40.3553L62.2273 55.0602Z" fill="#F6F7F8"/>
<path d="M61.6967 71.8321C61.605 71.8321 61.5133 71.807 61.4299 71.7598L47.6237 63.7892C47.4598 63.6947 47.3569 63.5197 47.3569 63.328L47.3597 47.3951C47.3597 47.2061 47.4625 47.0283 47.6265 46.9339C47.7905 46.8394 47.9933 46.8394 48.1601 46.9339L61.9441 54.8906C61.9552 54.8962 61.9663 54.9017 61.9774 54.9101C62.133 55.0073 62.2303 55.1796 62.2303 55.3629V71.3014C62.2303 71.4903 62.1303 71.6681 61.9635 71.7626C61.8801 71.8098 61.7884 71.8321 61.6967 71.8321ZM48.4241 63.0224L61.1659 70.3791V55.6713L48.4269 48.3174L48.4241 63.0224Z" fill="#F6F7F8"/>
<path d="M75.4999 63.8697C75.4082 63.8697 75.3165 63.8447 75.2331 63.7975C75.0691 63.7031 74.9663 63.528 74.9663 63.3363V47.3978C74.9663 47.2145 75.0608 47.0422 75.2192 46.945C75.2303 46.9394 75.2414 46.9311 75.2525 46.9255L89.0365 38.9688C89.2005 38.8743 89.4034 38.8743 89.5701 38.9688C89.7341 39.0633 89.8369 39.2383 89.8369 39.43L89.8397 55.3629C89.8397 55.5518 89.7396 55.7296 89.5729 55.8241L75.7667 63.7947C75.6833 63.8475 75.5916 63.8697 75.4999 63.8697ZM76.0307 47.7062V62.414L88.7725 55.0573L88.7698 40.3523L76.0307 47.7062Z" fill="#F6F7F8"/>
<path d="M89.3036 71.8322C89.2119 71.8322 89.1202 71.8071 89.0368 71.7599C88.8728 71.6655 88.77 71.4904 88.77 71.2987V55.3602C88.77 55.1769 88.8645 55.0046 89.0229 54.9074C89.034 54.9018 89.0451 54.8935 89.0563 54.8879L102.84 46.9312C103.004 46.8367 103.207 46.8367 103.374 46.9312C103.538 47.0257 103.641 47.2007 103.641 47.3924L103.643 63.3253C103.643 63.5142 103.543 63.692 103.377 63.7865L89.5704 71.7571C89.487 71.8099 89.3953 71.8322 89.3036 71.8322ZM89.8372 55.6714V70.3792L102.579 63.0225L102.576 48.3175L89.8372 55.6714Z" fill="#F6F7F8"/>
<path d="M47.8905 47.9425C47.7988 47.9425 47.7071 47.9175 47.6237 47.8703C47.4598 47.7758 47.3569 47.6008 47.3569 47.4091V31.4706C47.3569 31.2872 47.4514 31.115 47.6098 31.0177C47.6209 31.0122 47.6321 31.0039 47.6432 30.9983L61.4272 23.0415C61.5911 22.9471 61.794 22.9471 61.9607 23.0415C62.1247 23.136 62.2275 23.311 62.2275 23.5027L62.2303 39.4357C62.2303 39.6246 62.1303 39.8024 61.9635 39.8969L48.1573 47.8675C48.0739 47.9175 47.9822 47.9425 47.8905 47.9425ZM48.4241 31.779V46.4867L61.1659 39.1301L61.1632 24.4251L48.4241 31.779Z" fill="#F6F7F8"/>
<path d="M103.11 47.9424C103.018 47.9424 102.926 47.9174 102.843 47.8702L89.0368 39.8995C88.8728 39.8051 88.77 39.6301 88.77 39.4384L88.7728 23.5054C88.7728 23.3165 88.8756 23.1387 89.0396 23.0442C89.2035 22.9498 89.4064 22.9498 89.5732 23.0442L103.357 31.001C103.368 31.0065 103.379 31.0121 103.39 31.0204C103.546 31.1177 103.643 31.2899 103.643 31.4733V47.4118C103.643 47.6007 103.543 47.7785 103.377 47.873C103.293 47.9174 103.202 47.9424 103.11 47.9424ZM89.8372 39.13L102.579 46.4866V31.7789L89.8399 24.425L89.8372 39.13Z" fill="#F6F7F8"/>
<path d="M89.3064 55.8993C89.2147 55.8993 89.123 55.8743 89.0396 55.827C88.8756 55.7326 88.7728 55.5575 88.7728 55.3658L88.77 39.4329C88.77 39.244 88.8701 39.0662 89.0368 38.9717C89.2008 38.8773 89.4036 38.8773 89.5704 38.9717L103.374 46.9396C103.538 47.034 103.641 47.2091 103.641 47.4008C103.641 47.5925 103.541 47.7675 103.374 47.8619L89.5704 55.827C89.4898 55.8743 89.3981 55.8993 89.3064 55.8993ZM89.8372 40.3553L89.8399 54.4463L102.045 47.4008L89.8372 40.3553Z" fill="#F6F7F8"/>
<path d="M61.6994 71.8377C61.6077 71.8377 61.516 71.8127 61.4327 71.7655C61.2687 71.671 61.1659 71.496 61.1659 71.3043L61.1631 55.3714C61.1631 55.1825 61.2631 55.0047 61.4299 54.9102C61.5938 54.8157 61.7967 54.8157 61.9634 54.9102L75.7669 62.8781C75.9309 62.9725 76.0337 63.1475 76.0337 63.3392C76.0337 63.5309 75.9336 63.706 75.7669 63.8004L61.9634 71.7655C61.8829 71.8127 61.7911 71.8377 61.6994 71.8377ZM62.2275 56.2937L62.2302 70.3847L74.4357 63.3392L62.2275 56.2937Z" fill="#F6F7F8"/>
<path d="M61.6994 39.9691C61.6077 39.9691 61.516 39.9441 61.4327 39.8969C61.2687 39.8024 61.1659 39.6274 61.1659 39.4357L61.1631 23.5027C61.1631 23.3138 61.2631 23.136 61.4299 23.0415C61.5938 22.9471 61.7967 22.9471 61.9634 23.0415L75.7669 31.0094C75.9309 31.1039 76.0337 31.2789 76.0337 31.4706C76.0337 31.6623 75.9336 31.8373 75.7669 31.9318L61.9634 39.8969C61.8829 39.9469 61.7911 39.9691 61.6994 39.9691ZM62.2275 24.4251L62.2302 38.5161L74.4357 31.4706L62.2275 24.4251Z" fill="#F6F7F8"/>
<path d="M89.3033 39.969C89.2116 39.969 89.1199 39.944 89.0365 39.8968L75.2331 31.9317C75.0691 31.8372 74.9663 31.6622 74.9663 31.4705C74.9663 31.2788 75.0664 31.1038 75.2331 31.0093L89.0365 23.0442C89.2005 22.9498 89.4034 22.9498 89.5701 23.0442C89.7341 23.1387 89.8369 23.3137 89.8369 23.5054L89.8397 39.4384C89.8397 39.6273 89.7396 39.8051 89.5729 39.8995C89.4895 39.9468 89.3978 39.969 89.3033 39.969ZM76.5643 31.4705L88.7725 38.516L88.7698 24.425L76.5643 31.4705Z" fill="#F6F7F8"/>
<path d="M61.6969 55.9049C61.6052 55.9049 61.5135 55.8799 61.4301 55.8326L47.6267 47.8648C47.4627 47.7703 47.3599 47.5953 47.3599 47.4036C47.3599 47.2119 47.4599 47.0369 47.6267 46.9424L61.4301 38.9773C61.5941 38.8829 61.7969 38.8829 61.9637 38.9773C62.1276 39.0718 62.2305 39.2468 62.2305 39.4385L62.2332 55.3715C62.2332 55.5604 62.1332 55.7382 61.9665 55.8326C61.8803 55.8799 61.7886 55.9049 61.6969 55.9049ZM48.9578 47.4036L61.1661 54.4491L61.1633 40.3581L48.9578 47.4036Z" fill="#F6F7F8"/>
<path d="M75.4972 47.9314C75.4055 47.9314 75.3138 47.9064 75.2304 47.8591L61.4269 39.8968C61.263 39.8024 61.1602 39.6273 61.1602 39.4356C61.1602 39.2467 61.2602 39.0689 61.4269 38.9745L75.2304 31.0038C75.3944 30.9094 75.5972 30.9094 75.764 31.0038L89.5702 38.9772C89.7342 39.0717 89.837 39.2467 89.837 39.4384C89.837 39.6273 89.7342 39.8051 89.5702 39.8996L75.764 47.8619C75.6806 47.9091 75.5889 47.9314 75.4972 47.9314ZM62.7609 39.4356L75.4972 46.784L88.239 39.4384L75.4972 32.0818L62.7609 39.4356Z" fill="#F6F7F8"/>
<path d="M75.4972 79.8C75.4055 79.8 75.3138 79.775 75.2304 79.7278L61.4269 71.7655C61.263 71.671 61.1602 71.496 61.1602 71.3043C61.1602 71.1154 61.2602 70.9376 61.4269 70.8431L75.2304 62.8725C75.3944 62.778 75.5972 62.778 75.764 62.8725L89.5702 70.8459C89.7342 70.9404 89.837 71.1154 89.837 71.3071C89.837 71.496 89.7342 71.6738 89.5702 71.7683L75.764 79.7306C75.6806 79.775 75.5889 79.8 75.4972 79.8ZM62.7609 71.3043L75.4972 78.6526L88.239 71.3043L75.4972 63.9476L62.7609 71.3043Z" fill="#F6F7F8"/>
<path d="M75.4972 31.9984C75.4055 31.9984 75.3138 31.9734 75.2304 31.9261L61.4269 23.9638C61.263 23.8694 61.1602 23.6944 61.1602 23.5027C61.1602 23.3137 61.2602 23.1359 61.4269 23.0415L75.2304 15.0708C75.3944 14.9764 75.5972 14.9764 75.764 15.0708L89.5702 23.0443C89.7342 23.1387 89.837 23.3137 89.837 23.5054C89.837 23.6944 89.7342 23.8722 89.5702 23.9666L75.764 31.9289C75.6806 31.9734 75.5889 31.9984 75.4972 31.9984ZM62.7609 23.5027L75.4972 30.851L88.239 23.5027L75.4972 16.146L62.7609 23.5027Z" fill="#F6F7F8"/>
<path d="M40.2717 95.369V96.51H37.0307V105.4H35.6727V96.51H32.4177V95.369H40.2717ZM47.8785 95.369V96.475H43.0625V99.807H46.9615V100.871H43.0625V104.294H47.8785V105.4H41.6975V95.369H47.8785ZM54.9703 96.937C54.9283 97.007 54.8839 97.0607 54.8373 97.098C54.7906 97.1307 54.7299 97.147 54.6553 97.147C54.5759 97.147 54.4826 97.1074 54.3753 97.028C54.2726 96.9487 54.1396 96.8624 53.9763 96.769C53.8176 96.671 53.6239 96.5824 53.3953 96.503C53.1713 96.4237 52.8983 96.384 52.5763 96.384C52.2729 96.384 52.0046 96.426 51.7713 96.51C51.5379 96.5894 51.3419 96.699 51.1833 96.839C51.0293 96.979 50.9126 97.1447 50.8333 97.336C50.7539 97.5227 50.7143 97.7257 50.7143 97.945C50.7143 98.225 50.7819 98.4584 50.9173 98.645C51.0573 98.827 51.2393 98.9834 51.4633 99.114C51.6919 99.2447 51.9486 99.359 52.2333 99.457C52.5226 99.5504 52.8166 99.6484 53.1153 99.751C53.4186 99.8537 53.7126 99.9704 53.9973 100.101C54.2866 100.227 54.5433 100.388 54.7673 100.584C54.9959 100.78 55.1779 101.02 55.3133 101.305C55.4533 101.59 55.5233 101.94 55.5233 102.355C55.5233 102.794 55.4486 103.207 55.2993 103.594C55.1499 103.977 54.9306 104.31 54.6413 104.595C54.3566 104.88 54.0043 105.104 53.5843 105.267C53.1689 105.43 52.6953 105.512 52.1633 105.512C51.5146 105.512 50.9219 105.395 50.3853 105.162C49.8533 104.924 49.3983 104.604 49.0203 104.203L49.4123 103.559C49.4496 103.508 49.4939 103.466 49.5453 103.433C49.6013 103.396 49.6619 103.377 49.7273 103.377C49.8253 103.377 49.9373 103.431 50.0633 103.538C50.1893 103.641 50.3456 103.755 50.5323 103.881C50.7236 104.007 50.9523 104.124 51.2183 104.231C51.4889 104.334 51.8179 104.385 52.2053 104.385C52.5273 104.385 52.8143 104.341 53.0663 104.252C53.3183 104.163 53.5306 104.04 53.7033 103.881C53.8806 103.718 54.0159 103.524 54.1093 103.3C54.2026 103.076 54.2493 102.826 54.2493 102.551C54.2493 102.248 54.1793 102 54.0393 101.809C53.9039 101.613 53.7243 101.45 53.5003 101.319C53.2763 101.188 53.0196 101.079 52.7303 100.99C52.4456 100.897 52.1516 100.803 51.8483 100.71C51.5496 100.612 51.2556 100.5 50.9663 100.374C50.6816 100.248 50.4273 100.085 50.2033 99.884C49.9793 99.6834 49.7973 99.4337 49.6573 99.135C49.5219 98.8317 49.4543 98.4584 49.4543 98.015C49.4543 97.6604 49.5219 97.3174 49.6573 96.986C49.7973 96.6547 49.9979 96.3607 50.2593 96.104C50.5206 95.8474 50.8426 95.642 51.2253 95.488C51.6126 95.334 52.0559 95.257 52.5553 95.257C53.1153 95.257 53.6263 95.3457 54.0883 95.523C54.5503 95.7004 54.9539 95.957 55.2993 96.293L54.9703 96.937ZM66.5731 100.388C66.5731 101.139 66.4541 101.83 66.2161 102.46C65.9781 103.085 65.6421 103.624 65.2081 104.077C64.7741 104.53 64.2514 104.882 63.6401 105.134C63.0334 105.381 62.3614 105.505 61.6241 105.505C60.8868 105.505 60.2148 105.381 59.6081 105.134C59.0014 104.882 58.4811 104.53 58.0471 104.077C57.6131 103.624 57.2771 103.085 57.0391 102.46C56.8011 101.83 56.6821 101.139 56.6821 100.388C56.6821 99.6367 56.8011 98.9484 57.0391 98.323C57.2771 97.693 57.6131 97.1517 58.0471 96.699C58.4811 96.2417 59.0014 95.887 59.6081 95.635C60.2148 95.383 60.8868 95.257 61.6241 95.257C62.3614 95.257 63.0334 95.383 63.6401 95.635C64.2514 95.887 64.7741 96.2417 65.2081 96.699C65.6421 97.1517 65.9781 97.693 66.2161 98.323C66.4541 98.9484 66.5731 99.6367 66.5731 100.388ZM65.1801 100.388C65.1801 99.772 65.0961 99.219 64.9281 98.729C64.7601 98.239 64.5221 97.826 64.2141 97.49C63.9061 97.1494 63.5328 96.888 63.0941 96.706C62.6554 96.524 62.1654 96.433 61.6241 96.433C61.0874 96.433 60.5998 96.524 60.1611 96.706C59.7224 96.888 59.3468 97.1494 59.0341 97.49C58.7261 97.826 58.4881 98.239 58.3201 98.729C58.1521 99.219 58.0681 99.772 58.0681 100.388C58.0681 101.004 58.1521 101.557 58.3201 102.047C58.4881 102.532 58.7261 102.945 59.0341 103.286C59.3468 103.622 59.7224 103.881 60.1611 104.063C60.5998 104.24 61.0874 104.329 61.6241 104.329C62.1654 104.329 62.6554 104.24 63.0941 104.063C63.5328 103.881 63.9061 103.622 64.2141 103.286C64.5221 102.945 64.7601 102.532 64.9281 102.047C65.0961 101.557 65.1801 101.004 65.1801 100.388ZM72.325 104.322C72.7403 104.322 73.1113 104.252 73.438 104.112C73.7647 103.972 74.04 103.776 74.264 103.524C74.4927 103.272 74.6653 102.971 74.782 102.621C74.9033 102.271 74.964 101.886 74.964 101.466V95.369H76.315V101.466C76.315 102.045 76.2217 102.581 76.035 103.076C75.853 103.571 75.5893 104 75.244 104.364C74.9033 104.723 74.4857 105.006 73.991 105.211C73.4963 105.416 72.941 105.519 72.325 105.519C71.709 105.519 71.1537 105.416 70.659 105.211C70.1643 105.006 69.7443 104.723 69.399 104.364C69.0537 104 68.7877 103.571 68.601 103.076C68.419 102.581 68.328 102.045 68.328 101.466V95.369H69.679V101.459C69.679 101.879 69.7373 102.264 69.854 102.614C69.9753 102.964 70.148 103.265 70.372 103.517C70.6007 103.769 70.8783 103.967 71.205 104.112C71.5363 104.252 71.9097 104.322 72.325 104.322ZM80.1436 101.214V105.4H78.7926V95.369H81.6276C82.2622 95.369 82.8106 95.4344 83.2726 95.565C83.7346 95.691 84.1149 95.8754 84.4136 96.118C84.7169 96.3607 84.9409 96.6547 85.0856 97C85.2302 97.3407 85.3026 97.7234 85.3026 98.148C85.3026 98.5027 85.2466 98.834 85.1346 99.142C85.0226 99.45 84.8592 99.7277 84.6446 99.975C84.4346 100.218 84.1756 100.425 83.8676 100.598C83.5642 100.771 83.2189 100.901 82.8316 100.99C82.9996 101.088 83.1489 101.23 83.2796 101.417L86.2056 105.4H85.0016C84.7542 105.4 84.5722 105.304 84.4556 105.113L81.8516 101.529C81.7722 101.417 81.6859 101.338 81.5926 101.291C81.4992 101.24 81.3592 101.214 81.1726 101.214H80.1436ZM80.1436 100.227H81.5646C81.9612 100.227 82.3089 100.18 82.6076 100.087C82.9109 99.989 83.1629 99.8537 83.3636 99.681C83.5689 99.5037 83.7229 99.2937 83.8256 99.051C83.9282 98.8084 83.9796 98.54 83.9796 98.246C83.9796 97.6487 83.7812 97.1984 83.3846 96.895C82.9926 96.5917 82.4069 96.44 81.6276 96.44H80.1436V100.227ZM95.9153 105.4H94.8653C94.744 105.4 94.646 105.37 94.5713 105.309C94.4967 105.248 94.4407 105.171 94.4033 105.078L93.4653 102.656H88.9643L88.0263 105.078C87.9937 105.162 87.9377 105.237 87.8583 105.302C87.779 105.367 87.681 105.4 87.5643 105.4H86.5143L90.5253 95.369H91.9043L95.9153 105.4ZM89.3423 101.676H93.0873L91.5123 97.595C91.4097 97.343 91.3093 97.028 91.2113 96.65C91.16 96.8414 91.1087 97.0187 91.0573 97.182C91.0107 97.3407 90.964 97.4807 90.9173 97.602L89.3423 101.676ZM98.669 101.214V105.4H97.318V95.369H100.153C100.788 95.369 101.336 95.4344 101.798 95.565C102.26 95.691 102.64 95.8754 102.939 96.118C103.242 96.3607 103.466 96.6547 103.611 97C103.756 97.3407 103.828 97.7234 103.828 98.148C103.828 98.5027 103.772 98.834 103.66 99.142C103.548 99.45 103.385 99.7277 103.17 99.975C102.96 100.218 102.701 100.425 102.393 100.598C102.09 100.771 101.744 100.901 101.357 100.99C101.525 101.088 101.674 101.23 101.805 101.417L104.731 105.4H103.527C103.28 105.4 103.098 105.304 102.981 105.113L100.377 101.529C100.298 101.417 100.211 101.338 100.118 101.291C100.025 101.24 99.8846 101.214 99.698 101.214H98.669ZM98.669 100.227H100.09C100.487 100.227 100.834 100.18 101.133 100.087C101.436 99.989 101.688 99.8537 101.889 99.681C102.094 99.5037 102.248 99.2937 102.351 99.051C102.454 98.8084 102.505 98.54 102.505 98.246C102.505 97.6487 102.307 97.1984 101.91 96.895C101.518 96.5917 100.932 96.44 100.153 96.44H98.669V100.227ZM107.798 105.4H106.44V95.369H107.798V105.4ZM118.734 105.4H117.684C117.562 105.4 117.464 105.37 117.39 105.309C117.315 105.248 117.259 105.171 117.222 105.078L116.284 102.656H111.783L110.845 105.078C110.812 105.162 110.756 105.237 110.677 105.302C110.597 105.367 110.499 105.4 110.383 105.4H109.333L113.344 95.369H114.723L118.734 105.4ZM112.161 101.676H115.906L114.331 97.595C114.228 97.343 114.128 97.028 114.03 96.65C113.978 96.8414 113.927 97.0187 113.876 97.182C113.829 97.3407 113.782 97.4807 113.736 97.602L112.161 101.676Z" fill="#F6F7F8"/>
</svg>
